<?xml version="1.0" standalone="no"?>
<!DOCTYPE svg PUBLIC "-//W3C//DTD SVG 20010904//EN"
 "http://www.w3.org/TR/2001/REC-SVG-20010904/DTD/svg10.dtd">
<svg version="1.0" xmlns="http://www.w3.org/2000/svg"
 width="1191.000000pt" height="617.000000pt" viewBox="0 0 1191.000000 617.000000"
 preserveAspectRatio="xMidYMid meet">

<g transform="translate(0.000000,617.000000) scale(0.100000,-0.100000)"
fill="#ffffff" stroke="none">
<path d="M9033 6069 c-29 -5 -85 -20 -125 -34 -52 -19 -84 -24 -110 -20 -21 4
-43 3 -50 -2 -8 -5 2 -10 31 -13 42 -5 18 -18 -1010 -554 l-1054 -549 -95 -7
c-93 -7 -93 -7 -26 -8 41 -1 66 -6 60 -11 -5 -5 -530 -280 -1167 -611 l-1159
-602 -121 4 -122 3 0 -25 c0 -25 1 -25 78 -24 42 1 77 0 77 -2 0 -2 -21 -14
-47 -28 l-48 -24 -695 -5 c-677 -5 -829 -11 -1170 -43 -278 -25 -636 -85 -835
-137 l-50 -13 -5 -99 -5 -98 -115 -43 -115 -44 -455 0 c-522 0 -680 -6 -680
-27 0 -14 -40 -14 710 -14 l435 1 110 -43 110 -42 5 -99 5 -99 118 -28 c536
-126 1071 -168 2152 -169 l480 -1 55 -28 55 -29 -87 5 -88 6 0 -27 0 -26 128
0 129 0 809 -421 c445 -231 868 -451 939 -488 72 -38 222 -116 335 -174 113
-58 214 -113 225 -122 19 -14 16 -15 -42 -13 -35 1 -66 -2 -70 -5 -3 -4 33 -7
81 -7 l88 0 975 -507 976 -508 -419 -6 c-587 -9 -544 -7 -544 -23 0 -20 83
-25 630 -32 320 -4 471 -10 485 -17 18 -11 15 -13 -25 -18 l-45 -6 57 -1 c32
-1 81 -11 110 -23 81 -32 190 -48 334 -49 233 0 705 39 712 60 2 5 24 10 48
10 57 0 57 18 0 22 -43 3 -51 11 -604 548 -420 408 -556 546 -542 548 11 2 20
5 20 6 0 4 -304 302 -648 637 -209 202 -321 305 -338 307 l-24 3 0 176 0 176
88 -7 c48 -4 420 -10 826 -12 l739 -4 747 -432 748 -433 -127 -6 c-124 -6
-211 -22 -211 -38 0 -18 121 -31 285 -31 167 0 174 -1 231 -27 53 -25 72 -28
194 -31 184 -5 323 5 316 24 -4 10 4 14 29 14 19 0 35 5 35 10 0 6 -13 10 -30
10 -16 0 -29 3 -28 8 2 4 -95 192 -215 418 -119 226 -245 466 -279 533 -44 84
-68 121 -80 121 -10 0 -18 5 -18 10 0 6 5 10 10 10 6 0 10 5 10 11 0 7 -11 8
-30 4 l-30 -7 0 151 c0 150 0 151 23 152 12 1 28 1 35 0 6 -1 12 7 12 19 0 19
6 20 113 20 123 0 598 28 606 35 2 3 2 7 -1 10 -8 8 -456 35 -590 35 -124 0
-128 1 -128 21 0 13 -5 19 -12 16 -7 -2 -23 -1 -35 4 -22 8 -23 12 -23 154 l0
145 32 0 c39 0 26 17 -17 23 -23 3 -19 4 15 6 43 1 46 4 69 49 12 26 138 264
278 530 140 266 252 490 249 497 -3 10 6 15 32 18 l37 4 -37 1 c-28 2 -36 6
-32 16 7 18 -100 30 -276 30 -126 0 -213 -16 -264 -49 -16 -10 -64 -13 -196
-12 -167 1 -290 -14 -290 -34 0 -16 79 -30 219 -38 l115 -6 -755 -436 -754
-435 -310 5 c-317 6 -1053 -2 -1227 -14 l-98 -7 0 182 0 181 23 -3 c19 -2 114
85 506 467 405 394 479 471 461 475 -18 4 70 94 540 550 557 541 561 545 605
548 58 4 59 22 1 22 -24 0 -46 4 -48 10 -12 36 -754 76 -915 49z m505 -15 c98
-7 102 -8 102 -30 0 -24 -2 -24 -107 -26 l-108 -2 98 -3 98 -4 -606 -490
c-600 -486 -607 -491 -627 -472 -23 20 2 -24 69 -121 33 -48 33 -50 16 -67
-10 -9 -338 -292 -730 -627 l-712 -609 -52 13 c-30 8 -88 14 -131 14 -71 0
-78 -2 -78 -20 0 -16 -7 -20 -31 -20 -27 0 66 81 718 624 742 619 750 625 799
629 45 4 45 4 -9 3 l-57 -1 0 32 c0 17 -4 34 -9 37 -5 3 -318 6 -697 7 l-689
1 45 21 c25 12 47 25 50 28 3 3 111 60 240 127 129 66 321 166 427 221 106 55
198 102 205 103 7 2 15 6 18 9 3 3 32 20 65 38 56 30 61 31 73 14 11 -15 11
-20 -3 -28 -49 -30 -42 -32 13 -5 59 29 90 52 36 28 -21 -10 -27 -9 -35 3 -5
8 -7 18 -6 22 1 5 104 61 228 125 123 65 336 175 472 245 212 110 254 128 290
127 23 -1 103 0 177 1 l135 3 -160 6 -160 6 123 2 122 2 0 25 0 25 143 -4 c78
-3 188 -8 245 -12z m-408 -9 c0 -12 -16 -15 -87 -15 -93 0 -102 5 -32 19 74
15 119 13 119 -4z m690 -15 c157 -17 147 -30 -23 -30 -147 0 -147 0 -147 23 0
26 -11 25 170 7z m-150 -53 c-8 -8 -154 -130 -323 -271 -205 -171 -313 -256
-323 -252 -9 3 -14 10 -12 15 7 20 634 520 653 521 17 0 17 -2 5 -13z m206 5
l41 -7 -555 -540 c-516 -502 -558 -540 -596 -546 -22 -3 -91 -9 -153 -13
l-112 -6 -42 61 c-40 59 -41 62 -23 79 15 13 463 375 510 412 7 5 16 3 23 -6
10 -12 -32 -51 -236 -222 -136 -114 -257 -216 -268 -228 l-20 -20 20 15 c11 9
132 109 268 223 206 173 250 206 263 195 19 -16 57 16 49 42 -5 14 68 80 322
293 l328 275 70 0 c39 0 88 -4 111 -7z m-849 -576 c-6 -19 -22 -15 -41 10 -15
22 -16 28 -5 35 15 9 51 -27 46 -45z m-847 -506 c0 -7 -247 -10 -722 -10 -471
0 -718 4 -708 10 21 13 1430 13 1430 0z m-4 -37 c-4 -9 -2 -19 3 -23 6 -3
-175 -160 -401 -348 l-411 -343 -24 36 c-13 19 -26 35 -29 35 -2 0 7 -17 21
-37 20 -30 22 -40 12 -49 -6 -7 -156 -132 -332 -278 l-319 -266 -220 0 c-126
0 -216 4 -210 9 5 5 71 50 147 100 75 50 137 94 137 96 0 3 -71 -42 -157 -100
l-158 -105 -115 0 -116 0 -189 229 c-105 126 -192 227 -193 226 -2 -2 74 -97
170 -212 95 -114 179 -216 187 -226 13 -16 -26 -17 -829 -15 -551 2 -844 6
-846 13 -2 6 23 26 54 46 65 42 532 283 536 278 6 -8 26 -48 26 -53 0 -3 -22
-17 -50 -31 -27 -14 -50 -28 -50 -30 0 -3 32 11 70 30 39 19 70 37 70 40 0 2
-6 2 -14 -1 -9 -4 -20 6 -30 25 l-16 31 111 55 c61 31 112 55 114 53 13 -15
25 -50 20 -58 -3 -5 1 -7 9 -4 12 5 11 11 -5 39 l-20 33 379 196 c208 108 382
196 385 196 3 0 11 -9 17 -21 9 -15 8 -24 -1 -35 -10 -12 -9 -13 7 -7 35 15
104 53 104 58 0 3 -18 -4 -40 -15 l-39 -20 -15 28 -15 28 75 37 c41 20 78 37
83 37 4 0 13 -10 18 -23 9 -19 8 -26 -6 -35 -9 -7 17 4 57 23 39 19 72 38 72
40 0 3 -22 -6 -49 -19 l-48 -25 -12 26 c-6 14 -10 27 -8 30 11 10 563 293 573
293 11 0 24 -22 24 -40 0 -4 -14 -13 -30 -20 -17 -7 -33 -17 -36 -22 -3 -5 21
5 55 22 34 16 61 33 61 35 0 3 -9 1 -20 -5 -17 -9 -20 -7 -26 16 -4 17 -2 29
7 35 8 5 344 9 748 9 681 0 733 -1 727 -17z m604 -47 c-685 -671 -910 -882
-910 -852 0 11 926 902 944 908 11 3 23 6 26 7 3 1 -24 -28 -60 -63z m-250
-196 c-140 -137 -352 -342 -472 -457 l-216 -208 -1 -182 -1 -183 -32 0 c-18 0
-141 -7 -273 -15 -334 -20 -417 -20 -455 3 l-30 19 721 619 c397 340 729 624
738 629 16 10 118 21 221 23 l55 1 -255 -249z m3148 -35 c3 -3 -1 -12 -9 -20
-10 -11 -56 -16 -182 -21 l-167 -7 0 33 0 33 176 -6 c98 -4 179 -9 182 -12z
m-368 -20 c0 -23 -4 -25 -44 -25 -78 0 -102 22 -43 39 17 5 44 10 60 10 22 1
27 -3 27 -24z m-430 -45 c0 -18 -6 -20 -52 -19 -139 3 -128 32 15 38 31 1 37
-2 37 -19z m319 5 c13 -14 -22 -19 -159 -23 l-150 -5 0 23 0 23 152 -7 c84 -4
154 -9 157 -11z m56 -5 c4 -6 -5 -10 -19 -10 -14 0 -26 5 -26 10 0 6 9 10 19
10 11 0 23 -4 26 -10z m255 4 c0 -6 -74 -95 -127 -154 -11 -12 -18 -9 -50 20
-21 19 -29 25 -19 13 l19 -23 -299 -305 c-164 -168 -330 -339 -369 -381 l-70
-76 45 -38 c68 -58 52 -64 -116 -46 -76 8 -238 22 -359 30 -121 9 -257 19
-303 22 -65 5 -84 10 -92 24 -5 9 -6 21 -2 25 4 5 1 5 -6 1 -9 -5 -9 -12 -1
-27 10 -20 9 -20 -108 -13 -65 3 -119 7 -119 8 -2 1 924 538 1334 774 148 85
204 112 231 112 33 0 34 -1 15 -16 -18 -15 -17 -15 7 -1 14 8 44 17 67 18 36
3 47 -2 79 -31 33 -30 34 -31 10 -4 -31 34 -33 44 -12 44 8 0 15 7 15 15 0 12
19 15 115 15 63 0 115 -3 115 -6z m137 -1 c-2 -5 -127 -241 -277 -525 l-272
-518 -57 0 c-64 0 -307 28 -334 38 -15 6 54 93 405 509 l423 502 58 0 c32 1
56 -2 54 -6z m-128 -304 c-357 -676 -391 -740 -396 -736 -2 3 100 202 227 443
291 551 321 606 326 602 2 -3 -69 -141 -157 -309z m-165 129 c-1 -8 -151 -191
-333 -406 l-332 -392 -39 32 c-22 17 -40 35 -40 38 0 15 724 750 734 747 6 -2
10 -11 10 -19z m-7164 -708 c0 -5 -20 -10 -45 -10 -25 0 -45 5 -45 10 0 6 20
10 45 10 25 0 45 -4 45 -10z m104 -35 c4 -11 -2 -15 -27 -15 l-32 1 25 14 c14
8 26 14 26 15 1 0 4 -7 8 -15z m2546 -5 c0 -15 -7 -20 -25 -20 -18 0 -25 5
-25 20 0 15 7 20 25 20 18 0 25 -5 25 -20z m163 -7 c32 -9 60 -20 63 -24 3 -5
-42 -9 -100 -9 -96 0 -105 2 -111 20 -3 11 -3 24 0 30 7 12 64 5 148 -17z
m2667 -13 c113 -6 299 -17 414 -25 115 -8 213 -15 218 -15 4 0 8 -91 8 -202
l0 -203 -153 -1 c-97 0 -138 2 -112 7 25 5 0 6 -65 4 -159 -7 -880 7 -880 16
0 5 96 10 213 12 177 2 167 2 -63 3 -151 0 -249 -1 -217 -3 31 -2 57 -8 57
-12 0 -9 -215 -18 -640 -26 -151 -3 -353 -8 -447 -11 -119 -4 -173 -3 -173 4
0 6 26 13 58 15 31 2 -19 3 -113 3 -96 0 -123 -2 -62 -3 59 -2 107 -7 107 -12
0 -4 -84 -11 -187 -14 -268 -10 -383 -9 -383 3 0 6 53 10 138 11 75 1 129 3
120 6 -16 4 -18 18 -18 109 l0 104 875 0 875 0 0 33 c0 33 -2 34 -55 46 -34 8
-55 18 -55 26 0 8 21 18 55 26 53 12 55 13 55 46 l0 33 -225 0 c-193 0 -225
-2 -225 -15 0 -12 -13 -15 -55 -15 -48 0 -55 -2 -55 -20 0 -18 7 -20 55 -20
l55 0 0 -40 0 -40 -55 0 c-52 0 -55 -1 -55 -25 0 -23 -4 -25 -42 -24 -24 1
-36 3 -26 6 19 5 30 27 22 47 -8 21 -37 26 -176 33 l-128 6 0 -47 0 -46 -420
0 -420 0 0 98 0 99 63 2 c34 1 76 4 92 5 17 2 174 9 350 15 176 7 354 13 395
15 149 7 1080 -3 1280 -14z m-2900 -10 c0 -7 -439 -10 -1297 -10 -842 0 -1293
4 -1283 10 21 14 2580 14 2580 0z m710 -109 l0 -98 -1435 -2 -1435 -2 0 90 0
91 1308 2 c1104 1 1511 5 1555 16 4 1 7 -42 7 -97z m-3950 -46 c0 -69 -2 -125
-4 -125 -2 0 -61 9 -132 20 -71 12 -206 23 -301 27 -161 6 -173 5 -206 -14
-20 -12 -70 -26 -121 -32 -74 -10 -191 -37 -283 -66 l-23 -7 0 151 0 151 63 1
c34 1 121 5 192 8 72 4 284 8 473 9 l342 2 0 -125z m1066 109 c-3 -9 -6 -33
-6 -55 l0 -39 -119 0 -120 0 -4 48 -3 47 -2 -52 -2 -53 130 0 130 0 0 -30 0
-30 -195 0 c-190 0 -195 1 -183 19 14 23 -4 51 -33 51 -28 0 -43 -35 -23 -54
14 -15 13 -16 -15 -16 -30 0 -31 1 -31 50 l0 50 -197 -2 -198 -3 193 -2 192
-3 2 -98 c1 -53 3 -76 5 -49 l4 47 239 0 239 0 0 -290 0 -290 -239 0 -239 0
-3 48 -3 47 -195 0 -195 1 193 -3 192 -3 0 -95 0 -95 -192 -3 -193 -2 198 -3
197 -2 0 50 c0 49 1 50 31 50 28 0 29 -1 15 -16 -20 -19 -5 -54 23 -54 29 0
47 28 33 51 -12 18 -7 19 183 19 l195 0 0 -30 0 -30 -130 0 -130 0 2 -52 2
-53 3 48 4 47 120 0 119 0 0 -39 c0 -22 3 -46 6 -55 6 -14 -45 -16 -525 -16
l-531 0 0 130 c0 105 3 130 14 130 30 0 285 79 370 114 122 51 206 94 206 107
0 29 -338 165 -512 205 l-78 18 0 128 0 128 531 0 c480 0 531 -2 525 -16z
m4622 -1 c-2 -11 -19 -21 -45 -28 -82 -20 -83 -61 -2 -80 28 -7 45 -17 47 -28
3 -16 -14 -17 -202 -17 l-206 0 0 85 0 85 206 0 c188 0 205 -1 202 -17z m1337
-8 c169 -17 371 -43 398 -51 16 -5 17 -20 15 -182 l-3 -177 -45 1 c-25 0 -170
4 -322 9 l-278 8 0 208 0 209 43 -5 c23 -3 110 -12 192 -20z m-1765 -5 c0 -5
-20 -10 -45 -10 -25 0 -45 5 -45 10 0 6 20 10 45 10 25 0 45 -4 45 -10z
m-6418 -57 l2 -58 3 58 4 57 34 0 35 0 0 -150 0 -150 -52 -23 -53 -24 1 -102
0 -102 52 -24 52 -24 0 -151 0 -150 -35 0 -35 0 -2 58 -2 57 -3 -56 -4 -56
-52 4 c-76 6 -77 7 -77 57 l0 45 58 4 57 3 -62 2 -63 2 0 -50 c0 -48 -1 -50
-27 -50 -38 0 -420 57 -523 78 l-85 18 -3 127 -3 127 178 2 178 3 -177 2
c-170 3 -178 4 -178 23 0 19 7 20 144 20 167 0 208 6 204 28 -5 24 -40 30
-200 31 -141 1 -148 2 -148 21 0 19 7 20 178 22 l177 3 -178 2 -178 3 3 128 3
127 110 22 c128 26 448 73 494 73 31 0 31 -1 31 -50 l0 -50 48 2 47 1 -42 4
-43 4 0 49 0 49 48 4 c26 2 55 4 65 5 14 2 17 -7 19 -55z m8656 1 c21 -6 22
-11 22 -105 0 -96 -1 -99 -22 -100 l-23 -2 23 -4 c19 -4 22 -10 22 -58 0 -52
0 -53 35 -59 59 -11 39 -26 -35 -26 l-70 0 0 180 c0 190 -1 187 48 174z
m-2460 -33 c44 -12 61 -36 17 -25 -15 4 -25 2 -25 -5 0 -7 -32 -11 -95 -11
-78 0 -95 3 -95 15 0 11 14 15 58 17 l57 2 -57 3 c-32 2 -58 8 -58 14 0 12
141 5 198 -10z m-211 -33 c-3 -8 -6 -5 -6 6 -1 11 2 17 5 13 3 -3 4 -12 1 -19z
m-6777 -148 l0 -150 -85 0 -85 0 0 129 0 130 53 14 c61 18 87 24 105 26 9 1
12 -35 12 -149z m7193 143 c-13 -2 -35 -2 -50 0 -16 2 -5 4 22 4 28 0 40 -2
28 -4z m-1293 -138 l0 -105 -152 -2 c-84 0 -138 -3 -120 -5 33 -4 45 -23 15
-23 -122 -3 -454 -21 -473 -26 -19 -4 -22 -3 -10 5 19 14 5 14 -21 1 -37 -20
-12 -72 33 -69 7 0 4 5 -7 10 -16 7 -13 8 10 3 17 -3 130 -9 252 -13 122 -4
226 -10 230 -15 4 -4 1 -11 -7 -16 -10 -6 32 -10 118 -10 l132 0 0 -105 0
-105 -1435 0 -1435 0 0 111 0 111 25 -16 c51 -34 126 -14 154 41 27 53 -4 123
-64 143 -31 10 -41 9 -75 -8 l-40 -19 0 108 0 109 1435 0 1435 0 0 -105z
m-4155 59 c66 -8 170 -26 231 -39 119 -27 309 -84 302 -90 -2 -3 -51 9 -108
25 -230 66 -463 100 -696 103 -142 2 -180 8 -136 21 27 8 276 -4 407 -20z m40
-38 c55 -9 110 -18 123 -21 22 -5 22 -7 22 -185 0 -178 0 -180 -22 -185 -137
-33 -565 -58 -592 -36 -8 7 -25 42 -37 78 -37 113 -25 269 28 352 l15 24 182
-6 c99 -3 226 -13 281 -21z m-559 -14 c-8 -16 -20 -50 -27 -75 -8 -35 -16 -47
-30 -47 -10 0 -21 5 -25 11 -13 22 -99 51 -168 58 l-71 7 53 18 c62 21 215 54
255 55 27 1 27 1 13 -27z m25 1 c-12 -20 -14 -14 -5 12 4 9 9 14 11 11 3 -2 0
-13 -6 -23z m28 -4 c-44 -84 -51 -228 -15 -334 14 -38 23 -71 21 -73 -1 -1
-13 21 -26 50 -21 46 -24 68 -24 168 0 100 3 122 24 168 13 29 26 51 28 48 3
-2 -1 -15 -8 -27z m691 -189 c0 -102 -4 -171 -10 -175 -7 -4 -10 57 -10 175 0
118 3 179 10 175 6 -4 10 -73 10 -175z m-746 110 c-23 -89 -17 -175 21 -285 4
-13 1 -12 -9 5 -8 14 -20 46 -26 73 -10 38 -16 47 -33 47 -20 0 -22 6 -22 50
0 44 2 50 21 50 17 0 24 11 38 61 9 34 18 60 21 58 2 -2 -3 -29 -11 -59z m916
21 c168 -44 370 -116 370 -131 0 -17 -298 -118 -457 -154 l-63 -14 0 170 c0
156 1 169 18 164 9 -2 69 -18 132 -35z m-1255 -1 c3 -6 -4 -10 -17 -10 -18 0
-20 2 -8 10 19 12 18 12 25 0z m70 -27 c-33 -2 -73 -5 -90 -8 l-30 -5 0 -90
c0 -71 3 -90 14 -90 8 0 12 -3 8 -6 -3 -4 -21 -4 -39 0 l-33 6 0 90 0 90 40 9
c22 5 74 8 115 8 66 -1 68 -1 15 -4z m-1153 -75 c-5 -5 -42 -8 -83 -6 l-74 3
80 30 80 31 3 -24 c2 -14 -1 -29 -6 -34z m1271 37 c55 -26 64 -94 17 -123 -34
-21 -121 -33 -182 -26 l-58 6 0 78 c0 73 1 79 23 84 46 10 162 -1 200 -19z
m2104 1 c61 -53 21 -156 -62 -156 -21 0 -44 9 -62 24 -61 53 -21 156 62 156
21 0 44 -9 62 -24z m4333 -68 l0 -71 -242 6 c-134 4 -389 9 -568 12 -179 3
-353 8 -387 11 l-63 6 0 39 c0 21 1 40 3 41 5 3 880 25 1065 26 l192 2 0 -72z
m1263 51 c202 -7 367 -17 367 -21 0 -4 -9 -8 -19 -8 -20 0 -37 -17 -28 -27 4
-3 21 -9 39 -13 29 -6 26 -8 -32 -13 -111 -11 -714 -29 -1157 -34 l-423 -5 0
72 0 73 443 -6 c243 -3 607 -11 810 -18z m-2533 -49 l0 -40 -127 0 c-71 0
-199 3 -285 7 l-158 6 0 28 0 28 93 4 c50 1 179 4 285 5 l192 2 0 -40z m-580
0 l0 -30 -97 0 c-116 0 -394 18 -401 25 -3 3 -3 7 0 10 9 10 196 22 351 24
l147 1 0 -30z m-514 0 c0 -11 -4 -20 -8 -20 -4 0 -8 9 -8 20 0 11 4 20 8 20 4
0 8 -9 8 -20z m4830 7 c4 -4 4 -10 0 -14 -11 -12 -787 -10 -811 2 -16 7 -10
10 35 16 73 9 766 6 776 -4z m-11271 -7 c4 -6 -7 -10 -27 -9 -31 1 -32 1 -8 9
14 4 26 8 27 9 1 1 5 -3 8 -9z m1085 0 c0 -7 -183 -10 -530 -10 -347 0 -530 3
-530 10 0 7 183 10 530 10 347 0 530 -3 530 -10z m544 1 c9 -14 -53 -18 -280
-20 -205 -2 -244 2 -244 20 0 12 517 12 524 0z m9706 -1 c-20 -13 -40 -13 -40
0 0 6 12 10 28 10 21 0 24 -2 12 -10z m-10246 -26 c10 -4 16 -18 16 -35 l0
-29 -72 27 c-40 14 -77 30 -82 35 -11 9 114 11 138 2z m206 -155 c0 -139 -1
-150 -17 -145 -10 3 -40 10 -68 16 -93 20 -85 6 -85 151 l0 129 85 0 85 0 0
-151z m9390 -38 l0 -180 -52 -10 c-44 -9 -361 -46 -550 -64 l-48 -5 0 209 0
209 53 0 c109 0 472 13 476 16 2 2 31 4 63 4 l58 0 0 -179z m150 169 c0 -5
-16 -12 -35 -16 l-35 -6 0 -158 c0 -155 0 -158 -22 -164 -38 -10 -48 -7 -48
14 0 15 7 20 28 21 l27 2 -27 4 -28 4 0 155 0 154 70 0 c39 0 70 -4 70 -10z
m-3407 -7 c59 -3 107 -10 107 -14 0 -4 -28 -10 -62 -12 -35 -2 14 -3 107 -3
94 0 124 2 68 3 -114 4 -144 23 -35 23 50 0 1175 -28 1190 -30 1 0 2 -4 2 -9
0 -6 -19 -12 -42 -14 -24 -2 65 -3 197 -3 219 0 223 1 48 3 -106 2 -193 7
-193 12 0 10 686 25 841 18 64 -3 94 -2 69 2 -28 5 21 7 127 7 l173 -1 0 -201
0 -201 -77 -7 c-212 -18 -589 -36 -960 -47 -413 -12 -1020 -4 -1505 21 -101 5
-204 10 -230 11 l-48 3 0 98 0 98 420 0 420 0 0 -45 0 -45 83 0 c99 0 209 17
219 33 4 7 6 18 3 25 -3 7 0 10 6 7 6 -4 8 -14 4 -24 -5 -12 -4 -13 6 -4 16
16 -3 40 -34 46 -12 2 -3 5 21 6 39 1 42 -1 42 -24 0 -24 3 -25 55 -25 l55 0
0 -35 0 -35 -55 0 c-52 0 -55 -1 -55 -25 0 -24 3 -25 55 -25 42 0 55 -3 55
-15 0 -13 32 -15 225 -15 l225 0 0 33 c0 33 -2 34 -55 46 -67 15 -72 36 -12
51 66 17 67 18 67 50 l0 30 -875 0 -875 0 0 104 0 105 33 4 c17 2 -37 5 -120
5 -94 1 -153 6 -153 12 0 11 296 14 463 3z m-4928 -74 c12 -36 25 -71 29 -77
4 -7 1 -12 -6 -12 -34 0 -196 33 -256 52 l-67 22 69 7 c81 9 146 31 172 60 9
11 22 18 27 16 5 -1 20 -32 32 -68z m-227 24 c-21 -2 -55 -2 -75 0 -21 2 -4 4
37 4 41 0 58 -2 38 -4z m1267 -19 c-138 -52 -332 -96 -518 -119 -141 -17 -157
-18 -157 -6 0 4 35 11 78 15 136 12 323 45 461 81 74 19 137 37 139 40 3 3 12
5 21 4 9 0 -2 -7 -24 -15z m-1362 -1 c-7 -2 -19 -2 -25 0 -7 3 -2 5 12 5 14 0
19 -2 13 -5z m127 -67 c52 -14 133 -30 180 -36 52 -7 98 -20 119 -32 31 -20
43 -21 200 -15 144 6 260 18 404 43 l37 7 0 -127 0 -126 -272 0 c-262 0 -729
15 -775 26 -23 4 -23 7 -23 150 0 135 1 146 18 141 9 -3 60 -16 112 -31z m416
-56 c13 0 24 -5 24 -11 0 -16 -117 -7 -133 10 -10 11 -3 12 37 7 27 -3 59 -6
72 -6z m4474 -148 l0 -95 -142 6 c-79 4 -725 7 -1435 7 l-1293 0 0 91 0 90
1435 -2 1435 -2 0 -95z m1738 76 c-2 -17 -13 -25 -47 -33 -82 -20 -79 -67 4
-80 36 -5 45 -10 45 -26 0 -18 -9 -19 -205 -19 l-205 0 0 90 0 90 206 0 205 0
-3 -22z m-861 -20 c-3 -8 -6 -5 -6 6 -1 11 2 17 5 13 3 -3 4 -12 1 -19z m208
12 c-4 -7 2 -9 19 -4 45 11 29 -13 -16 -25 -55 -15 -198 -22 -198 -10 0 5 21
9 47 9 25 0 44 3 41 6 -3 3 -24 5 -47 6 -28 0 -41 5 -41 14 0 11 22 14 101 14
67 0 98 -3 94 -10z m208 3 c-13 -2 -35 -2 -50 0 -16 2 -5 4 22 4 28 0 40 -2
28 -4z m2324 -79 c-3 -3 -12 -4 -19 -1 -8 3 -5 6 6 6 11 1 17 -2 13 -5z m256
-496 c140 -266 264 -502 276 -525 l21 -43 -55 0 -54 0 -426 503 c-234 276
-425 504 -425 507 0 9 238 37 327 39 l81 1 255 -482z m56 -47 c149 -283 270
-516 267 -518 -5 -5 -23 29 -335 621 -122 230 -221 421 -221 424 0 18 42 -59
289 -527z m-2636 502 c-13 -2 -35 -2 -50 0 -16 2 -5 4 22 4 28 0 40 -2 28 -4z
m1901 -20 c3 -4 -13 -26 -36 -50 l-42 -43 74 -73 75 -72 -70 73 -70 72 37 36
c20 20 41 34 46 30 29 -18 672 -788 666 -798 -4 -6 -3 -8 3 -5 6 4 45 -34 88
-83 l76 -90 -120 0 c-101 0 -121 2 -121 15 0 8 -7 15 -15 15 -23 0 -19 9 33
69 l47 56 -300 301 c-165 165 -217 215 -115 110 102 -105 234 -241 294 -303
l109 -111 -48 -56 c-43 -50 -51 -56 -87 -56 -22 0 -49 5 -60 11 -16 9 -19 8
-13 -2 6 -9 -2 -11 -32 -7 -29 4 -251 128 -798 444 l-758 439 64 6 c115 12
171 10 163 -3 -6 -10 -5 -10 7 -1 16 13 31 15 374 39 121 8 274 21 340 28 149
16 180 18 189 9z m-3904 -43 c0 -14 -2549 -14 -2570 0 -10 6 439 10 1278 10
855 0 1292 -3 1292 -10z m260 -12 c-50 -23 -180 -38 -180 -20 0 38 10 42 119
41 l106 -1 -45 -20z m535 7 c138 -8 256 -15 263 -15 9 0 12 -44 13 -182 l1
-183 161 -153 c89 -84 302 -290 472 -457 l310 -304 -115 6 c-63 3 -125 9 -138
12 -13 4 -351 287 -752 631 l-728 624 26 17 c35 23 152 24 487 4z m-725 -20
c0 -9 -9 -15 -25 -15 -16 0 -25 6 -25 15 0 9 9 15 25 15 16 0 25 -6 25 -15z
m-2389 -25 c32 -17 59 -28 59 -25 0 2 -21 16 -47 29 l-48 25 280 -2 280 -2 2
-35 1 -35 -8 35 -8 35 1 -34 c3 -51 27 -53 27 -2 l0 41 72 0 c56 0 69 -3 60
-12 -18 -18 -16 -134 3 -142 13 -4 15 7 15 69 0 43 4 75 10 75 6 0 10 -11 10
-25 0 -16 6 -25 15 -25 9 0 15 9 15 25 0 24 3 25 55 25 52 0 55 -1 55 -25 0
-14 4 -25 9 -25 4 0 6 11 4 24 -4 21 0 24 43 30 81 11 84 10 84 -29 0 -47 20
-45 22 3 l1 37 4 -37 c2 -21 8 -38 12 -38 4 0 5 16 3 35 l-4 35 257 0 256 0
-23 -29 c-13 -16 -51 -63 -86 -105 -35 -42 -61 -76 -58 -76 2 0 44 47 92 105
l87 105 119 0 c117 0 120 -1 164 -30 24 -17 44 -29 44 -26 0 3 -17 17 -37 31
l-38 25 223 0 222 0 331 -276 330 -275 -16 -27 -16 -27 20 24 21 23 420 -350
c231 -193 420 -348 419 -344 0 4 -325 277 -722 607 l-721 600 104 7 c58 3 118
11 133 17 28 11 46 -3 755 -611 l726 -623 -59 -6 -60 -6 58 -1 c31 -1 57 -5
57 -8 0 -3 -15 -26 -32 -52 -53 -76 -110 -169 -91 -146 10 11 25 30 33 41 15
21 30 10 622 -470 l607 -492 -152 -5 -152 -6 163 -2 162 -2 0 -24 c0 -23 -1
-24 -132 -30 -144 -6 -249 -9 -315 -7 -36 1 -43 4 -43 21 0 27 -36 40 -111 40
-48 0 -73 7 -129 35 -39 19 -70 33 -70 30 0 -2 26 -18 58 -34 l57 -30 -42 -1
c-53 0 -113 27 -113 52 0 20 -36 38 -77 38 -14 0 -117 48 -230 106 -157 81
-203 110 -198 121 4 12 2 13 -8 5 -20 -17 -370 166 -361 188 14 36 14 43 -1
18 l-15 -28 -66 33 c-51 25 -64 36 -60 50 3 15 2 16 -10 7 -11 -10 -54 9 -209
89 -356 185 -375 195 -375 207 0 7 7 19 15 27 13 13 13 16 -1 21 -8 3 -13 2
-10 -2 2 -4 -1 -17 -7 -29 -12 -22 -14 -21 -152 52 -96 50 -140 79 -139 90 2
12 -1 13 -11 5 -14 -12 -37 -3 -109 41 -31 19 -24 19 687 19 476 0 716 -3 712
-10 -3 -5 -1 -10 4 -10 6 0 11 14 11 30 l0 30 -695 0 -696 0 -57 29 -57 29 0
-24 c0 -19 2 -21 10 -10 9 12 16 11 45 -5 l35 -18 -59 -1 c-56 0 -69 6 -340
146 -154 81 -282 148 -284 149 -2 2 4 17 12 34 l16 31 -70 35 c-38 19 -70 33
-70 30 0 -2 27 -18 60 -35 57 -29 59 -31 48 -55 -6 -14 -15 -25 -21 -25 -17 0
-147 75 -147 85 0 6 7 20 15 32 15 22 14 23 -56 58 -39 20 -69 32 -66 28 3 -5
28 -20 56 -33 54 -25 59 -35 38 -64 -13 -17 -66 9 -778 379 -420 218 -772 406
-782 416 -10 11 -24 19 -32 19 -8 0 -15 4 -15 9 0 5 -8 7 -19 4 -10 -3 -22 0
-25 5 -4 6 20 10 65 11 59 0 80 -4 130 -29z m2319 10 c0 -11 -4 -20 -8 -20 -5
0 -17 9 -27 20 -18 20 -17 20 8 20 20 0 27 -5 27 -20z m-1593 -22 c-3 -7 -5
-2 -5 12 0 14 2 19 5 13 2 -7 2 -19 0 -25z m-50 -70 c-2 -18 -4 -4 -4 32 0 36
2 50 4 33 2 -18 2 -48 0 -65z m-937 62 c0 -5 -20 -10 -45 -10 -25 0 -45 5 -45
10 0 6 20 10 45 10 25 0 45 -4 45 -10z m4179 -775 c303 -295 457 -451 447
-453 -11 -2 -158 135 -404 374 -555 541 -550 536 -526 532 11 -2 229 -205 483
-453z m2511 -106 c0 -20 -3 -21 -62 -15 -35 4 -74 10 -88 14 -24 6 -23 7 10
13 19 3 59 7 88 8 47 1 52 -1 52 -20z m316 8 c4 -4 5 -9 3 -11 -2 -2 -73 -8
-156 -12 l-153 -7 0 23 0 22 150 -4 c82 -2 153 -7 156 -11z m74 -1 c0 -2 -13
-6 -30 -8 -16 -3 -30 -1 -30 4 0 4 14 8 30 8 17 0 30 -2 30 -4z m40 -51 c0
-19 -5 -25 -21 -25 -30 0 -99 22 -99 31 0 4 -8 9 -17 11 -10 3 17 5 60 6 76 2
77 2 77 -23z m360 5 c6 -10 6 -21 1 -24 -5 -3 -86 -9 -180 -12 l-171 -7 0 31
0 32 170 -1 c156 0 171 -1 180 -19z m-3495 -310 c-8 -13 -1441 -13 -1470 0
-11 5 301 9 728 9 496 1 746 -2 742 -9z m597 -19 c31 -5 110 -78 592 -546 305
-297 554 -540 553 -541 -1 -1 -51 -4 -110 -7 -105 -5 -109 -4 -140 21 l-32 26
24 -27 c20 -22 21 -27 8 -27 -9 0 -88 57 -174 127 -87 71 -231 186 -320 258
-89 72 -162 132 -162 135 -1 3 3 11 8 19 7 10 83 -48 310 -238 165 -138 301
-249 301 -246 0 2 -133 115 -295 251 -251 209 -294 249 -290 267 7 27 -29 54
-49 38 -7 -6 -17 -7 -21 -3 -5 4 -5 2 -2 -4 4 -6 1 -18 -6 -27 -10 -14 -47 13
-277 200 -146 118 -265 220 -264 227 1 7 18 36 39 65 l38 52 116 -7 c64 -3
132 -9 153 -13z m253 -511 c10 -16 -30 -61 -43 -48 -8 8 -6 17 6 34 19 26 28
29 37 14z m-253 -537 c10 -10 -70 -13 -397 -13 -226 0 -435 4 -465 8 l-55 7
55 6 c30 3 234 6 452 5 303 -1 400 -4 410 -13z m1163 -72 c-10 -9 -186 -31
-250 -31 -28 0 -35 4 -35 20 0 19 7 20 147 20 88 0 143 -4 138 -9z m-805 -36
c0 -19 -53 -19 -125 0 l-50 13 88 1 c71 1 87 -2 87 -14z"/>
<path d="M8818 5929 c-32 -16 -58 -32 -58 -34 0 -3 27 8 60 25 33 17 60 32 60
35 0 7 2 8 -62 -26z"/>
<path d="M8648 5839 c-32 -16 -58 -32 -58 -34 0 -3 27 8 60 25 33 17 60 32 60
35 0 7 2 8 -62 -26z"/>
<path d="M8458 5739 c-32 -16 -58 -32 -58 -34 0 -3 27 8 60 25 33 17 60 32 60
35 0 7 2 8 -62 -26z"/>
<path d="M8288 5649 c-32 -16 -58 -32 -58 -34 0 -3 27 8 60 25 33 17 60 32 60
35 0 7 2 8 -62 -26z"/>
<path d="M8819 5643 c-13 -16 -12 -17 4 -4 16 13 21 21 13 21 -2 0 -10 -8 -17
-17z"/>
<path d="M8888 5642 c9 -10 19 -17 21 -16 6 5 -20 34 -30 34 -5 0 -1 -8 9 -18z"/>
<path d="M8668 5574 c-38 -19 -68 -37 -68 -39 0 -3 31 11 70 30 38 19 74 35
79 35 5 0 14 -14 21 -30 7 -17 17 -33 22 -36 5 -3 0 12 -11 35 -12 23 -27 41
-34 41 -6 -1 -42 -17 -79 -36z"/>
<path d="M8810 5591 c0 -10 29 -36 34 -30 1 2 -6 12 -16 22 -10 9 -18 13 -18
8z"/>
<path d="M8888 5578 c-10 -10 -14 -18 -9 -18 10 0 36 29 30 34 -2 1 -12 -6
-21 -16z"/>
<path d="M8088 5544 c-38 -19 -68 -37 -68 -41 0 -3 3 -3 7 0 3 4 12 2 20 -5
10 -8 12 -8 8 4 -4 10 10 22 45 38 28 13 54 28 56 32 7 11 7 11 -68 -28z"/>
<path d="M8506 5487 c-33 -18 -61 -38 -62 -45 -1 -7 0 -8 3 -2 3 6 31 24 64
40 32 17 59 32 59 35 0 7 0 7 -64 -28z"/>
<path d="M8090 5435 c17 -25 33 -45 36 -45 3 0 -9 20 -26 45 -17 25 -33 45
-36 45 -3 0 9 -20 26 -45z"/>
<path d="M8668 5439 c-32 -16 -58 -32 -58 -34 0 -3 27 8 60 25 33 17 60 32 60
35 0 7 2 8 -62 -26z"/>
<path d="M8470 5380 c11 -22 23 -40 26 -40 9 0 64 30 64 36 0 2 -14 -3 -31
-11 -17 -9 -32 -15 -34 -13 -1 2 -10 18 -19 36 -9 17 -19 32 -21 32 -3 0 4
-18 15 -40z"/>
<path d="M7748 5364 c-38 -19 -68 -37 -68 -39 0 -3 32 11 70 30 39 19 70 37
70 40 0 7 3 8 -72 -31z"/>
<path d="M8150 5350 c12 -16 24 -30 26 -30 3 0 -4 14 -16 30 -12 17 -24 30
-26 30 -3 0 4 -13 16 -30z"/>
<path d="M7568 5269 c-32 -16 -58 -32 -58 -34 0 -3 27 8 60 25 33 17 60 32 60
35 0 7 2 8 -62 -26z"/>
<path d="M8220 5250 c12 -16 24 -30 26 -30 3 0 -4 14 -16 30 -12 17 -24 30
-26 30 -3 0 4 -13 16 -30z"/>
<path d="M7417 5189 c-32 -17 -41 -18 -55 -7 -13 11 -14 11 -7 -1 5 -9 0 -20
-16 -33 -13 -10 9 -3 49 17 39 19 72 37 72 40 0 7 0 7 -43 -16z"/>
<path d="M8280 5165 c17 -25 33 -45 36 -45 3 0 -9 20 -26 45 -17 25 -33 45
-36 45 -3 0 9 -20 26 -45z"/>
<path d="M7180 5117 c0 -5 5 -17 10 -28 6 -10 7 -19 2 -19 -4 0 -17 -7 -28
-15 -10 -9 14 0 54 20 39 19 72 38 72 40 0 3 -18 -4 -41 -15 -23 -12 -42 -20
-43 -18 -2 2 -8 12 -14 23 -6 11 -12 16 -12 12z"/>
<path d="M8104 5091 c9 -16 12 -32 8 -36 -4 -5 -1 -5 5 -1 10 6 10 14 -2 37
-9 16 -18 29 -21 29 -2 0 2 -13 10 -29z"/>
<path d="M8340 5080 c12 -16 24 -30 26 -30 3 0 -4 14 -16 30 -12 17 -24 30
-26 30 -3 0 4 -13 16 -30z"/>
<path d="M7958 5089 c-16 -9 -16 -13 4 -54 12 -25 26 -45 30 -45 12 0 108 49
108 55 0 3 -22 -6 -50 -20 -27 -14 -52 -25 -54 -25 -3 0 -14 17 -25 38 -18 35
-18 39 -3 49 21 15 13 16 -10 2z"/>
<path d="M7513 5053 c-33 -17 -50 -44 -38 -63 9 -15 38 -12 61 6 18 15 18 15
-3 5 -64 -31 -71 10 -8 46 46 26 36 30 -12 6z"/>
<path d="M7038 4989 c-32 -16 -58 -32 -58 -34 0 -3 27 8 60 25 33 17 60 32 60
35 0 7 2 8 -62 -26z"/>
<path d="M8358 4853 c17 -2 47 -2 65 0 17 2 3 4 -33 4 -36 0 -50 -2 -32 -4z"/>
<path d="M6776 4851 c-4 -5 3 -7 14 -4 23 6 26 13 6 13 -8 0 -17 -4 -20 -9z"/>
<path d="M6498 4704 c-38 -19 -68 -37 -68 -39 0 -3 32 11 70 30 39 19 70 37
70 40 0 7 3 8 -72 -31z"/>
<path d="M6318 4609 c-32 -16 -58 -32 -58 -34 0 -3 27 8 60 25 33 17 60 32 60
35 0 7 2 8 -62 -26z"/>
<path d="M5778 4324 c-38 -19 -68 -37 -68 -39 0 -3 32 11 70 30 39 19 70 37
70 40 0 7 3 8 -72 -31z"/>
<path d="M6695 4279 c-11 -16 -1 -19 13 -3 7 8 8 14 3 14 -5 0 -13 -5 -16 -11z"/>
<path d="M6748 4282 c8 -5 12 -20 10 -33 -4 -31 -63 -41 -71 -12 -4 14 -5 13
-6 -4 -1 -20 4 -23 33 -23 18 0 39 7 46 14 15 19 9 58 -10 63 -12 4 -12 3 -2
-5z"/>
<path d="M6880 4275 c-19 -22 -8 -25 13 -3 9 10 13 18 8 18 -5 0 -14 -7 -21
-15z"/>
<path d="M6943 4279 c10 -6 17 -21 16 -37 -1 -21 -2 -22 -6 -7 -7 31 -21 40
-16 11 4 -21 1 -26 -15 -26 -11 0 -23 5 -25 10 -3 6 -4 5 -3 -2 1 -7 13 -15
27 -19 l24 -6 -25 -5 c-22 -5 -23 -5 -3 -7 27 -1 53 24 53 53 0 23 -17 46 -34
46 -6 0 -3 -5 7 -11z"/>
<path d="M7122 4185 c-78 -52 -142 -97 -142 -100 0 -3 65 38 144 91 89 59 149
93 157 89 8 -5 10 -4 5 3 -4 7 -10 12 -14 12 -4 0 -71 -43 -150 -95z"/>
<path d="M5608 4234 c-38 -19 -68 -36 -68 -38 0 -2 7 -7 16 -10 8 -3 12 -2 9
4 -3 5 21 23 55 40 33 17 60 32 60 35 0 7 3 8 -72 -31z"/>
<path d="M6870 4226 c0 -8 4 -17 9 -20 5 -4 7 3 4 14 -6 23 -13 26 -13 6z"/>
<path d="M5418 4134 c-38 -19 -68 -37 -68 -39 0 -3 32 11 70 30 39 19 70 37
70 40 0 7 3 8 -72 -31z"/>
<path d="M5570 4165 c0 -5 5 -17 10 -25 5 -8 10 -10 10 -5 0 6 -5 17 -10 25
-5 8 -10 11 -10 5z"/>
<path d="M5600 4095 c0 -5 5 -17 10 -25 5 -8 10 -10 10 -5 0 6 -5 17 -10 25
-5 8 -10 11 -10 5z"/>
<path d="M5248 4044 c-38 -19 -68 -37 -68 -39 0 -3 32 11 70 30 39 19 70 37
70 40 0 7 3 8 -72 -31z"/>
<path d="M6745 4020 c-5 -8 -4 -11 1 -7 9 5 111 -140 103 -147 -2 -1 -26 -17
-52 -35 -55 -37 -56 -37 -97 44 -11 22 -20 34 -20 26 0 -14 58 -111 66 -111 9
0 114 73 114 79 0 4 -12 23 -26 44 -14 21 -23 45 -20 52 3 9 0 12 -10 8 -7 -3
-14 -1 -14 3 0 5 -9 20 -19 33 -14 18 -20 21 -26 11z"/>
<path d="M6708 3996 c-11 -8 -17 -25 -17 -42 2 -27 2 -27 6 -4 3 14 12 33 20
43 19 20 15 22 -9 3z"/>
<path d="M5058 3944 c-38 -19 -68 -37 -68 -39 0 -3 32 11 70 30 39 19 70 37
70 40 0 7 3 8 -72 -31z"/>
<path d="M5320 3799 c-11 -7 -6 -8 19 -4 32 7 34 6 29 -19 -3 -14 -1 -26 3
-26 5 0 9 11 9 25 0 24 3 25 55 25 52 0 55 -1 55 -25 0 -16 6 -25 15 -25 9 0
15 9 15 25 0 23 4 25 40 25 42 0 56 -16 18 -22 -32 -5 -35 -28 -4 -28 19 0 26
-5 26 -20 0 -15 -7 -20 -26 -20 -31 0 -28 -23 4 -28 38 -6 24 -22 -18 -22 -36
0 -40 3 -40 25 0 16 -6 25 -15 25 -9 0 -15 -9 -15 -25 0 -24 -3 -25 -55 -25
-52 0 -55 1 -55 25 0 14 -4 25 -9 25 -4 0 -6 -12 -3 -26 5 -25 3 -26 -29 -19
-25 4 -30 3 -19 -4 9 -6 73 -11 153 -11 l137 0 0 80 0 80 -137 0 c-80 0 -144
-5 -153 -11z m187 -31 c-3 -7 -5 -2 -5 12 0 14 2 19 5 13 2 -7 2 -19 0 -25z
m86 -5 c-7 -2 -19 -2 -25 0 -7 3 -2 5 12 5 14 0 19 -2 13 -5z m-86 -95 c-3 -7
-5 -2 -5 12 0 14 2 19 5 13 2 -7 2 -19 0 -25z m86 25 c-7 -2 -19 -2 -25 0 -7
3 -2 5 12 5 14 0 19 -2 13 -5z"/>
<path d="M5630 3760 c0 -22 3 -40 8 -40 4 0 7 18 7 40 0 22 -3 40 -7 40 -5 0
-8 -18 -8 -40z"/>
<path d="M5660 3760 c0 -22 3 -40 8 -40 4 0 7 18 7 40 0 22 -3 40 -7 40 -5 0
-8 -18 -8 -40z"/>
<path d="M4698 3754 c-38 -19 -68 -37 -68 -39 0 -3 32 11 70 30 39 19 70 37
70 40 0 7 3 8 -72 -31z"/>
<path d="M5180 3740 c0 -22 3 -40 8 -40 4 0 7 18 7 40 0 22 -3 40 -7 40 -5 0
-8 -18 -8 -40z"/>
<path d="M5220 3740 c0 -29 4 -40 15 -40 11 0 15 11 15 40 0 29 -4 40 -15 40
-11 0 -15 -11 -15 -40z m17 -17 c-3 -10 -5 -2 -5 17 0 19 2 27 5 18 2 -10 2
-26 0 -35z"/>
<path d="M5275 3740 c0 -22 3 -40 8 -40 4 0 7 18 7 40 0 22 -3 40 -7 40 -5 0
-8 -18 -8 -40z"/>
<path d="M4575 3745 c4 -11 9 -27 12 -35 3 -11 -14 -24 -57 -45 -34 -16 -64
-33 -67 -38 -3 -4 32 10 77 33 68 34 80 43 67 53 -8 7 -20 21 -27 32 l-12 20
7 -20z"/>
<path d="M5740 3720 c0 -22 3 -40 8 -40 4 0 7 18 7 40 0 22 -3 40 -7 40 -5 0
-8 -18 -8 -40z"/>
<path d="M5630 3650 c0 -22 3 -40 8 -40 4 0 7 18 7 40 0 22 -3 40 -7 40 -5 0
-8 -18 -8 -40z"/>
<path d="M5660 3650 c0 -22 2 -40 4 -40 2 0 6 18 8 40 2 22 0 40 -4 40 -5 0
-8 -18 -8 -40z"/>
<path d="M5800 3650 c0 -22 3 -40 8 -40 4 0 7 18 7 40 0 22 -3 40 -7 40 -5 0
-8 -18 -8 -40z"/>
<path d="M5085 3640 c0 -22 3 -40 8 -40 4 0 7 18 7 40 0 22 -3 40 -7 40 -5 0
-8 -18 -8 -40z"/>
<path d="M5110 3640 c0 -22 5 -40 10 -40 6 0 10 18 10 40 0 22 -4 40 -10 40
-5 0 -10 -18 -10 -40z"/>
<path d="M5180 3640 c0 -22 3 -40 8 -40 4 0 7 18 7 40 0 22 -3 40 -7 40 -5 0
-8 -18 -8 -40z"/>
<path d="M11053 4439 c-35 -22 -46 -37 -15 -20 22 13 58 40 52 41 -3 0 -20
-10 -37 -21z"/>
<path d="M10973 4389 c-35 -22 -46 -37 -15 -20 22 13 58 40 52 41 -3 0 -20
-10 -37 -21z"/>
<path d="M10875 4329 c-27 -17 -54 -36 -60 -42 -11 -11 58 28 96 55 40 28 17
20 -36 -13z"/>
<path d="M10763 4259 c-35 -22 -46 -37 -15 -20 22 13 58 40 52 41 -3 0 -20
-10 -37 -21z"/>
<path d="M10683 4209 c-35 -22 -46 -37 -15 -20 22 13 58 40 52 41 -3 0 -20
-10 -37 -21z"/>
<path d="M10585 4149 c-27 -17 -54 -36 -60 -42 -11 -11 58 28 96 55 40 28 17
20 -36 -13z"/>
<path d="M10473 4079 c-35 -22 -46 -37 -15 -20 22 13 58 40 52 41 -3 0 -20
-10 -37 -21z"/>
<path d="M10393 4029 c-35 -22 -46 -37 -15 -20 22 13 58 40 52 41 -3 0 -20
-10 -37 -21z"/>
<path d="M10324 3984 c-18 -14 -18 -15 4 -4 12 6 22 13 22 15 0 8 -5 6 -26
-11z"/>
<path d="M10583 3961 c-13 -11 -23 -23 -23 -27 0 -4 11 3 24 16 30 27 59 21
54 -12 -4 -29 -54 -49 -69 -28 -9 13 -10 13 -6 0 5 -22 46 -24 68 -4 22 20 25
44 7 62 -16 16 -29 15 -55 -7z"/>
<path d="M10263 3949 c-35 -22 -46 -37 -15 -20 22 13 58 40 52 41 -3 0 -20
-10 -37 -21z"/>
<path d="M10183 3899 c-35 -22 -46 -37 -15 -20 22 13 58 40 52 41 -3 0 -20
-10 -37 -21z"/>
<path d="M10521 3892 c27 -23 20 -51 -13 -53 -18 -1 -19 -2 -5 -6 20 -5 47 13
47 33 0 15 -27 44 -42 44 -6 0 0 -8 13 -18z"/>
<path d="M10474 3885 c-3 -8 -4 -20 -2 -27 3 -7 7 -1 10 15 6 29 1 36 -8 12z"/>
<path d="M10103 3849 c-35 -22 -46 -37 -15 -20 22 13 58 40 52 41 -3 0 -20
-10 -37 -21z"/>
<path d="M10034 3804 c-18 -14 -18 -15 4 -4 12 6 22 13 22 15 0 8 -5 6 -26
-11z"/>
<path d="M9973 3769 c-35 -22 -46 -37 -15 -20 22 13 58 40 52 41 -3 0 -20 -10
-37 -21z"/>
<path d="M9893 3719 c-35 -22 -46 -37 -15 -20 22 13 58 40 52 41 -3 0 -20 -10
-37 -21z"/>
<path d="M9813 3669 c-35 -22 -46 -37 -15 -20 22 13 58 40 52 41 -3 0 -20 -10
-37 -21z"/>
<path d="M7543 3533 c20 -2 54 -2 75 0 20 2 3 4 -38 4 -41 0 -58 -2 -37 -4z"/>
<path d="M8508 3523 c12 -2 32 -2 45 0 12 2 2 4 -23 4 -25 0 -35 -2 -22 -4z"/>
<path d="M8467 3488 c2 -5 31 -8 63 -8 32 0 61 3 63 8 3 4 -26 7 -63 7 -37 0
-66 -3 -63 -7z"/>
<path d="M7551 3486 c2 -2 22 -6 44 -9 27 -4 35 -3 25 3 -14 9 -79 15 -69 6z"/>
<path d="M7975 3480 c-12 -20 7 -30 55 -30 51 0 71 13 51 33 -9 9 -11 8 -6 -5
6 -16 1 -18 -45 -18 -42 0 -51 3 -46 15 6 17 0 20 -9 5z"/>
<path d="M7524 3465 c-7 -17 12 -45 29 -45 6 0 2 6 -8 14 -11 8 -16 19 -12 30
4 9 4 16 1 16 -2 0 -7 -7 -10 -15z"/>
<path d="M7618 3438 c-10 -10 -14 -18 -9 -18 10 0 36 29 30 34 -2 1 -12 -6
-21 -16z"/>
<path d="M9728 3404 c-3 -27 -4 -50 -4 -50 1 -1 87 -3 191 -6 105 -2 156 -2
115 2 -41 3 -63 7 -47 8 15 1 27 6 27 12 0 5 6 7 14 4 8 -3 17 0 22 7 4 8 3
10 -4 5 -7 -4 -12 -1 -12 9 0 10 5 14 13 9 9 -5 9 -4 1 5 -18 19 -78 30 -200
37 l-112 7 -4 -49z m62 16 c0 -5 -11 -9 -25 -8 -14 1 -25 6 -25 10 0 4 11 8
25 8 14 0 25 -4 25 -10z m196 -13 l28 -15 -43 -7 c-23 -4 -72 -8 -107 -10 -50
-3 -64 0 -64 11 0 10 16 14 63 16 l62 2 -62 3 c-37 2 -63 9 -63 15 0 16 150 4
186 -15z m-196 -23 c0 -11 -5 -14 -16 -10 -9 3 -20 6 -25 6 -5 0 -9 5 -9 10 0
6 11 10 25 10 16 0 25 -6 25 -16z"/>
<path d="M9948 3393 c7 -3 16 -2 19 1 4 3 -2 6 -13 5 -11 0 -14 -3 -6 -6z"/>
<path d="M8644 3400 c0 -13 4 -16 10 -10 7 7 7 13 0 20 -6 6 -10 3 -10 -10z"/>
<path d="M9493 3363 c31 -2 83 -2 115 0 31 2 5 3 -58 3 -63 0 -89 -1 -57 -3z"/>
<path d="M10183 3333 c20 -2 54 -2 75 0 20 2 3 4 -38 4 -41 0 -58 -2 -37 -4z"/>
<path d="M7568 3313 c6 -2 18 -2 25 0 6 3 1 5 -13 5 -14 0 -19 -2 -12 -5z"/>
<path d="M8403 3311 c53 -4 81 -11 87 -21 6 -9 10 -10 10 -3 0 22 -38 33 -107
31 l-68 -1 78 -6z"/>
<path d="M7618 3295 c5 -11 12 -27 15 -35 5 -13 6 -13 6 1 1 8 -6 24 -15 35
-15 19 -15 19 -6 -1z"/>
<path d="M7521 3267 c-1 -25 17 -57 32 -57 9 0 9 2 -1 9 -7 4 -17 21 -22 37
-5 17 -9 21 -9 11z"/>
<path d="M8291 3264 c-2 -39 29 -54 112 -54 67 0 78 3 91 22 9 12 16 27 16 33
-1 5 -8 -2 -16 -17 -14 -27 -18 -28 -93 -28 -81 0 -94 6 -104 45 -4 19 -5 19
-6 -1z"/>
<path d="M9588 3205 l-3 -45 71 0 70 0 -5 43 -6 42 -61 3 -62 3 -4 -46z m122
0 l0 -35 -55 0 -55 0 0 35 0 35 55 0 55 0 0 -35z"/>
<path d="M7609 3223 c-13 -16 -12 -17 4 -4 16 13 21 21 13 21 -2 0 -10 -8 -17
-17z"/>
<path d="M8583 3163 c48 -2 125 -2 170 0 45 1 6 3 -88 3 -93 0 -130 -2 -82 -3z"/>
<path d="M8133 3153 c48 -2 126 -2 175 0 48 1 8 3 -88 3 -96 0 -136 -2 -87 -3z"/>
<path d="M9797 3153 c18 -2 50 -2 70 0 21 2 7 4 -32 4 -38 0 -55 -2 -38 -4z"/>
<path d="M7196 3450 l1 -75 -7 70 -7 70 1 -68 1 -68 122 0 c124 0 143 3 143
24 0 6 -7 2 -15 -9 -13 -17 -14 -16 -4 14 8 23 8 45 1 72 -11 44 -7 53 8 18 6
-17 9 -18 9 -6 1 26 -11 29 -137 31 l-117 2 1 -75z m59 20 c8 -37 -2 -70 -21
-70 -10 0 -14 13 -14 50 0 57 24 71 35 20z m53 -23 c3 -42 1 -47 -17 -47 -18
0 -21 6 -21 51 0 43 3 50 18 47 13 -2 18 -15 20 -51z m56 28 c9 -35 -3 -75
-23 -75 -13 0 -16 10 -16 50 0 40 3 50 16 50 10 0 20 -11 23 -25z m51 -25 c0
-35 -4 -45 -17 -48 -15 -3 -18 4 -18 48 0 44 3 51 18 48 13 -3 17 -13 17 -48z"/>
<path d="M4918 3513 c23 -2 59 -2 80 0 20 2 1 4 -43 4 -44 0 -61 -2 -37 -4z"/>
<path d="M6548 3503 c12 -2 32 -2 45 0 12 2 2 4 -23 4 -25 0 -35 -2 -22 -4z"/>
<path d="M6928 3502 c13 -4 23 -11 23 -17 0 -5 -10 -13 -23 -17 -22 -6 -22 -6
-2 -7 29 -1 48 21 32 37 -7 7 -21 12 -32 11 -19 -1 -19 -2 2 -7z"/>
<path d="M4948 3493 c7 -3 16 -2 19 1 4 3 -2 6 -13 5 -11 0 -14 -3 -6 -6z"/>
<path d="M5101 3486 c-10 -12 -8 -17 8 -25 11 -6 27 -11 36 -11 9 0 25 5 36
11 29 15 6 39 -36 39 -18 0 -38 -6 -44 -14z m84 -5 c3 -5 -4 -13 -16 -16 -26
-9 -72 2 -64 15 8 13 72 13 80 1z"/>
<path d="M5824 3489 c-3 -6 -1 -16 5 -22 9 -9 11 -8 6 5 -6 15 2 17 57 21 l63
3 -62 2 c-36 1 -65 -3 -69 -9z"/>
<path d="M6891 3484 c0 -11 3 -14 6 -6 3 7 2 16 -1 19 -3 4 -6 -2 -5 -13z"/>
<path d="M4990 3481 c13 -10 13 -12 0 -22 -13 -9 -13 -10 0 -6 8 2 15 10 15
17 0 7 -7 15 -15 17 -13 4 -13 3 0 -6z"/>
<path d="M5956 3473 c-6 -14 -5 -15 5 -6 7 7 10 15 7 18 -3 3 -9 -2 -12 -12z"/>
<path d="M6507 3468 c2 -5 31 -8 63 -8 32 0 61 3 63 8 3 4 -26 7 -63 7 -37 0
-66 -3 -63 -7z"/>
<path d="M7452 3445 c0 -16 2 -22 5 -12 2 9 2 23 0 30 -3 6 -5 -1 -5 -18z"/>
<path d="M4948 3443 c7 -3 16 -2 19 1 4 3 -2 6 -13 5 -11 0 -14 -3 -6 -6z"/>
<path d="M4340 3060 l0 -110 100 0 100 0 0 110 0 110 -100 0 -100 0 0 -110z
m190 0 l0 -100 -90 0 -90 0 0 100 0 100 90 0 90 0 0 -100z"/>
<path d="M2150 3254 c-16 -10 -18 -13 -5 -8 11 4 39 9 62 12 37 3 46 0 68 -25
l26 -28 -22 33 c-19 27 -29 32 -63 32 -23 -1 -52 -8 -66 -16z"/>
<path d="M2090 3230 c-8 -5 -10 -10 -5 -10 6 0 17 5 25 10 8 5 11 10 5 10 -5
0 -17 -5 -25 -10z"/>
<path d="M2020 3200 c-8 -5 -10 -10 -5 -10 6 0 17 5 25 10 8 5 11 10 5 10 -5
0 -17 -5 -25 -10z"/>
<path d="M2308 3069 c3 -128 3 -130 -25 -169 -23 -32 -35 -40 -68 -43 l-40 -4
41 -1 c37 -2 43 1 72 42 32 44 32 45 32 170 0 68 -3 127 -7 129 -5 3 -7 -53
-5 -124z"/>
<path d="M1944 3164 c-18 -14 -18 -14 6 -3 31 14 36 19 24 19 -6 0 -19 -7 -30
-16z"/>
<path d="M1937 2959 c7 -7 15 -10 18 -7 3 3 -2 9 -12 12 -14 6 -15 5 -6 -5z"/>
<path d="M1980 2940 c8 -5 20 -10 25 -10 6 0 3 5 -5 10 -8 5 -19 10 -25 10 -5
0 -3 -5 5 -10z"/>
<path d="M2050 2910 c8 -5 20 -10 25 -10 6 0 3 5 -5 10 -8 5 -19 10 -25 10 -5
0 -3 -5 5 -10z"/>
<path d="M2130 2875 c14 -8 30 -14 35 -14 6 0 -1 6 -15 14 -14 8 -29 14 -35
14 -5 0 1 -6 15 -14z"/>
<path d="M8518 3403 c6 -2 18 -2 25 0 6 3 1 5 -13 5 -14 0 -19 -2 -12 -5z"/>
<path d="M6922 3333 c57 -5 78 -25 58 -56 -12 -20 -12 -21 3 -8 39 32 2 72
-64 69 l-44 -2 47 -3z"/>
<path d="M6854 3315 c-3 -8 -4 -20 -2 -27 3 -7 7 -1 10 15 6 29 1 36 -8 12z"/>
<path d="M7150 3275 l0 -38 86 6 c67 4 88 9 99 23 22 30 2 39 -95 42 l-90 4 0
-37z m40 5 c0 -11 -4 -20 -10 -20 -5 0 -10 9 -10 20 0 11 5 20 10 20 6 0 10
-9 10 -20z m129 4 c11 -10 -14 -18 -64 -22 -51 -4 -55 -3 -55 17 0 20 3 21 58
15 31 -4 59 -8 61 -10z"/>
<path d="M7097 3293 c-11 -10 -8 -41 5 -49 7 -4 8 -3 4 4 -4 7 -1 12 8 12 9 0
16 5 16 10 0 6 -8 10 -17 10 -15 0 -16 2 -3 10 8 5 10 10 4 10 -6 0 -14 -3
-17 -7z"/>
<path d="M7385 3291 c17 -8 18 -10 3 -10 -22 -1 -24 -21 -2 -21 8 0 12 -4 9
-10 -3 -5 -24 -10 -46 -10 -39 0 -39 0 -39 -40 l0 -40 70 0 70 0 0 35 c0 19
-4 35 -8 35 -5 0 -7 -13 -4 -30 l4 -30 -61 0 -61 0 0 30 c0 27 3 30 34 30 18
0 39 7 46 15 17 20 8 49 -15 52 -20 3 -20 3 0 -6z"/>
<path d="M6163 3253 c53 -2 141 -2 195 0 53 1 9 3 -98 3 -107 0 -151 -2 -97
-3z"/>
<path d="M6496 3251 c-3 -4 6 -6 19 -3 14 2 25 6 25 8 0 8 -39 4 -44 -5z"/>
<path d="M6621 3257 c2 -1 13 -9 24 -17 19 -14 19 -14 6 3 -7 9 -18 17 -24 17
-6 0 -8 -1 -6 -3z"/>
<path d="M6481 3209 c0 -15 7 -33 17 -40 15 -12 16 -12 5 1 -6 8 -13 26 -16
40 l-4 25 -2 -26z"/>
<path d="M6639 3173 c-13 -16 -12 -17 4 -4 9 7 17 15 17 17 0 8 -8 3 -21 -13z"/>
<path d="M5250 3125 l0 -55 180 0 180 0 0 55 0 55 -180 0 -180 0 0 -55z m350
0 l0 -45 -170 0 -170 0 0 45 0 45 170 0 170 0 0 -45z"/>
<path d="M5840 3060 l0 -110 70 0 70 0 0 110 0 110 -70 0 -70 0 0 -110z m130
55 l0 -45 -60 0 -60 0 0 45 0 45 60 0 60 0 0 -45z m0 -110 l0 -45 -60 0 -60 0
0 45 0 45 60 0 60 0 0 -45z"/>
<path d="M6543 3153 c15 -2 39 -2 55 0 15 2 2 4 -28 4 -30 0 -43 -2 -27 -4z"/>
<path d="M4939 3121 c-36 -37 -38 -79 -5 -118 22 -25 31 -28 104 -31 93 -5
132 10 152 58 11 27 11 37 -3 66 -21 43 -49 54 -143 54 -70 0 -78 -2 -105 -29z
m217 -4 c34 -30 37 -79 6 -110 -19 -19 -33 -22 -108 -22 -82 0 -87 1 -110 28
-27 31 -29 45 -13 81 16 34 44 45 126 45 62 1 76 -2 99 -22z"/>
<path d="M4962 3098 c-7 -7 -12 -25 -12 -40 0 -21 7 -32 26 -40 22 -10 32 -9
62 9 48 27 50 39 10 63 -37 23 -68 26 -86 8z m68 -13 c39 -20 38 -32 -5 -52
-28 -13 -37 -14 -50 -3 -18 15 -20 41 -3 58 16 16 23 15 58 -3z"/>
<path d="M6928 3123 c23 -2 59 -2 80 0 20 2 1 4 -43 4 -44 0 -61 -2 -37 -4z"/>
<path d="M6813 3113 c9 -2 25 -2 35 0 9 3 1 5 -18 5 -19 0 -27 -2 -17 -5z"/>
<path d="M6768 3103 c7 -3 16 -2 19 1 4 3 -2 6 -13 5 -11 0 -14 -3 -6 -6z"/>
<path d="M6060 3060 c0 -6 71 -10 194 -10 119 0 197 4 201 10 4 7 -63 10 -194
10 -127 0 -201 -4 -201 -10z"/>
<path d="M5250 2995 l0 -55 180 0 180 0 0 55 0 55 -180 0 -180 0 0 -55z m350
0 l0 -45 -170 0 -170 0 0 45 0 45 170 0 170 0 0 -45z"/>
<path d="M6778 3013 c7 -3 16 -2 19 1 4 3 -2 6 -13 5 -11 0 -14 -3 -6 -6z"/>
<path d="M6823 3003 c9 -2 25 -2 35 0 9 3 1 5 -18 5 -19 0 -27 -2 -17 -5z"/>
<path d="M6953 2993 c32 -2 81 -2 110 0 29 2 3 3 -58 3 -60 0 -84 -1 -52 -3z"/>
<path d="M6496 2951 c-10 -11 -16 -29 -13 -43 4 -22 4 -22 6 3 0 14 6 30 13
37 18 18 123 15 142 -4 9 -8 16 -11 16 -5 0 18 -38 31 -93 31 -40 0 -58 -5
-71 -19z"/>
<path d="M7310 2925 l0 -35 -97 -1 c-54 -1 -90 -3 -80 -6 10 -3 17 -14 17 -29
0 -20 -5 -24 -27 -23 l-28 1 25 7 25 7 -23 8 c-13 4 -20 12 -16 19 5 9 4 9 -5
1 -7 -7 -11 -20 -9 -30 5 -28 86 -39 210 -28 88 8 103 12 106 28 2 10 -2 23
-9 30 -9 8 -10 8 -5 -1 4 -7 -3 -15 -16 -19 l-23 -8 25 -7 c25 -7 25 -7 2 -8
-28 -1 -59 24 -39 32 6 3 -6 6 -28 7 -54 2 -35 7 58 15 l77 7 0 34 0 34 -70 0
-70 0 0 -35z m130 0 c0 -24 -3 -25 -60 -25 -57 0 -60 1 -60 25 0 24 3 25 60
25 57 0 60 -1 60 -25z m-250 -80 c0 -8 -4 -15 -10 -15 -5 0 -10 7 -10 15 0 8
5 15 10 15 6 0 10 -7 10 -15z m107 9 c39 -11 14 -24 -43 -24 -41 0 -54 4 -54
15 0 16 53 21 97 9z"/>
<path d="M6647 2886 c-4 -11 -25 -16 -74 -19 l-68 -3 66 -2 c49 -1 70 2 79 13
7 9 11 18 8 21 -3 3 -8 -2 -11 -10z"/>
<path d="M6163 2863 c53 -2 141 -2 195 0 53 1 9 3 -98 3 -107 0 -151 -2 -97
-3z"/>
<path d="M6868 2859 c-25 -14 -23 -56 3 -69 11 -7 23 -9 26 -7 2 3 -5 8 -16
12 -14 4 -21 15 -21 30 0 25 10 30 75 38 24 3 22 4 -10 5 -22 1 -48 -3 -57 -9z"/>
<path d="M6980 2843 c12 -18 12 -24 -1 -40 -13 -16 -13 -17 4 -4 21 17 22 35
0 52 -15 13 -15 12 -3 -8z"/>
<path d="M2897 3173 c-3 -5 86 -7 196 -5 376 4 413 8 110 10 -166 1 -304 -1
-306 -5z"/>
<path d="M2889 3127 c4 -4 144 -6 312 -5 l304 3 -312 5 c-172 3 -309 2 -304
-3z"/>
<path d="M3033 3033 c86 -2 228 -2 315 0 86 1 15 3 -158 3 -173 0 -244 -2
-157 -3z"/>
<path d="M3043 2943 c87 -2 227 -2 310 0 84 1 13 3 -158 3 -170 0 -239 -2
-152 -3z"/>
<path d="M8223 2963 c48 -2 126 -2 175 0 48 1 8 3 -88 3 -96 0 -136 -2 -87 -3z"/>
<path d="M9777 2963 c18 -2 50 -2 70 0 21 2 7 4 -32 4 -38 0 -55 -2 -38 -4z"/>
<path d="M8643 2953 c48 -2 125 -2 170 0 45 1 6 3 -88 3 -93 0 -130 -2 -82 -3z"/>
<path d="M9567 2953 c17 -3 23 -13 26 -41 l4 -37 1 38 2 37 56 0 56 0 -4 -35
c-2 -19 0 -35 4 -35 4 0 8 18 8 40 l0 40 -87 -1 c-49 -1 -78 -4 -66 -6z"/>
<path d="M7544 2905 c-17 -13 -16 -13 13 -3 28 10 35 9 55 -7 l23 -20 -19 23
c-22 26 -44 28 -72 7z"/>
<path d="M8307 2892 c-10 -10 -17 -27 -16 -38 1 -14 3 -13 8 6 4 14 18 30 31
37 16 8 19 13 9 13 -9 0 -23 -8 -32 -18z"/>
<path d="M8461 2907 c2 -1 13 -9 24 -17 19 -14 19 -14 6 3 -7 9 -18 17 -24 17
-6 0 -8 -1 -6 -3z"/>
<path d="M7522 2860 c0 -14 2 -19 5 -12 2 6 2 18 0 25 -3 6 -5 1 -5 -13z"/>
<path d="M7620 2832 c0 -6 -15 -16 -32 -21 -22 -6 -26 -9 -12 -10 24 -1 62 24
51 35 -4 4 -7 2 -7 -4z"/>
<path d="M8479 2823 c-13 -16 -12 -17 4 -4 16 13 21 21 13 21 -2 0 -10 -8 -17
-17z"/>
<path d="M8314 2816 c14 -11 39 -16 85 -14 l66 1 -70 6 c-38 3 -77 10 -85 14
-8 5 -6 1 4 -7z"/>
<path d="M10168 2783 c23 -2 59 -2 80 0 20 2 1 4 -43 4 -44 0 -61 -2 -37 -4z"/>
<path d="M9805 2770 c-66 -3 -110 -8 -97 -12 18 -5 22 -13 22 -49 l0 -42 104
6 c116 7 203 23 212 39 4 7 2 8 -4 4 -7 -4 -12 -1 -12 9 0 10 5 14 13 10 6 -4
3 1 -7 9 -11 9 -34 17 -50 18 -17 1 -2 4 34 8 l65 7 -80 -1 c-44 0 -134 -2
-200 -6z m-15 -35 c0 -9 -10 -15 -25 -15 -14 0 -25 6 -25 13 0 7 11 14 25 15
16 1 25 -3 25 -13z m175 1 l50 -12 -54 -17 c-60 -19 -161 -23 -161 -7 0 6 26
11 58 12 l57 2 -57 3 c-42 3 -58 8 -58 18 0 19 91 19 165 1z m-175 -36 c0 -6
-11 -10 -25 -10 -14 0 -25 4 -25 8 0 4 11 9 25 10 14 1 25 -3 25 -8z"/>
<path d="M9938 2723 c7 -3 16 -2 19 1 4 3 -2 6 -13 5 -11 0 -14 -3 -6 -6z"/>
<path d="M9438 2753 c34 -2 90 -2 125 0 34 2 6 3 -63 3 -69 0 -97 -1 -62 -3z"/>
<path d="M7532 2688 c-15 -15 -16 -35 -2 -43 6 -3 7 1 4 10 -4 8 -1 22 6 30
15 18 9 20 -8 3z"/>
<path d="M7615 2686 c16 -12 17 -16 6 -30 -7 -9 -28 -17 -45 -17 -18 -1 -23
-3 -13 -6 28 -7 64 5 71 23 7 18 -10 44 -27 44 -6 0 -2 -6 8 -14z"/>
<path d="M7975 2660 c-9 -15 4 -30 23 -29 15 1 15 2 0 6 -10 2 -18 8 -18 13 0
5 8 11 18 13 15 4 15 5 0 6 -9 0 -20 -3 -23 -9z"/>
<path d="M8070 2663 c17 -8 11 -21 -12 -26 -20 -5 -20 -5 2 -4 26 2 35 28 12
33 -7 1 -8 0 -2 -3z"/>
<path d="M8467 2634 c-10 -11 -9 -34 3 -34 5 0 7 7 4 15 -5 12 5 15 56 15 51
0 61 -3 56 -15 -3 -8 -1 -15 5 -15 6 0 9 8 7 18 -3 13 -15 18 -64 20 -33 2
-63 0 -67 -4z"/>
<path d="M7543 2583 c20 -2 54 -2 75 0 20 2 3 4 -38 4 -41 0 -58 -2 -37 -4z"/>
<path d="M7183 2734 c-2 -6 -2 -38 0 -70 l3 -59 4 70 4 70 5 -70 c3 -38 3 -72
-1 -75 -3 -3 48 -4 114 -3 66 1 123 5 126 9 4 4 1 4 -7 -1 -10 -6 -11 -2 -5
16 5 13 8 44 8 68 -1 28 1 38 7 30 5 -8 9 -9 9 -4 0 6 -5 17 -10 25 -5 8 -10
11 -10 5 0 -6 -44 -8 -121 -5 -84 3 -123 2 -126 -6z m68 -25 c14 -27 3 -89
-16 -89 -11 0 -15 14 -15 55 0 57 11 70 31 34z m47 12 c21 -13 12 -95 -10 -99
-15 -3 -18 5 -18 52 0 56 4 63 28 47z m63 -18 c13 -35 2 -83 -19 -83 -14 0
-17 11 -18 55 0 61 19 76 37 28z m47 18 c9 -5 12 -24 10 -52 -2 -35 -7 -45
-23 -47 -18 -3 -20 2 -17 53 4 56 7 61 30 46z"/>
<path d="M7452 2675 c0 -16 2 -22 5 -12 2 9 2 23 0 30 -3 6 -5 -1 -5 -18z"/>
<path d="M4920 2670 c-11 -7 -5 -8 20 -4 42 6 74 -10 50 -26 -9 -6 -10 -10 -3
-10 22 0 26 23 8 37 -22 15 -54 17 -75 3z"/>
<path d="M5133 2663 c9 -2 23 -2 30 0 6 3 -1 5 -18 5 -16 0 -22 -2 -12 -5z"/>
<path d="M5873 2663 c15 -2 37 -2 50 0 12 2 0 4 -28 4 -27 0 -38 -2 -22 -4z"/>
<path d="M5097 2653 c-13 -13 16 -33 48 -33 35 0 64 23 45 35 -6 4 -9 1 -8 -7
2 -9 -9 -13 -37 -13 -27 0 -39 4 -37 13 2 13 -1 15 -11 5z"/>
<path d="M5825 2649 c-4 -6 -5 -12 -2 -15 2 -3 7 2 10 11 7 17 1 20 -8 4z"/>
<path d="M5952 2648 c2 -9 -15 -15 -57 -19 l-60 -6 56 -1 c38 -1 60 3 68 12 8
10 9 16 1 21 -6 4 -9 1 -8 -7z"/>
<path d="M6507 2654 c-10 -11 -9 -34 3 -34 5 0 7 7 4 15 -5 12 5 15 56 15 51
0 61 -3 56 -15 -3 -8 -1 -15 5 -15 6 0 9 8 7 18 -3 13 -15 18 -64 20 -33 2
-63 0 -67 -4z"/>
<path d="M6928 2652 c27 -8 30 -25 6 -31 -10 -2 -24 5 -31 15 -12 16 -13 16
-13 1 0 -22 45 -33 65 -17 20 16 2 40 -29 39 -20 -1 -20 -1 2 -7z"/>
<path d="M4918 2603 c23 -2 59 -2 80 0 20 2 1 4 -43 4 -44 0 -61 -2 -37 -4z"/>
<path d="M8513 2713 c9 -2 23 -2 30 0 6 3 -1 5 -18 5 -16 0 -22 -2 -12 -5z"/>
<path d="M9750 2496 c0 -3 9 -10 20 -16 11 -6 20 -8 20 -6 0 3 -9 10 -20 16
-11 6 -20 8 -20 6z"/>
<path d="M9815 2455 c11 -9 29 -21 40 -26 l20 -10 -20 16 c-11 9 -29 21 -40
26 l-20 10 20 -16z"/>
<path d="M9895 2405 c11 -9 29 -21 40 -26 l20 -10 -20 16 c-11 9 -29 21 -40
26 l-20 10 20 -16z"/>
<path d="M9960 2366 c0 -3 9 -10 20 -16 11 -6 20 -8 20 -6 0 3 -9 10 -20 16
-11 6 -20 8 -20 6z"/>
<path d="M10025 2325 c11 -9 29 -21 40 -26 l20 -10 -20 16 c-11 9 -29 21 -40
26 l-20 10 20 -16z"/>
<path d="M10105 2275 c11 -9 29 -21 40 -26 l20 -10 -20 16 c-11 9 -29 21 -40
26 l-20 10 20 -16z"/>
<path d="M10477 2283 c-10 -9 -9 -51 2 -57 4 -3 6 6 3 20 -3 16 1 30 9 35 8 5
9 9 3 9 -6 0 -14 -3 -17 -7z"/>
<path d="M10530 2273 c12 -18 12 -24 -1 -40 -13 -16 -13 -17 4 -4 21 17 22 35
0 52 -15 13 -15 12 -3 -8z"/>
<path d="M10185 2225 c11 -9 29 -21 40 -26 l20 -10 -20 16 c-11 9 -29 21 -40
26 l-20 10 20 -16z"/>
<path d="M10565 2219 c-11 -16 -1 -19 13 -3 7 8 8 14 3 14 -5 0 -13 -5 -16
-11z"/>
<path d="M10619 2214 c16 -12 22 -23 18 -40 -2 -13 0 -21 4 -18 23 14 -7 74
-37 74 -4 0 2 -7 15 -16z"/>
<path d="M10250 2186 c0 -3 9 -10 20 -16 11 -6 20 -8 20 -6 0 3 -9 10 -20 16
-11 6 -20 8 -20 6z"/>
<path d="M10575 2170 c10 -11 20 -20 23 -20 3 0 -3 9 -13 20 -10 11 -20 20
-23 20 -3 0 3 -9 13 -20z"/>
<path d="M10315 2145 c11 -9 29 -21 40 -26 l20 -10 -20 16 c-11 9 -29 21 -40
26 l-20 10 20 -16z"/>
<path d="M10395 2095 c11 -9 29 -21 40 -26 l20 -10 -20 16 c-11 9 -29 21 -40
26 l-20 10 20 -16z"/>
<path d="M10475 2045 c11 -9 29 -21 40 -26 l20 -10 -20 16 c-11 9 -29 21 -40
26 l-20 10 20 -16z"/>
<path d="M10540 2006 c0 -3 9 -10 20 -16 11 -6 20 -8 20 -6 0 3 -9 10 -20 16
-11 6 -20 8 -20 6z"/>
<path d="M10605 1965 c11 -9 29 -21 40 -26 l20 -10 -20 16 c-11 9 -29 21 -40
26 l-20 10 20 -16z"/>
<path d="M10685 1915 c11 -9 29 -21 40 -26 l20 -10 -20 16 c-11 9 -29 21 -40
26 l-20 10 20 -16z"/>
<path d="M10765 1865 c11 -9 29 -21 40 -26 l20 -10 -20 16 c-11 9 -29 21 -40
26 l-20 10 20 -16z"/>
<path d="M10830 1826 c0 -3 9 -10 20 -16 11 -6 20 -8 20 -6 0 3 -9 10 -20 16
-11 6 -20 8 -20 6z"/>
<path d="M10895 1785 c11 -9 29 -21 40 -26 l20 -10 -20 16 c-11 9 -29 21 -40
26 l-20 10 20 -16z"/>
<path d="M10975 1735 c11 -9 29 -21 40 -26 l20 -10 -20 16 c-11 9 -29 21 -40
26 l-20 10 20 -16z"/>
<path d="M11055 1685 c11 -9 29 -21 40 -26 l20 -10 -20 16 c-11 9 -29 21 -40
26 l-20 10 20 -16z"/>
<path d="M5010 2470 c0 -22 3 -40 8 -40 4 0 7 18 7 40 0 22 -3 40 -7 40 -5 0
-8 -18 -8 -40z"/>
<path d="M5406 2500 c4 -8 11 -30 15 -50 7 -35 7 -35 8 -4 0 16 -6 39 -15 50
-8 10 -12 12 -8 4z"/>
<path d="M5577 2493 c-10 -9 -9 -83 1 -83 4 0 7 20 7 45 0 25 0 45 -1 45 0 0
-4 -3 -7 -7z"/>
<path d="M5615 2488 c-9 -22 -2 -68 10 -71 14 -3 19 63 6 76 -7 7 -12 5 -16
-5z m12 -50 c-2 -13 -4 -5 -4 17 -1 22 1 32 4 23 2 -10 2 -28 0 -40z"/>
<path d="M5665 2454 c0 -24 3 -44 8 -44 4 0 7 18 7 39 0 22 -3 42 -7 44 -5 3
-8 -15 -8 -39z"/>
<path d="M5700 2455 c0 -25 5 -45 10 -45 6 0 10 20 10 45 0 25 -4 45 -10 45
-5 0 -10 -20 -10 -45z"/>
<path d="M5747 2493 c-9 -9 -9 -71 1 -76 4 -3 7 15 7 39 0 24 0 44 -1 44 0 0
-4 -3 -7 -7z"/>
<path d="M5785 2488 c-9 -22 -2 -68 10 -71 14 -3 19 63 6 76 -7 7 -12 5 -16
-5z m12 -50 c-2 -13 -4 -5 -4 17 -1 22 1 32 4 23 2 -10 2 -28 0 -40z"/>
<path d="M5330 2456 c0 -2 16 -6 35 -8 19 -2 35 0 35 4 0 4 -16 8 -35 8 -19 0
-35 -2 -35 -4z"/>
<path d="M4574 2436 c17 -14 18 -19 7 -42 -6 -15 -10 -28 -8 -31 2 -2 10 10
17 26 l12 30 39 -20 c21 -10 39 -17 39 -14 0 2 -28 18 -62 35 -35 17 -54 24
-44 16z"/>
<path d="M5161 2393 l2 -38 7 35 7 35 5 -30 5 -30 -1 29 c-1 16 -7 31 -13 34
-9 2 -13 -8 -12 -35z"/>
<path d="M5300 2395 c0 -27 3 -33 16 -28 12 4 13 8 3 13 -6 5 -9 17 -6 29 3
12 1 21 -4 21 -5 0 -9 -16 -9 -35z"/>
<path d="M5440 2385 c0 -25 5 -45 10 -45 6 0 10 20 10 45 0 25 -4 45 -10 45
-5 0 -10 -20 -10 -45z"/>
<path d="M5470 2385 c0 -25 3 -45 8 -45 4 0 7 20 7 45 0 25 -3 45 -7 45 -5 0
-8 -20 -8 -45z"/>
<path d="M5391 2390 c-13 -11 -19 -20 -14 -20 6 0 18 9 28 20 23 25 17 25 -14
0z"/>
<path d="M4730 2355 c0 -2 32 -21 70 -40 39 -19 70 -33 70 -30 0 2 -31 21 -70
40 -38 19 -70 33 -70 30z"/>
<path d="M6713 2285 l-29 -45 -39 26 -40 25 30 -25 c17 -14 33 -26 38 -26 4 0
7 -8 7 -17 0 -10 9 0 20 22 42 82 42 82 100 45 33 -21 49 -38 46 -47 -3 -8 -1
-11 4 -8 6 3 10 10 10 15 0 9 -99 80 -111 80 -4 0 -20 -20 -36 -45z"/>
<path d="M5789 2283 l-24 -28 28 24 c15 14 27 26 27 28 0 8 -8 1 -31 -24z"/>
<path d="M4917 2242 c-3 -9 -8 -26 -12 -37 -3 -11 1 -8 10 8 8 15 18 27 21 27
2 0 27 -11 54 -25 28 -14 50 -23 50 -20 0 2 -27 18 -59 34 -52 27 -59 28 -64
13z"/>
<path d="M5739 2223 l-24 -28 28 24 c15 14 27 26 27 28 0 8 -8 1 -31 -24z"/>
<path d="M5689 2163 l-24 -28 28 24 c15 14 27 26 27 28 0 8 -8 1 -31 -24z"/>
<path d="M6694 2161 c1 -14 13 -33 29 -45 27 -20 28 -20 45 -1 16 18 16 18 0
6 -15 -11 -22 -11 -42 3 -14 8 -26 26 -29 38 -4 22 -4 22 -3 -1z"/>
<path d="M6803 2178 c-20 -26 -21 -34 -5 -34 9 0 119 -68 244 -152 125 -84
229 -152 232 -152 2 0 15 19 30 43 18 28 20 34 6 18 -11 -13 -24 -31 -29 -39
-12 -21 -473 285 -467 311 5 20 2 22 -11 5z"/>
<path d="M5090 2165 c0 -2 14 -12 31 -20 20 -11 29 -21 25 -31 -15 -37 -16
-46 -1 -21 18 31 19 31 46 17 10 -6 19 -8 19 -5 0 2 -27 18 -60 35 -33 17 -60
28 -60 25z"/>
<path d="M5640 2105 c-13 -14 -22 -27 -19 -29 2 -2 14 10 27 25 29 36 24 38
-8 4z"/>
<path d="M5280 2065 c0 -2 27 -18 60 -35 33 -17 60 -28 60 -25 0 2 -27 18 -60
35 -33 17 -60 28 -60 25z"/>
<path d="M5602 2035 c-17 -37 -14 -45 4 -12 9 16 14 31 11 33 -2 2 -9 -7 -15
-21z"/>
<path d="M5570 1960 c-7 -16 -14 -30 -17 -30 -2 0 -26 11 -53 25 -28 14 -50
23 -50 20 0 -2 28 -19 63 -36 34 -17 59 -28 55 -24 -4 4 0 21 8 37 9 17 13 32
11 34 -2 3 -10 -9 -17 -26z"/>
<path d="M6908 1923 c6 -2 18 -2 25 0 6 3 1 5 -13 5 -14 0 -19 -2 -12 -5z"/>
<path d="M6875 1909 c-4 -6 -5 -12 -2 -15 2 -3 7 2 10 11 7 17 1 20 -8 4z"/>
<path d="M6680 1890 c0 -11 2 -20 4 -20 2 0 6 9 9 20 3 11 1 20 -4 20 -5 0 -9
-9 -9 -20z"/>
<path d="M6743 1899 c9 -5 18 -20 18 -32 1 -18 2 -18 6 -4 5 20 -13 47 -31 47
-6 0 -3 -5 7 -11z"/>
<path d="M6895 1900 c-4 -6 -4 -14 -1 -17 3 -4 6 -1 6 5 0 7 9 12 20 12 21 0
29 -34 10 -43 -6 -3 -5 -4 2 -3 7 2 13 14 13 27 0 17 -6 25 -22 27 -11 2 -24
-2 -28 -8z"/>
<path d="M6961 1878 c0 -15 -9 -32 -18 -37 -10 -6 -13 -11 -7 -11 19 0 36 28
31 52 -4 21 -4 20 -6 -4z"/>
<path d="M5620 1885 c0 -2 32 -21 70 -40 39 -19 70 -33 70 -30 0 2 -31 21 -70
40 -38 19 -70 33 -70 30z"/>
<path d="M6870 1861 c0 -10 29 -36 34 -30 1 2 -6 12 -16 22 -10 9 -18 13 -18
8z"/>
<path d="M6690 1851 c0 -10 19 -25 25 -20 1 2 -3 10 -11 17 -8 7 -14 8 -14 3z"/>
<path d="M6170 1595 c0 -2 27 -18 60 -35 33 -17 60 -28 60 -25 0 2 -27 18 -60
35 -33 17 -60 28 -60 25z"/>
<path d="M6340 1505 c0 -2 27 -18 60 -35 33 -17 60 -28 60 -25 0 2 -27 18 -60
35 -33 17 -60 28 -60 25z"/>
<path d="M6530 1405 c0 -2 27 -18 60 -35 33 -17 60 -28 60 -25 0 2 -27 18 -60
35 -33 17 -60 28 -60 25z"/>
<path d="M8243 1273 c15 -2 39 -2 55 0 15 2 2 4 -28 4 -30 0 -43 -2 -27 -4z"/>
<path d="M6900 1203 c0 -9 3 -14 6 -10 4 3 24 -3 45 -14 54 -27 49 -16 -6 14
-37 21 -45 23 -45 10z"/>
<path d="M7473 1124 c-3 -8 2 -22 11 -30 9 -8 11 -9 6 -2 -16 20 -11 36 13 41
l22 4 -23 2 c-12 0 -25 -6 -29 -15z"/>
<path d="M7060 1125 c0 -2 27 -18 60 -35 33 -17 60 -28 60 -25 0 2 -27 18 -60
35 -33 17 -60 28 -60 25z"/>
<path d="M7530 1127 c0 -3 12 -12 26 -22 15 -9 23 -12 20 -6 -7 11 -46 35 -46
28z"/>
<path d="M7967 1095 c-9 -19 -15 -35 -12 -35 7 0 37 61 33 66 -3 2 -12 -12
-21 -31z"/>
<path d="M8060 1096 c0 -3 14 -13 30 -21 18 -9 28 -21 24 -27 -4 -7 -3 -8 5
-4 6 4 9 12 6 17 -7 11 -65 42 -65 35z"/>
<path d="M7560 1065 c-11 -13 -10 -14 4 -9 9 3 16 10 16 15 0 13 -6 11 -20 -6z"/>
<path d="M7960 1035 c0 -2 27 -18 59 -35 45 -22 62 -27 67 -17 4 6 4 9 -1 5
-4 -4 -34 6 -66 23 -33 16 -59 27 -59 24z"/>
<path d="M7250 1025 c0 -2 23 -16 50 -30 28 -14 50 -23 50 -20 0 2 -22 16 -50
30 -27 14 -50 23 -50 20z"/>
<path d="M8300 985 c-17 -25 -29 -45 -26 -45 3 0 19 20 36 45 17 25 29 45 26
45 -3 0 -19 -20 -36 -45z"/>
<path d="M7360 962 c0 -5 7 -9 15 -9 8 0 12 4 9 9 -3 4 -9 8 -15 8 -5 0 -9 -4
-9 -8z"/>
<path d="M7420 935 c0 -2 27 -18 60 -35 33 -17 60 -28 60 -25 0 2 -27 18 -60
35 -33 17 -60 28 -60 25z"/>
<path d="M8240 900 c-12 -16 -19 -30 -16 -30 2 0 14 14 26 30 12 17 19 30 16
30 -2 0 -14 -13 -26 -30z"/>
<path d="M8180 815 c-17 -25 -29 -45 -26 -45 3 0 19 20 36 45 17 25 29 45 26
45 -3 0 -19 -20 -36 -45z"/>
<path d="M7590 845 c0 -2 27 -18 60 -35 33 -17 60 -28 60 -25 0 2 -27 18 -60
35 -33 17 -60 28 -60 25z"/>
<path d="M8475 748 c-13 -28 -14 -30 -1 -13 9 11 20 26 26 33 7 8 7 12 1 12
-6 0 -18 -15 -26 -32z"/>
<path d="M8520 765 c0 -2 32 -21 70 -40 39 -19 70 -33 70 -30 0 2 -31 21 -70
40 -38 19 -70 33 -70 30z"/>
<path d="M8120 730 c-12 -16 -19 -30 -16 -30 2 0 14 14 26 30 12 17 19 30 16
30 -2 0 -14 -13 -26 -30z"/>
<path d="M7780 745 c0 -2 27 -18 60 -35 33 -17 60 -28 60 -25 0 2 -27 18 -60
35 -33 17 -60 28 -60 25z"/>
<path d="M8440 681 c0 -6 4 -13 10 -16 6 -3 7 1 4 9 -7 18 -14 21 -14 7z"/>
<path d="M8710 665 c0 -2 19 -14 43 -26 23 -12 43 -23 45 -24 6 -5 -42 -95
-51 -95 -4 0 -18 5 -30 11 -21 10 -21 10 -3 -5 31 -25 44 -19 71 34 14 27 25
52 25 54 0 3 -22 17 -50 31 -27 14 -50 23 -50 20z"/>
<path d="M7950 655 c0 -3 28 -19 62 -36 35 -17 57 -25 51 -17 -10 11 -9 20 3
39 l16 24 -22 -24 -21 -24 -45 21 c-24 12 -44 20 -44 17z"/>
<path d="M8510 635 c0 -2 27 -18 60 -35 33 -17 60 -28 60 -25 0 2 -27 18 -60
35 -33 17 -60 28 -60 25z"/>
<path d="M8120 565 c0 -2 32 -21 70 -40 39 -19 70 -33 70 -30 0 2 -31 21 -70
40 -38 19 -70 33 -70 30z"/>
<path d="M8819 543 c-13 -16 -12 -17 4 -4 9 7 17 15 17 17 0 8 -8 3 -21 -13z"/>
<path d="M8888 542 c9 -10 19 -17 21 -16 6 5 -20 34 -30 34 -5 0 -1 -8 9 -18z"/>
<path d="M8810 491 c0 -10 29 -36 34 -30 1 2 -6 12 -16 22 -10 9 -18 13 -18 8z"/>
<path d="M8888 478 c-10 -10 -14 -18 -9 -18 10 0 36 29 30 34 -2 1 -12 -6 -21
-16z"/>
<path d="M8290 475 c0 -2 32 -21 70 -40 39 -19 70 -33 70 -30 0 2 -31 21 -70
40 -38 19 -70 33 -70 30z"/>
<path d="M8480 375 c0 -2 32 -21 70 -40 39 -19 70 -33 70 -30 0 2 -31 21 -70
40 -38 19 -70 33 -70 30z"/>
<path d="M8670 275 c0 -2 27 -18 60 -35 33 -17 60 -28 60 -25 0 2 -27 18 -60
35 -33 17 -60 28 -60 25z"/>
<path d="M8460 1158 c26 -26 440 -369 440 -364 0 5 -393 335 -435 365 -18 13
-19 13 -5 -1z"/>
<path d="M8930 765 c13 -14 26 -25 28 -25 3 0 -5 11 -18 25 -13 14 -26 25 -28
25 -3 0 5 -11 18 -25z"/>
</g>
</svg>
