<?xml version="1.0" standalone="no"?>
<!DOCTYPE svg PUBLIC "-//W3C//DTD SVG 20010904//EN"
 "http://www.w3.org/TR/2001/REC-SVG-20010904/DTD/svg10.dtd">
<svg version="1.0" xmlns="http://www.w3.org/2000/svg"
 width="1207.000000pt" height="460.000000pt" viewBox="0 0 1207.000000 460.000000"
 preserveAspectRatio="xMidYMid meet">

<g transform="translate(0.000000,460.000000) scale(0.100000,-0.100000)"
fill="#ffffff" stroke="none">
<path d="M6776 4188 c-7 -295 -13 -372 -26 -376 -7 -3 -20 -13 -28 -23 -21
-24 -32 -24 -32 1 0 27 -29 40 -90 40 -85 0 -140 -34 -140 -87 0 -10 -9 -26
-20 -36 -44 -37 -100 -9 -100 50 0 59 -5 63 -90 63 -63 0 -82 -4 -104 -21 -14
-11 -26 -29 -26 -39 0 -22 -46 -80 -64 -80 -7 0 -17 -5 -24 -12 -7 -7 -58 -20
-115 -30 -79 -13 -113 -15 -153 -7 -40 8 -58 6 -89 -7 -22 -9 -71 -20 -110
-24 -38 -4 -110 -19 -160 -33 -49 -13 -134 -36 -187 -50 -122 -32 -175 -63
-264 -154 l-72 -73 -161 0 c-158 0 -163 -1 -186 -24 -13 -13 -27 -36 -31 -50
-3 -14 -11 -26 -18 -27 -6 0 -92 -2 -191 -3 -293 -5 -305 -6 -305 -16 0 -6 96
-11 253 -12 l252 -3 3 -88 c2 -55 -1 -94 -8 -102 -9 -11 -375 -14 -2115 -14
-1157 0 -2106 3 -2107 7 -2 4 -2 41 0 83 l3 76 532 8 c293 5 629 9 747 9 344
2 450 5 450 16 0 9 -1344 5 -1360 -5 -4 -3 -95 -5 -201 -5 -106 -1 -201 -6
-211 -11 -15 -8 -18 -22 -18 -87 0 -42 4 -83 9 -90 7 -11 384 -13 2133 -14
1168 0 2129 -3 2134 -6 6 -4 16 -21 23 -39 25 -61 56 -70 272 -73 l96 -2 37
-48 c96 -126 211 -196 351 -215 80 -10 126 -27 142 -52 19 -29 20 -145 2 -179
-19 -36 -6 -38 53 -7 70 37 68 36 68 25 0 -5 -20 -20 -45 -33 -25 -13 -45 -27
-45 -31 0 -14 28 -8 64 13 35 20 36 20 36 2 0 -25 -50 -73 -77 -73 -23 0 -83
-56 -83 -77 0 -7 -4 -13 -10 -13 -5 0 -7 -7 -4 -15 12 -30 -33 -16 -46 14 -15
37 -11 43 58 88 43 28 52 38 39 41 -11 2 -29 -6 -41 -17 -12 -12 -25 -21 -29
-21 -14 0 -7 21 13 37 25 22 25 33 1 33 -12 0 -21 9 -25 25 -14 57 -207 98
-244 52 -5 -6 -15 -36 -23 -64 l-13 -53 -50 -1 c-28 -1 -115 0 -193 1 -171 2
-177 -1 -229 -106 -39 -77 -54 -91 -54 -50 0 50 -48 35 -107 -34 -17 -19 -34
-46 -38 -60 -12 -41 -25 -50 -69 -50 -22 0 -54 -7 -71 -16 -19 -10 -61 -17
-113 -19 -81 -2 -116 -15 -96 -35 5 -5 52 -10 104 -12 l95 -3 6 -38 c8 -48 14
-53 42 -38 31 17 92 11 92 -9 0 -17 -113 -33 -180 -25 -122 14 -155 16 -172 7
-10 -5 -45 -6 -78 -3 -34 4 -68 2 -78 -4 -13 -7 -20 -6 -27 4 -6 11 -27 14
-75 13 -37 -1 -71 -5 -76 -8 -5 -3 -17 -7 -26 -9 -124 -24 -346 -170 -429
-282 -42 -55 -113 -199 -120 -239 l-6 -42 58 -17 c33 -9 68 -18 79 -20 39 -5
150 -46 174 -64 21 -16 23 -27 25 -97 2 -89 20 -137 53 -142 12 -2 42 -27 67
-55 80 -91 110 -118 128 -113 25 6 99 -37 153 -89 52 -49 55 -51 73 -33 9 9
19 7 42 -10 16 -12 34 -22 40 -22 5 0 10 -4 10 -9 0 -6 11 -22 25 -37 14 -15
25 -31 25 -35 0 -5 19 -9 41 -9 53 0 130 -41 154 -83 24 -42 35 -48 67 -41 35
7 83 -18 131 -69 32 -34 44 -40 75 -39 40 2 115 -37 132 -68 16 -30 71 -43
106 -25 37 19 94 19 167 0 52 -13 60 -13 82 1 30 19 109 15 174 -10 41 -16 45
-16 62 0 10 9 38 17 64 19 52 2 135 -14 135 -27 0 -15 26 -8 50 12 25 21 49
21 179 -1 37 -6 58 -5 67 2 30 25 162 13 195 -17 15 -14 20 -12 45 11 23 21
35 25 73 21 25 -2 67 -13 94 -25 47 -20 48 -20 67 -1 15 15 34 20 70 20 28 0
50 4 50 9 0 13 -21 18 -62 15 -21 -2 -38 1 -38 6 0 11 14 13 80 10 52 -2 57
-5 41 -23 -17 -21 4 -33 66 -42 44 -6 54 -4 59 9 10 27 154 15 188 -16 15 -12
38 -10 50 6 17 22 103 23 168 1 56 -18 58 -18 78 0 17 15 31 17 89 12 38 -3
78 -11 90 -18 17 -11 23 -10 38 3 23 21 118 35 136 20 7 -6 35 -14 63 -17 39
-6 53 -4 63 9 23 28 96 21 178 -17 17 -7 27 -5 49 12 35 27 90 27 166 0 l59
-22 22 22 c18 16 36 21 73 21 28 0 54 -4 60 -9 5 -5 32 -14 59 -19 41 -9 52
-8 61 3 12 17 129 22 138 6 11 -17 78 -21 100 -6 37 26 141 17 215 -18 20 -10
26 -9 39 11 12 19 23 22 73 22 32 0 61 -5 65 -11 3 -6 19 -9 34 -6 15 3 32 1
39 -6 9 -9 17 -8 34 3 29 18 146 14 199 -7 34 -14 41 -14 56 0 33 28 171 24
221 -8 5 -3 17 2 26 11 23 23 90 24 170 3 64 -17 71 -18 82 -3 9 13 25 15 85
11 40 -3 90 -9 111 -12 25 -5 47 -3 62 5 16 9 43 10 87 5 74 -8 137 -8 230 0
45 5 74 3 90 -6 24 -14 76 -13 93 2 6 4 60 11 120 15 98 5 112 9 130 29 27 31
129 64 188 60 40 -3 50 0 62 19 20 31 99 57 158 52 43 -4 48 -2 61 23 18 34
94 61 172 61 46 0 56 4 70 25 20 30 66 46 159 54 62 5 70 8 73 28 4 26 90 83
126 83 13 0 40 7 60 15 28 12 36 21 36 40 0 66 89 175 142 175 25 0 22 29 -6
59 -21 24 -22 31 -16 86 4 33 13 86 20 117 12 56 12 58 -11 77 -13 11 -29 20
-36 21 -14 0 -53 83 -53 112 0 10 -11 29 -24 41 -28 26 -25 35 37 109 20 25
37 50 37 55 0 11 -86 66 -167 107 l-53 26 0 70 0 70 -35 14 c-24 11 -35 21
-35 36 0 13 -32 54 -86 107 l-86 86 50 46 c53 49 85 102 80 129 -2 12 -12 3
-30 -28 -40 -67 -90 -116 -134 -131 -21 -8 -75 -14 -119 -14 -95 1 -139 22
-203 99 -71 85 -81 197 -27 293 113 199 392 196 482 -6 13 -31 25 -73 26 -94
3 -54 21 -51 25 4 5 84 -71 193 -166 235 -46 21 -68 24 -173 24 l-119 0 -55
-57 c-30 -31 -55 -54 -55 -52 -1 2 -2 35 -4 73 -2 44 -8 71 -17 77 -15 9 -251
14 -506 10 -142 -3 -155 -1 -179 18 -34 26 -69 27 -91 1 -16 -19 -30 -20 -258
-19 -132 0 -245 3 -250 7 -6 4 -11 25 -12 47 -1 22 -8 44 -16 50 -10 7 -130
10 -357 9 -333 -2 -343 -2 -363 -23 -13 -13 -23 -39 -27 -68 -3 -30 -10 -48
-17 -47 -7 1 -42 2 -78 3 -36 0 -65 6 -65 11 0 6 6 10 14 10 21 0 74 48 92 82
14 26 14 46 4 152 -19 188 -22 169 34 183 27 7 54 17 60 23 18 18 -13 35 -67
35 -46 0 -52 3 -55 22 -2 14 3 23 17 28 24 7 28 37 7 54 -8 7 -17 28 -21 48
-4 21 -12 42 -19 48 -18 15 -38 134 -38 226 0 61 5 89 22 120 11 23 18 44 15
48 -4 3 -28 6 -53 6 -26 0 -63 9 -82 19 -19 9 -69 20 -110 23 -66 5 -80 10
-113 38 -21 18 -68 48 -105 66 -65 33 -71 34 -182 33 -109 0 -118 -2 -178 -32
-34 -18 -67 -32 -72 -32 -6 0 -10 15 -10 34 0 56 -19 139 -37 158 -9 10 -30
18 -47 18 -17 0 -60 14 -95 32 -47 24 -65 30 -68 20 -3 -7 -14 -21 -25 -32
-16 -14 -26 -16 -50 -9 -19 5 -38 5 -49 -1 -10 -6 -65 -10 -122 -10 -120 0
-128 5 -137 79 l-5 46 -79 3 c-70 3 -81 0 -102 -19 -13 -13 -24 -32 -24 -44 0
-34 -18 -44 -69 -38 -42 4 -50 2 -88 -32 l-43 -37 0 -78 c0 -80 -11 -106 -29
-71 -6 11 -20 23 -31 26 -17 6 -20 15 -20 76 0 39 -4 78 -9 87 -10 20 -20 173
-21 320 0 95 -1 102 -20 102 -18 0 -19 -10 -24 -202z m499 -119 c4 -5 -12 -9
-35 -9 -23 0 -39 4 -36 8 7 12 64 13 71 1z m30 -40 c4 -6 5 -12 2 -15 -7 -8
-125 -9 -133 -2 -16 16 12 28 66 28 32 0 62 -5 65 -11z m-495 -139 c0 -27 -4
-50 -10 -50 -5 0 -10 23 -10 50 0 28 5 50 10 50 6 0 10 -22 10 -50z m1092 35
c23 -5 28 -12 28 -35 0 -16 -4 -31 -9 -34 -12 -8 -959 -8 -971 -1 -9 6 12 54
28 64 13 8 889 13 924 6z m23 -105 c9 -8 15 -30 15 -56 0 -63 -21 -74 -137
-74 l-93 0 12 25 c6 14 8 28 5 32 -11 10 -170 11 -189 1 -27 -13 -22 -27 15
-43 29 -13 9 -14 -196 -15 -226 0 -228 0 -222 20 11 35 -12 50 -75 50 -32 0
-65 -3 -74 -6 -23 -9 -20 -31 5 -39 11 -4 19 -9 16 -11 -2 -3 -16 0 -29 5 -19
7 -27 18 -30 45 -8 73 -16 70 228 76 373 9 733 4 749 -10z m400 -20 c3 -5 13
-10 22 -10 27 0 94 -33 90 -44 -2 -6 -22 -12 -44 -14 -23 -2 -47 -10 -53 -18
-9 -10 -37 -14 -107 -14 -80 0 -99 3 -120 20 -14 11 -41 20 -60 20 -21 0 -32
4 -28 10 9 14 71 40 120 50 58 11 173 12 180 0z m-2060 -21 c-48 -11 -75 -10
-75 4 0 8 15 11 52 8 47 -4 49 -5 23 -12z m370 11 c4 -6 -15 -10 -49 -10 -31
0 -56 5 -56 10 0 6 22 10 49 10 28 0 53 -4 56 -10z m210 -9 c3 -5 1 -12 -3
-15 -14 -8 -82 5 -76 15 7 12 71 11 79 0z m-222 -31 c16 0 26 -4 22 -10 -8
-13 -132 -13 -139 -1 -9 14 15 21 54 16 19 -3 48 -5 63 -5z m-338 -10 c-29
-12 -138 -12 -130 0 3 6 39 10 78 9 50 0 66 -3 52 -9z m603 1 c8 -5 12 -17 10
-27 -3 -16 -13 -19 -86 -19 -86 0 -108 9 -96 39 5 13 21 16 83 16 42 0 82 -4
89 -9z m1182 -41 c0 -5 -18 -10 -40 -10 -22 0 -40 5 -40 10 0 6 18 10 40 10
22 0 40 -4 40 -10z m400 -6 c0 -11 -5 -14 -16 -10 -9 3 -24 6 -35 6 -10 0 -19
5 -19 10 0 6 16 10 35 10 25 0 35 -4 35 -16z m-2203 0 c-3 -3 -12 -4 -19 -1
-8 3 -5 6 6 6 11 1 17 -2 13 -5z m1421 -1 c-10 -2 -28 -2 -40 0 -13 2 -5 4 17
4 22 1 32 -1 23 -4z m1083 -70 c6 -6 26 -122 45 -259 18 -137 38 -274 44 -305
16 -86 13 -158 -6 -166 -12 -5 -14 -15 -9 -54 9 -63 -9 -65 -21 -2 -5 25 -15
49 -23 51 -11 4 -13 -6 -9 -47 8 -77 -12 -66 -24 13 -2 11 -9 21 -15 24 -9 2
-13 -11 -13 -48 0 -43 -3 -51 -17 -48 -11 2 -20 21 -28 56 -7 29 -15 56 -19
60 -14 13 -27 -23 -22 -61 4 -33 1 -39 -20 -47 -38 -15 -51 -3 -56 51 -3 27
-8 53 -12 56 -12 13 -26 -21 -26 -64 l0 -43 -45 0 c-44 0 -45 1 -46 33 -1 17
-2 37 -4 42 -1 6 -3 16 -3 23 -4 33 -27 1 -32 -44 -5 -48 -5 -49 -42 -52 l-38
-3 0 50 c0 27 -4 52 -9 56 -12 7 -30 -25 -24 -41 2 -6 -1 -23 -7 -38 -10 -26
-13 -27 -53 -21 -52 9 -51 9 -49 48 1 18 -2 38 -7 46 -15 24 -31 2 -31 -44 0
-48 -19 -63 -66 -51 -21 6 -24 12 -24 56 0 50 -15 74 -31 49 -5 -8 -9 -33 -9
-56 0 -47 -19 -60 -64 -44 -22 9 -26 16 -24 51 1 22 -1 43 -5 46 -11 11 -27
-7 -27 -31 0 -44 -18 -75 -44 -75 -33 0 -49 23 -41 60 4 19 2 36 -5 45 -19 23
-30 8 -30 -39 0 -50 -13 -66 -54 -66 -46 0 -56 11 -54 58 2 58 -18 78 -27 26
-12 -74 -15 -77 -55 -57 -29 15 -35 24 -38 56 -4 45 -28 50 -37 7 -5 -22 -11
-30 -23 -26 -58 16 -68 21 -80 38 -11 14 -17 16 -27 8 -14 -12 -49 -5 -155 30
-141 47 -247 42 -388 -17 -60 -25 -63 -25 -76 -8 -12 17 -14 17 -27 -10 -11
-23 -32 -36 -94 -61 l-80 -32 -782 0 c-885 -1 -808 -8 -837 83 -21 67 -23 245
-3 301 40 112 137 228 221 265 55 24 147 49 182 49 13 0 32 4 42 9 9 6 69 19
132 30 132 24 142 25 230 45 71 16 97 20 210 36 112 15 88 15 1493 14 869 -1
1311 -4 1318 -11z m-3796 -303 c-25 -39 -45 -75 -45 -80 0 -6 -4 -10 -10 -10
-24 0 -6 43 42 99 28 34 53 61 55 61 1 0 -17 -32 -42 -70z m-99 -63 c18 -18
-27 -27 -138 -27 -96 0 -118 3 -118 14 0 17 32 21 162 21 47 0 90 -4 94 -8z
m-302 -69 c13 -129 4 -318 -14 -318 -4 0 -14 15 -21 33 -19 43 -19 292 -1 325
21 36 29 26 36 -40z m272 14 c-7 -12 -246 -12 -246 -1 0 5 57 9 126 9 69 0
123 -4 120 -8z m55 -41 c-6 -11 -11 -70 -11 -132 0 -98 -2 -110 -15 -99 -11 9
-15 35 -15 109 0 81 3 102 22 131 21 36 38 28 19 -9z m-75 8 c5 -10 9 -169 4
-231 0 -11 -192 -10 -208 0 -9 6 -12 37 -10 118 l3 109 30 6 c61 11 173 10
181 -2z m2314 -240 c89 -16 100 -28 97 -100 -1 -39 -6 -59 -14 -59 -7 0 -13 7
-13 15 0 8 -7 15 -15 15 -9 0 -18 -7 -21 -15 -5 -13 -37 -15 -200 -15 -107 0
-194 4 -194 8 0 5 48 9 108 9 178 2 159 -5 152 58 -6 50 -22 86 -35 74 -2 -3
-6 -27 -7 -53 -1 -40 -5 -49 -25 -57 -35 -13 -53 -1 -54 37 -1 19 -2 40 -3 46
-1 19 58 43 112 46 26 1 76 -3 112 -9z m-2295 -30 c5 -5 -10 -9 -41 -9 -75 0
-204 12 -204 19 0 10 234 0 245 -10z m2028 -36 c8 -43 -1 -53 -48 -53 -30 0
-45 5 -49 16 -8 21 0 32 37 48 46 21 54 19 60 -11z m487 -3 c23 -23 25 -41 8
-58 -9 -9 -4 -12 24 -12 32 0 35 2 30 25 -5 29 7 31 57 14 19 -7 30 -17 27
-24 -3 -9 28 -14 122 -20 70 -4 143 -8 162 -9 19 -2 77 -3 128 -4 53 -1 91 -6
88 -11 -6 -10 -598 -5 -696 5 -47 5 -52 8 -37 18 9 7 15 15 13 17 -2 2 -6 21
-9 42 -6 37 -5 37 29 37 21 0 42 -8 54 -20z m-2483 -2 c-3 -9 -34 -13 -108
-13 -116 -1 -149 3 -149 16 0 5 59 9 131 9 100 0 130 -3 126 -12z m113 -113
c5 -3 10 -11 10 -17 0 -17 -31 14 -61 61 -16 24 -26 48 -23 53 4 6 19 -13 35
-40 16 -28 33 -53 39 -57z m1740 75 c0 -5 -15 -10 -32 -10 -25 0 -29 3 -18 10
20 13 50 13 50 0z m-637 -37 c-7 -2 -19 -2 -25 0 -7 3 -2 5 12 5 14 0 19 -2
13 -5z m252 -3 c-3 -5 -12 -7 -20 -3 -21 7 -19 13 6 13 11 0 18 -4 14 -10z
m125 0 c0 -13 -30 -13 -50 0 -11 7 -7 10 18 10 17 0 32 -4 32 -10z m275 0 c-4
-6 -55 -10 -121 -10 -69 0 -114 4 -114 10 0 6 47 10 121 10 77 0 118 -4 114
-10z m1367 -15 c0 -5 -5 -11 -11 -13 -6 -2 -11 4 -11 13 0 9 5 15 11 13 6 -2
11 -8 11 -13z m90 -7 c-9 -9 -15 -9 -24 0 -9 9 -7 12 12 12 19 0 21 -3 12 -12z
m213 2 c-3 -5 -26 -10 -51 -10 -28 0 -43 4 -39 10 3 6 26 10 51 10 28 0 43 -4
39 -10z m109 2 c2 -4 -13 -8 -35 -9 -21 -1 -39 3 -39 8 0 11 67 12 74 1z m101
-2 c3 -5 2 -10 -4 -10 -5 0 -13 5 -16 10 -3 6 -2 10 4 10 5 0 13 -4 16 -10z
m-1120 -16 c248 -3 657 -6 911 -8 253 -1 466 -6 472 -10 30 -19 2 -82 -52
-115 -29 -18 -50 -19 -346 -16 -173 2 -330 4 -348 4 -42 1 -52 25 -23 54 20
21 31 22 182 22 141 0 162 -2 173 -17 15 -21 26 -23 26 -5 -1 37 -15 40 -204
45 l-185 4 -12 -26 c-24 -52 -155 -88 -166 -46 -7 28 -32 25 -43 -4 -13 -34
-68 -34 -81 1 -4 12 -15 23 -23 23 -20 0 -49 -59 -36 -75 14 -17 2 -25 -41
-25 l-37 0 -9 53 c-10 64 -26 64 -33 0 -7 -62 -15 -73 -51 -73 -28 0 -29 1
-29 49 0 27 -3 56 -6 65 -9 22 -46 21 -43 -1 1 -10 1 -39 0 -65 l-1 -48 -40 0
-40 0 0 59 c0 44 -4 60 -16 65 -30 12 -34 5 -34 -58 0 -68 -6 -76 -56 -76 -30
0 -36 13 -38 87 -1 51 -3 58 -21 58 -17 0 -20 -7 -22 -55 -1 -30 -2 -63 -2
-72 -1 -14 -10 -18 -41 -18 l-40 0 0 70 c0 63 -2 70 -20 70 -17 0 -19 -8 -22
-67 -3 -65 -4 -68 -28 -68 -34 0 -52 38 -45 93 6 38 4 42 -14 42 -15 0 -22 -7
-23 -22 -1 -13 -2 -34 -3 -48 -4 -60 -4 -60 -40 -60 -29 0 -36 4 -41 25 -3 14
-3 36 0 50 8 30 -8 65 -29 65 -10 0 -15 -17 -17 -67 l-3 -68 -35 0 -35 0 -5
65 c-4 57 -8 65 -25 65 -18 0 -20 -8 -23 -68 l-3 -68 -42 3 -42 3 -1 55 c-1
76 -2 80 -19 80 -14 0 -26 -30 -23 -60 0 -8 0 -30 0 -47 -2 -31 -4 -33 -42
-33 l-40 0 0 69 c0 50 -4 70 -14 74 -21 8 -38 -17 -30 -47 3 -14 3 -42 0 -62
-7 -33 -9 -35 -44 -32 l-37 3 -3 63 c-2 45 -7 65 -18 69 -23 9 -29 -3 -34 -70
l-5 -62 -35 0 -35 0 -3 63 c-2 46 -7 65 -18 69 -23 9 -33 -15 -32 -74 1 -29 0
-55 -3 -57 -2 -2 -22 -6 -44 -8 l-40 -3 -5 65 c-4 51 -9 66 -22 68 -20 4 -20
1 -22 -73 l-1 -50 -42 -3 -42 -3 -3 63 c-2 48 -7 63 -18 63 -11 0 -15 -14 -16
-59 -1 -54 -15 -83 -35 -70 -4 2 -62 8 -130 14 -68 6 -151 16 -184 22 -33 6
-71 12 -85 14 -47 5 -35 8 49 13 54 4 86 10 89 19 3 9 -40 12 -192 12 -168 0
-196 -2 -196 -15 0 -32 -82 -6 -166 51 -51 35 -94 81 -94 99 0 7 1483 1 2485
-11z m1972 -80 c-3 -3 -12 -4 -19 -1 -8 3 -5 6 6 6 11 1 17 -2 13 -5z m80 0
c-3 -3 -12 -4 -19 -1 -8 3 -5 6 6 6 11 1 17 -2 13 -5z m120 0 c-3 -3 -12 -4
-19 -1 -8 3 -5 6 6 6 11 1 17 -2 13 -5z m-12 -59 c0 -28 -2 -30 -45 -33 -24
-2 -51 -9 -59 -15 -17 -15 -150 -13 -178 2 -15 7 -25 6 -42 -6 -19 -13 -36
-14 -109 -5 -48 5 -114 7 -146 5 l-59 -6 6 38 c3 21 9 40 12 44 9 8 420 17
530 11 l90 -5 0 -30z m-2138 -72 c-2 -16 -4 -3 -4 27 0 30 2 43 4 28 2 -16 2
-40 0 -55z m-2094 43 c18 -8 52 -17 77 -20 25 -3 89 -12 142 -20 54 -9 141
-18 195 -21 65 -4 102 -10 113 -20 19 -17 40 -20 40 -5 0 17 80 12 86 -5 4 -8
10 -15 16 -15 5 0 16 7 24 15 9 8 33 15 53 15 22 0 44 -6 51 -15 14 -17 37
-20 42 -4 6 19 68 22 89 3 18 -16 20 -16 37 -1 24 22 70 22 94 0 17 -15 19
-15 36 0 23 21 65 22 82 2 7 -8 18 -15 25 -15 7 0 15 7 19 15 3 9 18 15 39 15
19 0 40 -7 47 -15 7 -8 18 -15 25 -15 7 0 18 7 25 15 7 8 25 15 40 15 15 0 33
-7 40 -15 7 -8 18 -15 25 -15 7 0 18 7 25 15 16 19 37 19 74 0 20 -11 33 -12
40 -5 15 15 57 12 78 -7 17 -15 19 -15 36 0 24 22 71 22 88 0 12 -17 14 -17
42 0 37 21 70 22 93 2 15 -14 18 -14 33 0 25 26 84 31 100 10 15 -21 46 -14
46 10 0 25 67 20 75 -5 9 -29 29 -24 42 11 11 27 15 30 50 27 33 -3 39 -7 43
-33 4 -22 11 -30 25 -30 17 0 20 6 17 37 -3 35 -1 37 35 47 45 13 51 8 55 -44
2 -28 8 -41 21 -43 14 -3 17 4 17 47 0 27 5 53 11 56 11 8 178 9 185 2 3 -2
-6 -11 -18 -20 -13 -8 -45 -36 -73 -61 -30 -28 -59 -46 -74 -46 -13 0 -39 -9
-57 -21 -33 -20 -39 -20 -861 -17 -584 3 -836 7 -854 15 -14 6 -31 7 -40 3 -8
-5 -34 -4 -58 1 -29 6 -47 6 -56 -1 -19 -16 -542 -25 -560 -10 -8 7 -15 27
-15 46 0 53 -49 102 -111 110 -52 7 -64 19 -26 27 30 7 72 0 110 -17z m4475
-29 c10 -12 19 -473 10 -483 -5 -5 -308 -7 -313 -2 -3 2 -7 112 -10 243 -5
188 -3 240 7 247 23 14 294 10 306 -5z m697 -236 c0 -155 -3 -245 -10 -246 -5
-2 -28 -7 -50 -11 l-40 -8 45 -5 45 -6 3 -48 c2 -28 -2 -55 -9 -63 -17 -20 -1
-34 48 -41 47 -6 71 14 54 46 -12 22 -14 70 -5 95 5 14 29 16 156 16 l151 0
71 -65 c157 -142 188 -173 180 -177 -5 -3 -566 -4 -1247 -4 -681 1 -1241 -2
-1243 -6 -4 -6 1469 -11 2332 -8 160 1 193 -2 204 -15 15 -18 154 -16 -1263
-15 -930 0 -1028 -1 -1034 -16 -5 -13 -7 -13 -14 -2 -5 7 -21 14 -36 15 -63 5
-820 15 -1458 18 -374 3 -693 4 -709 5 -16 0 -26 3 -23 6 4 4 268 6 587 5 399
-1 580 1 580 9 0 6 -38 10 -102 11 -124 1 -300 15 -223 17 28 1 90 9 139 18
49 8 94 13 100 11 6 -2 21 0 34 4 19 7 23 15 21 41 -2 18 2 43 9 54 12 23 13
166 2 185 -4 6 -18 9 -31 7 -21 -3 -24 -8 -22 -46 2 -38 0 -43 -15 -37 -30 11
-33 10 -49 -12 -14 -21 -14 -23 1 -23 11 0 16 -9 16 -28 0 -15 6 -34 12 -40
18 -18 -3 -29 -71 -36 -128 -15 -148 -19 -121 -26 l25 -6 -23 -13 c-13 -7 -48
-11 -85 -9 l-62 3 53 9 c82 14 64 30 -25 22 -349 -28 -352 -28 -615 -10 l-97
7 -20 41 c-11 22 -23 53 -26 69 l-7 27 -114 0 c-63 0 -116 -1 -118 -2 -3 -2
-15 7 -29 20 -14 13 -33 22 -43 20 -15 -2 -20 4 -22 35 -4 41 -23 57 -47 37
-12 -10 -14 -24 -9 -61 4 -33 2 -54 -6 -64 -10 -13 -9 -15 11 -16 13 -1 36 0
51 1 14 1 29 -3 32 -8 5 -9 -77 -9 -634 -1 -22 0 -22 1 -6 8 25 10 3 20 -34
15 -14 -1 -36 -3 -50 -5 -16 -1 -9 -5 20 -9 32 -5 8 -7 -80 -8 -75 -1 -119 2
-111 7 11 7 9 10 -9 16 -16 5 -19 10 -11 18 6 6 11 22 11 35 0 24 0 24 95 20
87 -4 97 -6 123 -31 40 -38 51 -21 50 76 0 88 -13 105 -51 69 -12 -11 -32 -23
-44 -26 -18 -6 -21 -12 -16 -37 l6 -29 -82 0 c-80 0 -81 0 -81 25 0 17 6 25
18 26 13 0 11 3 -6 10 l-23 9 26 35 c15 19 29 53 32 77 3 24 10 49 16 56 7 9
95 12 378 12 321 0 369 -2 369 -15 0 -13 -44 -15 -337 -15 -375 0 -373 0 -373
-67 0 -26 4 -33 19 -33 10 0 25 10 33 22 14 21 19 21 309 23 332 1 349 0 349
-25 0 -22 25 -44 40 -35 5 3 10 14 10 24 0 20 26 31 71 31 22 0 27 -5 27 -26
0 -14 4 -30 10 -36 15 -15 42 -2 42 21 0 11 5 23 11 27 9 5 510 9 617 5 15 -1
22 -7 22 -20 0 -10 7 -24 15 -31 19 -16 42 1 47 33 2 12 10 22 18 22 28 0 48
20 52 49 5 45 28 45 28 1 0 -32 3 -36 23 -33 12 2 26 13 32 25 12 28 27 31
165 27 63 -1 197 -3 297 -3 l183 -1 6 -24 c11 -47 64 -43 64 4 0 32 18 42 60
33 25 -4 30 -10 30 -34 0 -24 4 -29 24 -29 15 0 26 7 29 20 5 19 14 20 320 20
174 0 322 -3 331 -6 9 -3 16 -13 16 -20 0 -20 27 -29 45 -14 8 7 15 21 15 31
0 18 13 19 285 19 l284 0 3 -142 3 -143 173 -3 172 -2 0 -50 c0 -27 -4 -52
-10 -55 -16 -10 -12 -33 8 -44 10 -5 33 -6 52 -2 l35 7 -3 72 -4 72 254 1
c149 0 244 4 232 9 -12 4 -77 8 -145 8 -68 0 -175 1 -236 1 l-113 1 0 244 c0
186 3 246 13 249 6 3 145 5 307 4 l295 -2 0 -244z m55 23 c0 -209 -1 -225 -17
-222 -17 3 -18 20 -16 213 1 116 2 216 2 223 1 6 8 12 16 12 13 0 15 -32 15
-226z m340 215 c13 -6 15 -36 13 -196 -2 -103 -3 -212 -3 -240 l0 -53 -165 0
-165 0 0 238 c0 177 3 241 13 251 13 13 279 14 307 0z m-1030 -214 c0 -137 -4
-215 -10 -215 -6 0 -10 48 -11 123 0 67 -3 157 -5 200 -6 82 -2 107 16 107 6
0 10 -74 10 -215z m-877 180 c-4 -14 -13 -14 -335 -15 -163 0 -307 4 -333 10
-26 6 -51 7 -58 3 -14 -8 -192 -12 -221 -5 -57 16 62 20 489 19 301 -1 459 -5
458 -12z m294 -1 c5 -15 -53 -20 -169 -16 -69 3 -88 7 -88 18 0 12 21 14 127
12 84 -2 128 -7 130 -14z m129 1 c-16 -16 -81 -21 -90 -6 -10 15 6 21 56 21
44 0 48 -2 34 -15z m-1420 -100 c-7 -26 -35 -36 -74 -26 l-27 8 50 47 50 48 3
-27 c2 -15 1 -38 -2 -50z m594 56 c0 -13 -207 -14 -215 -1 -4 7 32 10 104 10
61 0 111 -4 111 -9z m280 -1 c0 -6 -45 -10 -116 -10 -74 0 -113 4 -109 10 4 6
53 10 116 10 66 0 109 -4 109 -10z m480 0 c16 -5 -14 -8 -83 -9 -70 -1 -106 3
-102 9 7 12 148 12 185 0z m-490 -30 c12 -8 9 -10 -13 -10 -16 0 -26 4 -22 10
8 12 16 12 35 0z m-270 -25 l0 -25 -114 0 c-66 0 -117 4 -121 10 -4 6 35 10
109 10 96 0 116 3 116 15 0 8 2 15 5 15 3 0 5 -11 5 -25z m183 18 c-23 -2 -64
-2 -90 0 -26 2 -7 3 42 3 50 0 71 -1 48 -3z m290 0 c-29 -2 -77 -2 -105 0 -29
2 -6 3 52 3 58 0 81 -1 53 -3z m255 0 c-32 -2 -84 -2 -115 0 -32 2 -6 3 57 3
63 0 89 -1 58 -3z m130 0 c-10 -2 -26 -2 -35 0 -10 3 -2 5 17 5 19 0 27 -2 18
-5z m-1144 -22 c36 -14 2 -19 -129 -19 -133 0 -150 2 -140 19 7 11 241 11 269
0z m461 -11 c-3 -5 -28 -10 -56 -10 -27 0 -49 5 -49 10 0 6 25 10 56 10 34 0
53 -4 49 -10z m65 0 c0 -5 -9 -10 -20 -10 -11 0 -20 5 -20 10 0 6 9 10 20 10
11 0 20 -4 20 -10z m215 0 c3 -5 1 -10 -4 -10 -6 0 -11 -4 -11 -10 0 -5 15
-11 33 -11 l32 -1 -30 -7 c-27 -6 -58 -7 -119 -2 -20 1 -20 1 0 16 17 13 17
14 2 15 -10 0 -18 5 -18 10 0 6 24 10 54 10 30 0 58 -4 61 -10z m50 0 c3 -5
-3 -10 -15 -10 -12 0 -18 5 -15 10 3 6 10 10 15 10 5 0 12 -4 15 -10z m275 0
c0 -6 -44 -10 -111 -10 -71 0 -108 4 -104 10 3 6 52 10 111 10 63 0 104 -4
104 -10z m84 1 c3 -5 -6 -11 -19 -14 -25 -4 -40 4 -28 17 9 9 41 7 47 -3z
m-4288 -62 c44 -20 54 -34 54 -79 0 -34 -30 -61 -95 -86 -70 -26 -75 -20 -75
97 l0 101 38 -7 c20 -4 56 -15 78 -26z m1524 6 c0 -12 -24 -14 -154 -14 -164
1 -209 6 -200 20 3 5 84 9 180 9 147 0 174 -2 174 -15z m458 6 c6 -1 12 -5 12
-11 0 -6 -78 -10 -215 -10 -196 0 -228 4 -208 23 5 5 304 3 411 -2z m1719 -26
c9 -24 -1 -27 -15 -5 -8 13 -8 20 -2 20 6 0 13 -7 17 -15z m-3843 -57 c4 -37
2 -58 -4 -58 -6 0 -10 27 -10 62 0 74 5 73 14 -4z m548 10 c-7 -7 -12 -8 -12
-2 0 14 12 26 19 19 2 -3 -1 -11 -7 -17z m1395 6 c-3 -3 -12 -4 -19 -1 -8 3
-5 6 6 6 11 1 17 -2 13 -5z m-682 -14 c3 -5 1 -10 -4 -10 -6 0 -11 5 -11 10 0
6 2 10 4 10 3 0 8 -4 11 -10z m-1443 -80 c-2 -19 -10 -42 -17 -50 -19 -22 -30
-70 -15 -70 6 0 8 -5 5 -10 -5 -8 -11 -7 -20 0 -19 16 -69 -13 -140 -79 -40
-38 -74 -53 -102 -47 -19 4 -38 0 -58 -14 -31 -21 -70 -26 -79 -12 -3 5 4 25
14 45 11 20 20 41 20 47 0 5 20 53 45 105 55 118 59 120 226 120 l124 0 -3
-35z m88 16 c0 -8 -5 -18 -10 -21 -6 -4 -19 -24 -30 -46 -14 -26 -27 -39 -41
-39 -22 0 -20 18 7 72 21 41 74 65 74 34z m465 -76 c0 -53 -3 -65 -17 -68 -24
-5 -68 42 -68 71 0 31 36 69 63 65 20 -3 22 -9 22 -68z m-408 43 c3 -7 -17
-26 -44 -42 -54 -34 -68 -26 -29 16 14 15 26 32 26 36 0 13 43 4 47 -10z m663
-55 c0 -10 -7 -18 -15 -18 -15 0 -21 40 -8 53 9 9 23 -13 23 -35z m-475 12 c8
-13 -5 -13 -25 0 -13 8 -13 10 2 10 9 0 20 -4 23 -10z m2615 -28 c0 -9 -5 -24
-10 -32 -7 -11 -10 -5 -10 23 0 23 4 36 10 32 6 -3 10 -14 10 -23z m-2740 8
c0 -6 -12 -15 -26 -20 -14 -6 -44 -23 -67 -38 -63 -43 -67 -45 -67 -30 1 13
97 77 135 90 11 3 21 6 23 7 1 1 2 -4 2 -9z m1237 -27 c-3 -10 -5 -4 -5 12 0
17 2 24 5 18 2 -7 2 -21 0 -30z m-1877 -3 c0 -5 -17 -28 -37 -52 -21 -24 -45
-55 -54 -68 -24 -35 -32 -20 -13 21 37 74 104 139 104 99z m760 -23 c3 -1 15
2 27 7 25 8 73 -18 73 -39 0 -17 48 -24 78 -11 16 7 26 6 30 -1 4 -5 14 -13
22 -16 8 -3 -20 -6 -62 -6 -45 -1 -78 -5 -78 -11 0 -7 157 -10 448 -11 246 -1
492 -4 547 -8 l99 -6 8 -30 c4 -16 10 -47 13 -68 5 -29 10 -37 23 -35 12 2 22
23 32 68 l16 65 86 3 c82 3 86 2 92 -20 9 -37 7 -153 -4 -164 -6 -6 -160 -9
-427 -7 -230 2 -631 4 -890 6 -260 2 -475 5 -477 8 -2 2 -7 46 -11 97 l-8 93
84 -3 84 -3 17 -68 c18 -77 21 -82 43 -74 14 6 16 16 19 102 2 40 14 45 107
45 58 0 88 4 84 10 -3 6 -40 10 -82 10 -59 0 -78 4 -88 17 -8 11 -26 16 -60
15 -49 0 -50 7 -3 33 19 11 97 12 158 2z m-385 -17 c-3 -5 -11 -10 -16 -10 -6
0 -7 5 -4 10 3 6 11 10 16 10 6 0 7 -4 4 -10z m1780 -50 c3 -5 1 -10 -4 -10
-6 0 -11 5 -11 10 0 6 2 10 4 10 3 0 8 -4 11 -10z m1212 -12 c-3 -8 -6 -5 -6
6 -1 11 2 17 5 13 3 -3 4 -12 1 -19z m-3063 -13 c-23 -17 -34 -19 -34 -5 0 11
42 31 49 24 3 -2 -4 -11 -15 -19z m5156 -25 c0 -5 -7 -10 -15 -10 -8 0 -15 5
-15 10 0 6 7 10 15 10 8 0 15 -4 15 -10z m688 -2 c-6 -18 -28 -21 -28 -4 0 9
7 16 16 16 9 0 14 -5 12 -12z m865 -63 c42 -41 77 -80 77 -87 -1 -7 -16 -31
-34 -52 l-34 -40 -60 27 c-33 15 -66 27 -74 27 -18 0 -78 67 -78 86 0 8 -16
24 -34 35 -32 18 -34 23 -24 44 9 21 19 25 72 28 34 2 72 4 86 5 19 1 45 -17
103 -73z m-6692 45 c-13 -11 -28 -20 -35 -20 -6 1 0 10 13 20 13 11 28 20 35
20 6 -1 0 -10 -13 -20z m-481 -44 c0 -58 -3 -62 -62 -65 -27 -1 -28 1 -28 52
0 30 3 57 7 60 3 4 24 7 45 7 l38 0 0 -54z m90 35 c0 -6 -4 -13 -10 -16 -5 -3
-10 1 -10 9 0 9 5 16 10 16 6 0 10 -4 10 -9z m290 -40 c0 -17 -10 -20 -67 -26
-38 -4 -85 -11 -105 -15 -30 -6 -38 -5 -38 6 0 8 -4 14 -10 14 -5 0 -10 4 -10
8 0 5 26 9 58 11 31 1 75 6 97 10 65 14 75 13 75 -8z m133 -2 c6 -9 7 -24 3
-35 -6 -16 -9 -16 -33 8 -26 26 -24 52 4 46 9 -2 20 -10 26 -19z m2180 -18
c15 -15 -53 -21 -99 -10 -25 7 -61 9 -82 7 -24 -4 -42 -1 -50 8 -11 12 6 13
105 9 64 -3 121 -9 126 -14z m417 10 c0 -9 -77 -20 -197 -27 -46 -3 -83 -1
-83 4 0 10 127 28 218 30 34 1 62 -2 62 -7z m-300 -21 c11 -7 7 -10 -17 -10
-18 0 -33 5 -33 10 0 13 30 13 50 0z m-2420 -49 c0 -12 -36 -18 -70 -12 -22 4
-23 5 -5 12 28 11 75 11 75 0z m906 -43 c4 -5 -142 -8 -324 -8 -182 0 -333 3
-335 8 -3 4 143 7 323 7 181 0 332 -3 336 -7z m59 2 c-3 -5 -16 -10 -28 -10
-18 0 -19 2 -7 10 20 13 43 13 35 0z m73 -7 c-10 -2 -28 -2 -40 0 -13 2 -5 4
17 4 22 1 32 -1 23 -4z m2257 -3 c4 -7 -213 -10 -639 -10 -359 0 -647 4 -650
9 -3 5 272 9 639 10 418 0 646 -3 650 -9z m-3666 -16 c5 -5 -30 -32 -71 -54
-15 -8 -91 -52 -169 -97 -77 -46 -145 -83 -150 -83 -5 0 -21 -7 -34 -16 -28
-18 -108 -22 -127 -7 -7 6 -30 13 -50 17 -35 6 -38 5 -38 -17 0 -21 -9 -27
-64 -46 -35 -12 -71 -18 -81 -15 -11 5 -25 -2 -41 -20 -14 -14 -29 -26 -35
-26 -5 0 -14 -11 -19 -25 -11 -30 -20 -31 -85 -6 -69 26 -148 35 -175 21 -44
-23 -45 -90 -2 -117 9 -5 53 -20 97 -33 44 -13 82 -25 84 -26 2 -2 -2 -10 -9
-19 -8 -10 -17 -12 -29 -5 -9 5 -36 11 -60 13 -23 2 -47 9 -54 16 -6 6 -22 11
-34 11 -26 0 -83 26 -83 38 0 52 112 224 205 314 77 75 249 167 315 168 14 0
35 6 47 13 16 9 104 11 340 9 175 -2 320 -5 322 -8z m4196 2 c22 -22 243 -26
1569 -26 1170 0 1251 -2 1269 -18 10 -9 25 -29 33 -44 8 -16 21 -28 29 -28 14
0 64 -44 219 -193 l81 -77 -45 19 c-25 10 -61 35 -81 55 -19 20 -41 36 -47 36
-7 0 -21 6 -32 12 -17 11 -22 9 -36 -11 -16 -22 -22 -23 -84 -19 -37 3 -81 12
-98 21 -30 15 -32 14 -49 -9 -15 -20 -27 -25 -73 -26 -32 -1 -73 6 -99 16 -43
17 -44 17 -68 -6 -20 -19 -35 -23 -86 -22 -94 1 -131 6 -146 17 -10 9 -18 6
-31 -11 -21 -25 -69 -29 -165 -11 -51 9 -59 9 -67 -6 -17 -30 -53 -35 -145
-20 -80 13 -89 13 -100 -2 -10 -13 -26 -15 -97 -10 -47 3 -95 11 -106 17 -17
9 -27 8 -47 -5 -28 -19 -118 -17 -191 5 -37 11 -45 10 -61 -4 -21 -20 -82 -21
-119 -2 -51 25 -94 28 -116 7 -12 -10 -30 -21 -41 -24 -19 -4 -18 -5 2 -6 44
-2 34 -21 -11 -21 -48 0 -72 16 -34 23 22 3 22 4 3 11 -11 4 -30 12 -41 18
-12 6 -35 11 -51 12 -16 2 -35 6 -42 10 -8 5 -20 0 -32 -13 -24 -26 -98 -29
-134 -5 -13 9 -29 13 -34 10 -6 -4 -19 -1 -30 6 -18 11 -23 9 -41 -10 -29 -31
-100 -30 -176 4 l-58 26 -21 -26 c-18 -22 -29 -26 -73 -26 -29 0 -63 6 -75 14
-12 8 -37 17 -55 21 -28 6 -36 3 -48 -14 -12 -17 -26 -21 -69 -21 -30 0 -56 4
-59 9 -3 4 -26 14 -50 21 -41 11 -47 10 -76 -10 -36 -26 -65 -24 -153 10 -46
17 -61 19 -72 10 -8 -7 -15 -19 -15 -26 0 -21 -66 -17 -137 8 l-63 23 -15 -23
c-24 -33 -105 -29 -192 11 -18 8 -27 6 -42 -7 -28 -25 -115 -24 -175 3 l-49
21 -23 -21 c-19 -18 -31 -20 -81 -16 -32 2 -77 10 -101 17 -37 11 -45 10 -61
-4 -34 -31 -191 -11 -191 25 0 17 -27 9 -48 -16 -18 -21 -31 -25 -75 -25 -30
0 -67 6 -83 14 -56 27 -72 28 -84 6 -9 -17 -20 -20 -68 -20 -33 0 -66 6 -77
14 -11 7 -38 19 -60 25 -34 9 -42 8 -60 -9 -26 -25 -109 -27 -151 -5 -36 18
-74 19 -107 2 -33 -17 -119 -13 -159 8 -40 20 -54 19 -77 -4 -22 -22 -80 -23
-174 -1 -51 11 -59 11 -75 -4 -32 -28 -129 -18 -205 21 -25 13 -29 13 -45 -7
-23 -29 -97 -38 -138 -17 -46 23 -111 31 -121 14 -12 -21 -79 -28 -127 -13
-65 21 -102 26 -114 14 -17 -17 -106 -10 -163 13 -47 18 -54 18 -75 4 -26 -16
-129 -21 -139 -6 -3 5 -20 13 -37 17 -18 3 -40 11 -49 17 -12 8 -21 5 -39 -13
-19 -19 -29 -21 -73 -15 -28 3 -56 10 -62 14 -18 14 -88 21 -101 10 -7 -6 -28
-9 -46 -7 l-33 3 45 27 c25 14 103 58 174 97 l129 72 1266 -8 c2058 -12 2224
-12 2240 -4 7 5 -402 12 -910 15 -508 4 -1007 9 -1109 11 -102 1 -465 3 -808
4 -646 1 -664 2 -588 40 33 15 80 15 2432 5 864 -4 1548 -3 1555 2 10 6 6 10
-16 15 -29 6 -29 7 8 8 21 0 45 -5 52 -13z m118 7 c-7 -2 -19 -2 -25 0 -7 3
-2 5 12 5 14 0 19 -2 13 -5z m537 -9 c0 -2 -21 -4 -47 -3 -37 1 -42 3 -23 8
24 7 70 3 70 -5z m-337 -1 c-7 -2 -19 -2 -25 0 -7 3 -2 5 12 5 14 0 19 -2 13
-5z m180 0 c-7 -2 -19 -2 -25 0 -7 3 -2 5 12 5 14 0 19 -2 13 -5z m425 0 c-10
-2 -26 -2 -35 0 -10 3 -2 5 17 5 19 0 27 -2 18 -5z m829 1 c-3 -3 -12 -4 -19
-1 -8 3 -5 6 6 6 11 1 17 -2 13 -5z m1321 -6 c12 -12 17 -88 6 -88 -12 0 -84
46 -84 54 0 15 33 45 51 45 8 1 20 -4 27 -11z m-7189 -27 c-101 -65 -160 -101
-167 -101 -4 0 -23 -11 -42 -23 -40 -27 -185 -107 -194 -107 -17 0 -2 18 27
33 17 10 55 30 82 46 28 16 73 42 100 56 28 15 63 37 79 48 45 32 130 77 145
77 8 0 -5 -13 -30 -29z m7071 -22 c35 -22 169 -98 225 -128 74 -41 145 -86
145 -94 0 -5 -18 -31 -39 -58 l-39 -50 -39 33 c-94 81 -330 307 -325 312 11
11 38 6 72 -15z m-7100 -259 c0 -5 -5 -10 -11 -10 -5 0 -7 5 -4 10 3 6 8 10
11 10 2 0 4 -4 4 -10z m-67 -7 c-7 -2 -19 -2 -25 0 -7 3 -2 5 12 5 14 0 19 -2
13 -5z m7104 1 c-3 -3 -12 -4 -19 -1 -8 3 -5 6 6 6 11 1 17 -2 13 -5z m-7647
-9 c0 -4 -8 -20 -17 -38 l-17 -32 -6 30 c-4 17 -5 33 -3 38 5 8 43 10 43 2z
m110 -5 c18 -10 18 -12 -7 -72 -33 -83 -38 -88 -87 -88 -23 0 -55 -9 -74 -20
-50 -30 -48 -31 -134 46 -16 13 -28 28 -28 32 0 9 85 67 113 78 12 4 21 -4 34
-30 17 -36 33 -47 33 -24 0 7 11 -4 25 -25 14 -20 32 -37 40 -37 7 0 27 18 45
40 30 37 30 40 16 68 -20 39 -11 51 24 32z m715 0 c3 -6 -5 -10 -19 -10 -14 0
-28 5 -31 10 -3 6 5 10 19 10 14 0 28 -4 31 -10z m-455 -17 c0 -10 -18 -58
-26 -71 -3 -5 -84 76 -84 83 0 3 25 4 55 3 36 -1 55 -7 55 -15z m295 -13 c7
-6 16 -32 20 -59 l6 -47 -60 -63 c-34 -35 -76 -91 -94 -124 l-32 -60 -53 -4
-52 -4 3 63 c3 43 -2 82 -14 123 -27 88 -25 118 13 161 l32 37 109 -6 c60 -3
114 -11 122 -17z m655 10 c0 -5 -9 -10 -20 -10 -11 0 -20 5 -20 10 0 6 9 10
20 10 11 0 20 -4 20 -10z m290 -2 c0 -4 -37 -8 -82 -7 -52 0 -75 3 -63 8 26
11 145 10 145 -1z m210 -4 c0 -2 -26 -3 -57 -3 -49 1 -53 3 -23 8 33 6 80 3
80 -5z m5168 4 c-5 -13 -88 -21 -88 -8 0 5 19 11 43 13 23 2 44 4 45 5 2 1 2
-3 0 -10z m-6930 -31 c2 -15 -1 -27 -6 -27 -17 0 -34 29 -28 46 9 23 31 11 34
-19z m215 -52 c18 -19 18 -20 -8 -43 -15 -12 -25 -28 -22 -35 3 -7 -4 -24 -14
-38 -30 -40 -24 -55 27 -68 39 -10 50 -9 70 3 14 10 25 12 29 6 12 -19 -5 -29
-59 -35 -73 -9 -93 -1 -105 42 -6 20 -27 53 -47 74 -34 35 -35 38 -21 65 14
27 15 27 21 6 10 -29 53 -40 74 -19 37 37 -29 91 -67 55 -11 -11 -12 -8 -6 17
12 55 23 58 69 23 22 -18 49 -42 59 -53z m1832 74 c-7 -11 -130 -8 -142 4 -3
4 28 7 71 7 52 0 75 -3 71 -11z m225 1 c0 -5 -22 -10 -49 -10 -28 0 -53 5 -56
10 -4 6 15 10 49 10 31 0 56 -4 56 -10z m263 -1 c-8 -8 -16 -8 -30 0 -16 9
-14 10 12 11 21 0 26 -3 18 -11z m232 -9 c-3 -5 -26 -7 -53 -5 -65 4 -71 6
-43 14 30 8 102 1 96 -9z m1025 16 c0 -3 -4 -8 -10 -11 -5 -3 -10 -1 -10 4 0
6 5 11 10 11 6 0 10 -2 10 -4z m1196 -22 c-5 -13 -18 -15 -78 -12 -45 2 -72
-1 -75 -8 -2 -7 8 -9 27 -6 16 2 41 1 56 -2 l26 -7 -24 -18 c-12 -10 -41 -28
-63 -39 -67 -35 -168 -140 -211 -219 -25 -48 -45 -73 -56 -73 -21 0 -24 -16
-5 -23 6 -2 8 -8 4 -13 -4 -4 -16 -3 -26 3 -9 6 -30 8 -46 6 -19 -4 -26 -2
-21 6 4 6 21 11 37 11 18 0 28 4 24 10 -4 6 -24 9 -46 8 l-40 -3 -40 75 c-47
87 -96 141 -196 217 -40 29 -73 56 -73 58 0 3 23 5 50 5 38 0 50 -4 50 -15 0
-19 10 -19 37 0 18 12 45 15 134 11 122 -4 122 -4 139 -71 19 -75 42 -109 80
-116 20 -5 40 -3 48 3 17 14 50 90 58 134 5 28 13 38 35 46 16 5 29 16 29 24
0 11 17 14 74 14 42 0 78 5 81 11 10 15 19 3 11 -17z m2329 17 c3 -6 -16 -32
-43 -58 -73 -73 -102 -123 -128 -221 -30 -112 -5 -259 60 -354 45 -67 43 -70
-26 -63 -76 8 -76 9 -71 38 5 27 -22 195 -40 247 -45 132 -167 264 -313 339
l-57 29 69 6 c38 4 85 8 105 10 60 6 99 -22 123 -89 38 -105 103 -124 150 -42
13 23 27 58 30 78 8 44 16 52 76 72 54 19 57 20 65 8z m95 -1 c0 -5 -11 -12
-25 -16 -14 -3 -25 -10 -25 -15 0 -5 -6 -9 -12 -9 -7 0 0 12 15 25 29 26 47
32 47 15z m145 -21 c-13 -57 44 -90 85 -49 14 14 18 27 14 50 -6 25 -3 30 13
30 28 0 115 -30 134 -46 8 -8 20 -14 25 -14 16 0 104 -81 104 -96 0 -8 -10
-14 -25 -14 -34 0 -53 -39 -37 -75 14 -30 61 -35 87 -9 19 19 18 20 39 -30 15
-35 22 -86 12 -86 -2 0 -20 16 -39 35 -29 29 -42 35 -76 35 -26 0 -41 5 -41
13 0 6 -9 23 -19 36 -18 24 -18 25 0 56 26 43 11 98 -34 126 -42 25 -83 17
-122 -25 -26 -28 -37 -33 -82 -35 -43 -1 -53 2 -58 18 -7 23 -64 61 -91 61
-10 0 -33 -14 -51 -32 -26 -26 -33 -40 -33 -72 0 -22 7 -47 15 -57 15 -15 13
-21 -15 -63 -27 -39 -35 -45 -56 -40 -19 5 -32 -2 -60 -30 -42 -42 -51 -41
-35 5 6 18 11 42 11 55 0 30 16 39 36 20 8 -9 24 -16 35 -16 22 0 59 34 59 55
0 23 -41 56 -62 49 -16 -5 -17 -3 -7 19 27 60 179 152 257 156 21 1 23 -2 17
-30z m-6761 14 c4 -4 -24 -22 -61 -39 -37 -18 -71 -30 -74 -26 -4 4 -9 22 -12
40 l-6 32 73 0 c40 0 76 -3 80 -7z m1839 0 c-7 -2 -19 -2 -25 0 -7 3 -2 5 12
5 14 0 19 -2 13 -5z m1780 -3 c37 -1 47 -3 36 -10 -20 -11 -119 -1 -119 12 0
6 7 7 16 4 9 -3 39 -6 67 -6z m1050 1 c4 -1 7 -5 7 -11 0 -13 -147 -13 -155
-1 -7 12 77 19 148 12z m-1238 -10 c-18 -7 -55 -4 -55 5 0 2 17 4 38 3 28 0
32 -2 17 -8z m476 0 c-18 -12 -83 -12 -101 0 -10 6 7 9 50 9 41 0 60 -4 51 -9z
m486 3 c-3 -3 -12 -4 -19 -1 -8 3 -5 6 6 6 11 1 17 -2 13 -5z m722 -10 c2 -2
-20 -4 -50 -3 -41 1 -48 3 -29 9 22 7 68 3 79 -6z m729 9 c-10 -2 -28 -2 -40
0 -13 2 -5 4 17 4 22 1 32 -1 23 -4z m532 2 c0 -2 -5 -17 -11 -32 -6 -15 -15
-37 -19 -48 -23 -61 -31 -76 -45 -81 -27 -11 -61 22 -75 70 -7 25 -21 53 -32
63 -20 18 -20 18 8 24 34 8 174 11 174 4z m458 -21 c2 -15 -3 -23 -17 -27 -25
-6 -44 14 -35 37 9 24 48 16 52 -10z m-8134 -9 c53 -14 98 -25 101 -25 14 0 2
-59 -15 -75 -18 -17 -22 -17 -92 0 -74 18 -138 55 -138 80 0 10 35 45 46 45 1
0 45 -11 98 -25z m1698 -1 c69 -16 177 -81 236 -141 255 -261 217 -672 -81
-875 -94 -64 -144 -83 -286 -109 -38 -7 -57 -6 -67 2 -7 6 -18 8 -24 4 -11 -7
-109 10 -145 24 -117 47 -177 88 -249 172 -99 115 -136 217 -136 372 0 104 14
162 67 273 29 62 128 168 197 212 134 84 307 108 488 66z m368 18 c31 -2 38
-7 48 -35 7 -18 12 -44 12 -56 0 -31 61 -91 92 -91 34 0 62 34 93 111 25 63
28 67 63 72 60 9 225 -2 234 -16 13 -20 10 -24 -34 -54 -81 -55 -139 -118
-186 -203 -47 -83 -48 -85 -83 -82 -40 4 -127 -30 -135 -53 -9 -22 -23 -19
-33 8 -31 80 -87 182 -123 225 -39 45 -149 142 -162 142 -3 0 -19 8 -35 18
-30 18 -30 18 92 17 67 -1 138 -3 157 -3z m222 -30 c-3 -38 -33 -102 -57 -122
-26 -21 -72 31 -84 95 -5 27 -8 52 -6 55 2 3 36 5 77 5 l73 -1 -3 -32z m383
29 c7 -12 -12 -24 -25 -16 -11 7 -4 25 10 25 5 0 11 -4 15 -9z m4015 0 c0 -5
-6 -12 -12 -14 -8 -3 -6 -6 5 -6 18 -1 22 -18 9 -37 -4 -6 -33 -32 -66 -59
-62 -50 -75 -49 -76 5 0 14 -7 38 -15 54 -20 37 -21 36 23 37 20 0 31 3 25 6
-31 12 -8 23 47 23 33 0 60 -4 60 -9z m140 -1 c0 -5 -9 -10 -20 -10 -11 0 -20
5 -20 10 0 6 9 10 20 10 11 0 20 -4 20 -10z m-3740 -26 c255 -71 442 -361 400
-621 -37 -234 -195 -415 -415 -479 -70 -20 -257 -22 -326 -4 -116 32 -232 116
-314 229 -88 122 -117 300 -76 461 30 113 69 180 159 269 80 79 175 132 282
157 67 15 213 9 290 -12z m210 5 c0 -11 -5 -29 -10 -39 -10 -18 -13 -17 -70
17 -33 19 -60 37 -60 39 0 2 32 4 70 4 64 0 70 -2 70 -21z m285 1 c6 -5 24
-36 39 -67 46 -101 51 -108 79 -117 24 -9 31 -6 61 23 20 20 38 50 45 75 6 24
20 55 31 69 21 27 22 27 161 27 136 0 170 -9 116 -29 -84 -32 -212 -157 -261
-255 l-35 -69 -48 -3 c-26 -1 -60 -7 -75 -13 -33 -12 -58 -66 -58 -123 0 -33
7 -47 39 -79 21 -22 53 -42 70 -45 65 -13 27 -24 -76 -23 -139 2 -146 4 -138
38 3 15 -1 65 -9 112 -27 150 -72 245 -164 342 -50 53 -54 61 -49 93 3 20 10
41 16 48 12 14 238 11 256 -4z m225 6 c0 -10 -32 -95 -47 -123 -33 -63 -73
-48 -101 37 -11 30 -22 63 -27 73 -6 15 1 17 84 17 50 0 91 -2 91 -4z m765
-13 c11 -5 54 -26 95 -46 127 -61 236 -193 280 -336 22 -71 27 -224 9 -301
-22 -95 -78 -191 -159 -271 -79 -77 -139 -113 -254 -151 -79 -26 -237 -29
-283 -5 -18 10 -37 17 -43 17 -11 0 -79 28 -129 53 -41 20 -157 134 -191 187
-18 28 -43 85 -57 128 -23 69 -25 88 -19 187 8 171 51 270 166 386 77 77 142
118 240 151 45 15 79 18 190 15 74 -2 144 -8 155 -14z m673 2 c1 -1 -7 -32
-18 -68 -31 -101 -75 -120 -107 -48 -17 40 -33 112 -27 122 3 6 145 0 152 -6z
m757 -1 c41 -27 32 -47 -10 -23 -19 12 -32 25 -29 30 7 12 11 12 39 -7z m-131
-15 c39 -12 89 -30 111 -41 26 -14 40 -17 43 -9 2 6 11 11 19 11 12 0 14 7 10
30 l-6 30 94 0 c52 0 95 -1 95 -3 0 -2 -9 -21 -19 -43 -11 -22 -22 -56 -26
-77 -9 -44 -31 -49 -65 -12 -24 25 -50 33 -50 15 0 -5 14 -24 30 -42 87 -94
139 -199 161 -322 25 -147 -21 -315 -120 -432 -70 -83 -119 -123 -197 -162
-109 -55 -242 -81 -322 -63 -29 6 -56 10 -60 9 -13 -4 -87 23 -151 55 -91 45
-209 163 -249 247 -107 225 -62 488 115 664 65 64 138 108 243 146 80 28 247
28 344 -1z m616 6 c7 -9 23 -46 36 -83 l23 -67 -28 -30 c-16 -16 -45 -62 -65
-100 l-36 -70 -71 1 -72 0 -29 64 c-16 35 -36 72 -45 82 -15 17 -15 21 -1 46
8 15 23 53 33 85 10 32 27 65 39 73 30 21 199 20 216 -1z m673 -3 c7 -5 32
-16 56 -26 47 -18 138 -78 187 -122 144 -131 209 -360 154 -544 -58 -196 -171
-322 -356 -397 -65 -26 -78 -28 -214 -28 -133 1 -150 3 -207 27 -162 68 -284
200 -339 368 -22 69 -23 230 -1 311 32 118 112 242 198 305 19 13 39 30 44 37
11 13 50 30 125 54 25 8 56 18 70 23 31 11 267 5 283 -8z m667 13 c0 -2 -10
-9 -22 -15 -22 -11 -22 -10 -4 4 21 17 26 19 26 11z m-7180 -36 c0 -5 -7 -9
-15 -9 -15 0 -20 12 -9 23 8 8 24 -1 24 -14z m7646 -24 c14 -21 15 -31 6 -51
-15 -31 -37 -40 -68 -26 -18 9 -24 19 -24 43 0 57 57 79 86 34z m-302 9 c33
-13 10 -94 -27 -94 -24 0 -57 31 -57 54 0 39 38 58 84 40z m-7773 -29 c0 -6
-10 -12 -23 -13 -19 -4 -20 -2 -9 12 15 17 33 18 32 1z m8266 -7 c-3 -8 -6 -5
-6 6 -1 11 2 17 5 13 3 -3 4 -12 1 -19z m-7717 2 c0 -5 -7 -10 -16 -10 -8 0
-12 5 -9 10 3 6 10 10 16 10 5 0 9 -4 9 -10z m6955 -51 c-13 -24 -25 -40 -25
-36 0 13 41 89 46 84 2 -2 -7 -24 -21 -48z m416 41 c36 -20 22 -37 -33 -43
-29 -2 -55 -3 -57 -1 -2 2 0 14 6 27 12 25 52 33 84 17z m-7621 -9 c0 -4 -11
-6 -25 -3 -14 2 -25 6 -25 8 0 2 11 4 25 4 14 0 25 -4 25 -9z m-289 -22 c25
-13 16 -29 -17 -29 -26 0 -27 1 -18 24 7 19 9 19 35 5z m534 -29 c0 -22 -4
-25 -33 -23 -44 2 -49 9 -27 33 26 29 60 23 60 -10z m7684 12 c12 -22 -3 -42
-31 -42 -24 0 -34 26 -18 45 17 20 37 19 49 -3z m-7904 -14 c30 -26 48 -90 35
-124 -13 -33 -84 -67 -125 -60 -32 6 -77 46 -89 80 -11 31 13 83 47 105 43 28
99 27 132 -1z m7286 6 c11 -14 10 -18 -6 -30 -22 -16 -25 -17 -44 -5 -18 12
-5 51 18 51 10 0 25 -7 32 -16z m704 -14 c3 -5 1 -10 -4 -10 -6 0 -11 5 -11
10 0 6 2 10 4 10 3 0 8 -4 11 -10z m-402 -7 c-7 -2 -19 -2 -25 0 -7 3 -2 5 12
5 14 0 19 -2 13 -5z m-7878 -26 l54 9 -1 -40 c-1 -23 2 -55 6 -73 7 -30 4 -33
-50 -69 l-56 -37 -19 24 c-20 26 -43 115 -33 130 3 5 21 9 40 9 44 0 42 23 -2
28 -34 4 -49 16 -39 32 5 8 12 6 26 -6 16 -15 27 -16 74 -7z m7708 -2 c-3 -8
-9 -15 -13 -15 -4 0 -13 -20 -19 -45 -12 -49 -20 -55 -38 -26 -15 24 -9 59 15
81 33 31 67 34 55 5z m74 8 c-9 -9 -20 -13 -24 -9 -4 4 -1 11 7 16 25 16 35
11 17 -7z m189 -4 c9 -15 -23 -10 -35 5 -10 12 -8 13 9 9 11 -3 23 -9 26 -14z
m103 -21 c9 -25 8 -35 -2 -46 -12 -11 -17 -7 -36 28 -26 50 -26 50 3 50 18 0
27 -8 35 -32z m-8232 -10 c-3 -8 -6 -5 -6 6 -1 11 2 17 5 13 3 -3 4 -12 1 -19z
m8013 9 c0 -18 -80 -69 -97 -63 -12 5 -12 9 1 28 28 40 96 65 96 35z m97 -19
c36 -35 45 -62 16 -50 -42 18 -82 48 -87 64 -7 30 34 21 71 -14z m-232 -17
c-3 -12 -11 -19 -16 -16 -5 4 -5 14 2 26 13 26 23 18 14 -10z m299 3 c11 -28
6 -39 -9 -20 -8 11 -15 23 -15 28 0 14 18 9 24 -8z m-597 -26 c-3 -8 -6 -5 -6
6 -1 11 2 17 5 13 3 -3 4 -12 1 -19z m-6981 -13 c-32 -29 -32 -39 -4 -59 28
-20 33 -20 52 0 21 20 20 48 0 69 -16 15 -14 16 22 13 37 -3 39 -5 36 -33 -2
-31 -41 -115 -53 -115 -4 0 -12 7 -19 15 -15 18 -47 20 -52 3 -3 -8 -16 -6
-46 7 l-41 18 19 27 c11 15 24 39 30 54 8 22 16 26 46 26 l37 0 -27 -25z
m7471 3 c36 -34 27 -80 -21 -106 -22 -11 -75 1 -88 20 -25 40 13 108 61 108
13 0 35 -10 48 -22z m289 -23 c15 -23 15 -27 0 -50 -11 -17 -26 -25 -44 -25
-35 0 -52 16 -52 50 0 34 17 50 52 50 18 0 33 -8 44 -25z m-602 -1 c32 -32 13
-74 -34 -74 -32 0 -50 17 -50 47 0 39 55 57 84 27z m-7259 -13 c-3 -6 -11 -11
-17 -11 -6 0 -6 6 2 15 14 17 26 13 15 -4z m135 3 c0 -8 -4 -12 -10 -9 -5 3
-10 10 -10 16 0 5 5 9 10 9 6 0 10 -7 10 -16z m7290 -11 c0 -8 7 -27 16 -43
10 -16 14 -35 10 -45 -6 -17 -8 -17 -24 1 -36 38 -48 120 -16 107 8 -3 14 -12
14 -20z m230 -3 c0 -46 -18 -74 -66 -103 -45 -27 -78 -33 -102 -18 -22 14 8
29 63 33 48 3 50 4 56 38 11 70 49 109 49 50z m-290 -2 c0 -16 -3 -19 -11 -11
-6 6 -8 16 -5 22 11 17 16 13 16 -11z m-7050 2 c0 -5 -7 -10 -15 -10 -8 0 -15
5 -15 10 0 6 7 10 15 10 8 0 15 -4 15 -10z m7377 -22 c-3 -8 -6 -5 -6 6 -1 11
2 17 5 13 3 -3 4 -12 1 -19z m285 -70 c-2 -32 -8 -56 -12 -53 -9 6 -11 65 -3
115 9 57 21 6 15 -62z m-6267 72 c3 -5 -3 -10 -15 -10 -12 0 -18 5 -15 10 3 6
10 10 15 10 5 0 12 -4 15 -10z m5397 -105 c6 -22 22 -59 35 -83 31 -55 23 -67
-9 -15 -32 50 -45 87 -56 150 -11 61 -1 84 11 26 4 -21 13 -56 19 -78z m816
93 c0 -13 -7 -44 -15 -71 -14 -45 -15 -46 -36 -32 -43 30 -97 6 -97 -42 0 -18
9 -28 35 -39 42 -17 39 -27 -19 -73 -46 -37 -52 -39 -32 -9 24 34 20 81 -9
108 l-24 23 21 31 c12 17 23 32 24 34 1 2 17 6 36 9 44 7 84 31 97 60 13 29
20 29 19 1z m-8174 -8 c-10 -4 -21 -6 -24 -3 -8 7 24 22 34 16 5 -4 1 -10 -10
-13z m580 12 c7 -12 -7 -29 -31 -36 -29 -9 -29 -36 -3 -59 23 -20 18 -37 -10
-37 -22 0 -49 45 -44 75 6 37 73 81 88 57z m1326 -1 c0 -5 -7 -11 -15 -15 -8
-3 -24 -20 -35 -38 -17 -27 -20 -29 -20 -12 0 12 11 33 25 48 24 26 45 34 45
17z m1550 0 c0 -5 -20 -12 -44 -15 -31 -5 -49 -14 -60 -31 -36 -55 -12 -130
45 -142 35 -7 45 -19 23 -27 -21 -8 -70 19 -90 49 -12 19 -15 38 -10 73 8 60
49 102 101 102 19 0 35 -4 35 -9z m3979 -61 c17 -7 44 -10 59 -7 24 5 30 1 49
-35 23 -40 23 -40 3 -66 -24 -30 -25 -57 -5 -96 8 -15 15 -30 15 -32 0 -16
-99 70 -100 86 0 3 14 13 30 22 29 17 37 39 24 72 -7 19 -74 22 -92 4 -10 -10
-15 -10 -22 2 -5 8 -10 23 -10 33 0 10 -4 27 -10 37 -5 10 -7 26 -3 35 5 14 8
11 18 -12 7 -17 26 -35 44 -43z m-7286 53 c-7 -2 -19 -2 -25 0 -7 3 -2 5 12 5
14 0 19 -2 13 -5z m7442 -40 c9 -21 23 -45 32 -55 21 -24 10 -34 -22 -20 -29
13 -58 72 -49 96 10 26 23 19 39 -21z m-7477 9 c47 -5 53 -11 73 -90 11 -46
11 -55 -1 -62 -20 -13 -82 -12 -115 0 -22 8 -26 15 -21 34 3 13 2 26 -2 30 -4
4 -7 30 -7 57 0 40 3 48 15 42 8 -3 34 -8 58 -11z m104 -4 c-7 -7 -12 -8 -12
-2 0 14 12 26 19 19 2 -3 -1 -11 -7 -17z m1753 -3 c0 -14 -6 -19 -18 -17 -22
4 -47 -15 -47 -34 0 -8 11 -19 25 -24 27 -10 30 -17 17 -38 -7 -10 -15 -10
-36 -3 -70 27 -46 146 28 139 23 -2 31 -8 31 -23z m5665 4 c7 -11 9 -23 6 -26
-8 -9 -36 17 -36 33 0 21 18 17 30 -7z m360 -19 c0 -21 -61 -70 -86 -70 -15 0
-13 5 8 28 15 15 32 40 38 56 9 23 13 26 25 16 8 -7 15 -20 15 -30z m-4546 21
c10 -16 -5 -40 -27 -43 -31 -4 -37 -48 -7 -48 16 0 21 -5 18 -22 -4 -30 -20
-32 -51 -8 -42 33 -34 106 13 123 24 9 48 8 54 -2z m1294 -4 c8 -9 8 -26 1
-57 -12 -54 -26 -72 -53 -68 -29 4 -26 31 4 38 16 4 25 13 25 25 0 16 -6 20
-32 19 -24 -1 -33 3 -37 19 -3 11 -3 24 0 29 8 13 80 9 92 -5z m1277 -13 c48
-31 28 -134 -26 -134 -27 0 -24 33 4 45 33 15 28 40 -8 40 -25 1 -31 5 -33 27
-2 19 2 28 15 31 10 3 19 5 21 6 1 0 14 -6 27 -15z m1897 -6 c-7 -7 -12 -8
-12 -2 0 14 12 26 19 19 2 -3 -1 -11 -7 -17z m-7614 0 c18 -18 15 -55 -5 -62
-20 -8 -40 10 -48 47 -6 24 -4 27 17 27 13 0 29 -5 36 -12z m-402 -25 c-10
-10 -19 5 -10 18 6 11 8 11 12 0 2 -7 1 -15 -2 -18z m64 2 c0 -14 -4 -25 -10
-25 -5 0 -10 11 -10 25 0 14 5 25 10 25 6 0 10 -11 10 -25z m404 -6 c-8 -14
-24 -10 -24 6 0 9 6 12 15 9 8 -4 12 -10 9 -15z m152 -77 c-10 -10 -66 41 -66
59 0 17 6 14 35 -17 19 -20 33 -39 31 -42z m7180 51 c-7 -7 -26 7 -26 19 0 6
6 6 15 -2 9 -7 13 -15 11 -17z m-5801 -53 c38 -12 47 -30 16 -30 -32 0 -81 48
-80 78 l1 27 13 -32 c10 -21 25 -35 50 -43z m5965 60 c0 -5 -7 -10 -16 -10 -8
0 -12 5 -9 10 3 6 10 10 16 10 5 0 9 -4 9 -10z m245 -30 c0 -18 -6 -26 -23
-28 -24 -4 -38 18 -28 44 3 9 15 14 28 12 17 -2 23 -10 23 -28z m-7594 -50
c53 -15 53 -40 0 -40 -42 0 -130 45 -131 67 0 6 10 19 22 27 21 15 24 14 46
-14 14 -17 39 -34 63 -40z m6973 54 c8 -22 -1 -34 -28 -34 -30 0 -37 9 -25 31
12 23 45 25 53 3z m286 6 c0 -5 -4 -10 -10 -10 -5 0 -10 5 -10 10 0 6 5 10 10
10 6 0 10 -4 10 -10z m-7517 -14 c15 -12 15 -15 3 -25 -12 -10 -17 -8 -25 8
-19 34 -10 41 22 17z m-253 -6 c0 -5 -4 -10 -9 -10 -6 0 -13 5 -16 10 -3 6 1
10 9 10 9 0 16 -4 16 -10z m7833 -26 c-11 -29 -115 -32 -121 -4 -2 12 11 15
62 16 51 1 63 -1 59 -12z m-5993 -11 c11 -10 37 -23 57 -29 51 -15 51 -29 1
-28 -92 3 -88 1 -88 39 0 40 2 41 30 18z m6132 -9 c13 -29 5 -48 -28 -71 -18
-12 -24 -11 -47 8 -22 16 -26 26 -20 47 7 33 19 42 56 42 20 0 31 -7 39 -26z
m208 20 c0 -15 -73 -144 -82 -144 -5 0 -8 3 -6 8 48 102 88 164 88 136z m-522
-16 c16 -16 15 -53 0 -66 -27 -22 -59 -18 -76 10 -15 25 -15 28 3 47 20 23 55
27 73 9z m-7252 -33 c35 -22 67 -35 88 -35 19 0 41 -3 50 -6 24 -9 19 -34 -6
-34 -27 0 -57 -23 -87 -67 -22 -33 -64 -45 -86 -24 -9 7 -98 57 -177 98 -43
22 -42 31 4 43 24 6 66 21 93 35 28 13 54 24 58 24 4 1 33 -15 63 -34z m7422
-15 c10 -30 46 -60 79 -66 44 -8 42 -30 -4 -38 -73 -12 -81 -9 -85 26 -2 25
-10 36 -32 47 -40 19 -60 4 -64 -46 l-3 -41 -37 9 c-20 4 -49 10 -64 14 -39 8
-35 21 8 22 39 1 84 35 84 63 0 26 9 30 63 28 34 -2 51 -7 55 -18z m-3098 -5
c0 -16 -17 -19 -44 -9 -26 10 -18 24 14 24 20 0 30 -5 30 -15z m1300 -12 c0
-15 -56 -18 -64 -4 -8 12 -1 16 33 16 18 0 31 -5 31 -12z m1416 -10 c-7 -7
-26 7 -26 19 0 6 6 6 15 -2 9 -7 13 -15 11 -17z m-7331 -13 c3 -6 0 -10 -7
-10 -15 0 -38 19 -38 32 0 10 36 -8 45 -22z m1832 -5 c7 -2 15 -21 19 -42 10
-55 66 -170 111 -227 21 -28 66 -73 100 -100 60 -49 75 -77 51 -92 -19 -12
-221 -15 -249 -3 -30 12 -49 46 -49 87 0 59 -60 116 -105 98 -21 -8 -52 -63
-70 -122 -8 -29 -22 -55 -31 -58 -27 -10 -272 -7 -279 4 -4 6 11 18 32 28 110
50 211 154 269 278 20 43 41 87 45 96 5 10 9 27 9 37 0 16 8 21 38 23 35 4 84
0 109 -7z m1459 -1 c26 -4 33 -11 43 -47 14 -45 30 -84 65 -157 21 -46 109
-141 181 -198 l40 -31 -21 -21 c-19 -19 -32 -21 -139 -21 -89 -1 -121 3 -132
14 -8 7 -24 42 -36 77 -48 137 -138 129 -179 -15 -17 -61 -43 -80 -108 -79
-181 3 -169 0 -188 40 l-17 36 66 62 c37 34 82 87 101 117 33 51 73 149 80
194 3 16 13 21 48 25 68 8 161 10 196 4z m4674 -1 c0 -13 -33 -43 -48 -43 -12
0 -10 6 8 25 23 24 40 32 40 18z m-3328 -73 c47 -168 153 -300 304 -377 24
-13 44 -25 44 -28 0 -3 -41 -5 -90 -5 l-90 0 -19 42 c-11 24 -27 62 -37 86
-11 27 -29 49 -47 59 -29 14 -31 14 -59 -15 -18 -17 -39 -58 -53 -98 l-23 -69
-109 -3 c-132 -3 -148 0 -168 38 l-16 30 83 83 c83 82 133 164 168 272 18 56
18 56 58 53 34 -3 36 -5 54 -68z m3038 45 c0 -20 -5 -25 -24 -25 -14 0 -27 4
-30 9 -11 18 6 41 30 41 19 0 24 -5 24 -25z m-1741 -32 c21 -75 67 -166 118
-233 l47 -62 -13 -47 c-6 -25 -23 -57 -36 -70 -23 -23 -30 -24 -132 -22 -125
2 -134 8 -153 93 -6 30 -21 64 -35 78 l-25 26 42 59 c31 45 96 193 98 223 0 1
17 2 38 2 36 0 38 -2 51 -47z m1410 23 c24 -22 51 -38 99 -61 39 -18 49 -41
44 -95 -4 -34 -8 -40 -37 -50 -20 -7 -32 -16 -29 -24 6 -15 -28 -32 -76 -40
-33 -5 -32 -4 15 20 54 26 50 26 -38 -1 l-58 -18 -74 79 c-75 79 -75 79 -69
124 11 82 21 89 118 87 67 -2 89 -6 105 -21z m56 4 c10 -11 14 -20 9 -20 -12
1 -44 25 -44 34 0 12 17 6 35 -14z m-6927 -57 c18 -50 19 -63 9 -95 -7 -21
-17 -38 -22 -38 -6 0 -39 18 -73 40 l-61 40 20 34 c29 50 50 65 100 75 4 0 16
-25 27 -56z m-348 27 c0 -5 -4 -10 -10 -10 -5 0 -10 5 -10 10 0 6 5 10 10 10
6 0 10 -4 10 -10z m7400 -24 c30 -9 65 -16 78 -16 12 0 22 -4 22 -9 0 -16 -79
-2 -137 24 -60 27 -56 27 37 1z m285 -5 c-15 -15 -94 -30 -101 -20 -3 5 7 9
23 10 15 0 37 4 48 9 28 12 41 12 30 1z m-7599 -16 c10 -8 14 -15 8 -15 -5 0
-19 7 -30 15 -10 8 -14 15 -8 15 5 0 19 -7 30 -15z m7414 -41 l54 -7 -51 -23
c-28 -12 -65 -25 -82 -29 -31 -7 -31 -6 -31 35 0 41 1 42 29 37 15 -3 52 -9
81 -13z m-7094 -71 c32 -44 36 -53 24 -53 -16 0 -60 47 -60 65 0 23 14 18 36
-12z m6626 -6 c36 -37 79 -90 75 -93 -1 -1 -35 -13 -76 -28 -77 -27 -117 -33
-106 -16 3 5 -1 25 -9 44 -14 34 -14 36 15 72 16 20 29 41 29 45 0 21 42 6 72
-24z m475 17 c-16 -8 -36 -13 -45 -11 -11 2 -5 7 18 14 50 16 59 15 27 -3z
m-7026 -121 c27 -16 49 -31 49 -36 0 -6 -37 12 -104 50 -11 7 -15 13 -7 13 7
0 35 -12 62 -27z m1157 15 c16 -20 44 -127 38 -144 -7 -18 -115 -20 -139 -1
-16 11 -15 18 17 85 36 73 59 90 84 60z m1480 -25 c16 -24 54 -124 49 -129 -3
-3 -94 -6 -141 -5 -36 1 -38 2 -31 28 12 48 45 112 63 122 27 16 39 13 60 -16z
m3770 -14 l-3 -41 -74 -24 c-88 -29 -113 -27 -50 4 24 12 60 39 79 61 19 22
39 40 43 41 5 0 7 -18 5 -41z m-2272 -45 c19 -42 33 -78 32 -80 -3 -2 -106 -6
-145 -5 -28 1 -30 32 -6 93 22 58 31 68 60 68 20 0 29 -12 59 -76z m1002 -7
c5 -23 14 -52 17 -65 8 -23 7 -23 -76 -20 l-84 3 3 45 c2 39 8 50 44 82 l42
37 22 -20 c11 -10 26 -38 32 -62z m1479 47 c-3 -3 -12 -4 -19 -1 -8 3 -5 6 6
6 11 1 17 -2 13 -5z m-1016 -66 c36 -24 49 -39 47 -53 -3 -18 -12 -20 -81 -22
-92 -3 -97 2 -67 71 23 54 23 54 101 4z m-3411 -14 c6 -14 10 -27 10 -30 0 -2
-25 -4 -55 -4 -30 0 -55 4 -55 10 0 9 66 49 83 50 4 0 12 -12 17 -26z m2780 4
c-1 -31 -41 -58 -88 -58 -48 0 -45 12 10 41 59 31 78 35 78 17z m-1316 -14 c9
-24 4 -26 -50 -22 l-49 3 30 17 c38 22 61 22 69 2z m-2069 -4 c4 -6 -5 -10
-19 -10 -14 0 -26 5 -26 10 0 6 9 10 19 10 11 0 23 -4 26 -10z m1479 4 c26
-10 18 -24 -14 -24 -29 0 -38 9 -23 23 8 9 17 9 37 1z m2631 -34 c3 -5 1 -10
-4 -10 -6 0 -11 5 -11 10 0 6 2 10 4 10 3 0 8 -4 11 -10z m-5050 -10 c-3 -5
-17 -10 -31 -10 -13 0 -24 5 -24 10 0 6 14 10 31 10 17 0 28 -4 24 -10z m50 0
c-3 -5 -10 -10 -16 -10 -5 0 -9 5 -9 10 0 6 7 10 16 10 8 0 12 -4 9 -10z m280
0 c4 -6 -23 -10 -74 -10 -47 0 -81 4 -81 10 0 6 31 10 74 10 41 0 78 -4 81
-10z m215 -4 c0 -5 -17 -9 -37 -9 -63 1 -73 3 -73 13 0 7 21 10 55 8 30 -2 55
-7 55 -12z m268 2 c-8 -24 -118 -22 -118 2 0 6 27 10 61 10 44 0 60 -3 57 -12z
m232 -3 c0 -11 -13 -15 -54 -15 -51 0 -74 9 -59 24 3 3 30 6 60 6 40 0 53 -4
53 -15z m490 -4 c0 -5 -33 -11 -74 -13 -59 -2 -72 0 -64 10 12 14 138 17 138
3z m240 -7 c0 -2 -28 -3 -62 -3 -56 2 -58 3 -23 8 38 6 85 3 85 -5z m482 -6
c-6 -6 -36 -7 -78 -2 -64 8 -66 9 -29 14 56 7 119 0 107 -12z m223 12 c4 -6
-6 -10 -22 -9 -25 0 -26 1 -8 9 11 5 21 9 22 9 1 1 5 -3 8 -9z m3000 0 c-3 -5
-13 -10 -21 -10 -8 0 -12 5 -9 10 3 6 13 10 21 10 8 0 12 -4 9 -10z m-3476 -4
c-8 -8 -109 -12 -109 -4 0 4 26 8 57 8 31 0 54 -2 52 -4z m413 -8 c-9 -9 -15
-9 -24 0 -9 9 -7 12 12 12 19 0 21 -3 12 -12z m583 3 c-5 -9 -105 -5 -114 5
-2 2 24 4 58 4 35 0 60 -4 56 -9z m195 5 c0 -2 -7 -6 -15 -10 -8 -3 -15 -1
-15 4 0 6 7 10 15 10 8 0 15 -2 15 -4z m555 -6 c3 -5 -1 -10 -9 -10 -8 0 -18
5 -21 10 -3 6 1 10 9 10 8 0 18 -4 21 -10z m504 -6 c2 -2 -34 -4 -80 -3 -51 0
-76 3 -64 8 19 8 136 4 144 -5z m211 6 c0 -6 -26 -10 -57 -10 -41 0 -54 3 -43
10 20 13 100 13 100 0z m950 0 c-8 -5 -22 -10 -30 -10 -13 0 -13 1 0 10 8 5
22 10 30 10 13 0 13 -1 0 -10z m-1533 -6 c-3 -3 -12 -4 -19 -1 -8 3 -5 6 6 6
11 1 17 -2 13 -5z m776 -1 c-7 -2 -19 -2 -25 0 -7 3 -2 5 12 5 14 0 19 -2 13
-5z m342 -3 c3 -5 2 -10 -4 -10 -5 0 -13 5 -16 10 -3 6 -2 10 4 10 5 0 13 -4
16 -10z m125 -6 c0 -2 -9 -4 -21 -4 -11 0 -18 4 -14 10 5 8 35 3 35 -6z m73
-1 c-7 -2 -21 -2 -30 0 -10 3 -4 5 12 5 17 0 24 -2 18 -5z"/>
<path d="M8220 3588 c0 -35 24 -92 52 -123 31 -37 74 -47 84 -21 7 19 -53 134
-76 146 -26 14 -60 12 -60 -2z"/>
<path d="M5843 3558 c-28 -31 -65 -106 -58 -118 3 -6 16 -10 27 -10 54 0 126
101 98 135 -18 21 -43 18 -67 -7z"/>
<path d="M7399 3334 c-11 -14 -10 -18 6 -30 29 -21 787 -21 805 1 7 8 10 22 6
30 -5 13 -57 15 -404 15 -355 0 -401 -2 -413 -16z m538 -10 c-3 -3 -12 -4 -19
-1 -8 3 -5 6 6 6 11 1 17 -2 13 -5z"/>
<path d="M6407 2953 c-30 -34 -31 -70 -3 -97 47 -48 116 -20 116 48 0 29 -5
38 -30 51 -38 20 -63 19 -83 -2z m79 -38 c7 -27 -9 -55 -32 -55 -22 0 -44 41
-33 62 15 28 57 24 65 -7z"/>
<path d="M7121 2902 c-6 -11 -11 -33 -11 -47 0 -14 -4 -35 -10 -45 -11 -21 6
-32 37 -24 15 4 18 13 15 62 -4 65 -15 84 -31 54z"/>
<path d="M7253 2023 c9 -2 23 -2 30 0 6 3 -1 5 -18 5 -16 0 -22 -2 -12 -5z"/>
<path d="M7363 2023 c15 -2 37 -2 50 0 12 2 0 4 -28 4 -27 0 -38 -2 -22 -4z"/>
<path d="M7458 2023 c12 -2 30 -2 40 0 9 3 -1 5 -23 4 -22 0 -30 -2 -17 -4z"/>
<path d="M7563 2023 c9 -2 23 -2 30 0 6 3 -1 5 -18 5 -16 0 -22 -2 -12 -5z"/>
<path d="M7718 2023 c7 -3 16 -2 19 1 4 3 -2 6 -13 5 -11 0 -14 -3 -6 -6z"/>
<path d="M5638 2003 c7 -3 16 -2 19 1 4 3 -2 6 -13 5 -11 0 -14 -3 -6 -6z"/>
<path d="M6198 2003 c7 -3 16 -2 19 1 4 3 -2 6 -13 5 -11 0 -14 -3 -6 -6z"/>
<path d="M7945 1790 c-4 -6 140 -10 390 -10 228 0 394 4 391 9 -8 12 -774 13
-781 1z"/>
<path d="M9080 2380 c0 -5 7 -10 15 -10 8 0 15 5 15 10 0 6 -7 10 -15 10 -8 0
-15 -4 -15 -10z"/>
<path d="M7996 1638 c36 -10 1986 -16 1976 -6 -4 4 -456 8 -1006 10 -549 2
-986 0 -970 -4z"/>
<path d="M10003 1628 c-2 -5 179 -9 404 -9 224 -1 444 -2 488 -3 44 -1 98 1
120 5 22 4 -52 7 -165 9 -513 5 -842 4 -847 -2z"/>
<path d="M3659 1296 c-15 -32 -6 -54 26 -62 18 -5 32 -1 43 10 15 15 15 19 2
44 -21 37 -56 41 -71 8z m43 -21 c0 -5 -5 -11 -11 -13 -6 -2 -11 4 -11 13 0 9
5 15 11 13 6 -2 11 -8 11 -13z"/>
<path d="M4820 1262 c-102 -14 -225 -78 -296 -154 -109 -117 -139 -195 -139
-359 l1 -117 42 -83 c88 -176 232 -272 428 -286 157 -11 283 43 410 176 74 78
133 224 134 333 0 55 -25 144 -65 224 -91 187 -302 295 -515 266z m50 -88 c0
-17 -4 -24 -12 -20 -7 3 -21 9 -30 12 -32 11 -19 34 19 34 18 0 23 -5 23 -26z
m89 17 c11 -7 7 -13 -18 -25 -31 -16 -31 -16 -31 9 0 26 21 33 49 16z m104
-27 c9 -4 17 -15 17 -25 0 -31 -14 -28 -38 8 -12 19 -17 32 -10 29 7 -3 21 -9
31 -12z m-339 -26 c-15 -28 -17 -30 -27 -13 -7 14 -6 21 9 32 29 21 36 15 18
-19z m-19 -76 c-2 -2 -14 3 -27 11 -12 8 -35 13 -50 12 -37 -5 -35 5 5 31 l32
22 22 -36 c12 -20 21 -38 18 -40z m303 66 c32 -32 -4 -87 -47 -73 -27 8 -34
34 -16 61 17 26 44 31 63 12z m-180 -10 c19 -19 14 -46 -13 -64 -28 -18 -49
-9 -60 27 -13 39 43 67 73 37z m333 -18 l24 -20 -32 2 c-24 2 -33 7 -33 20 0
23 12 23 41 -2z m-486 -60 c41 -46 -20 -105 -66 -64 -24 22 -24 39 1 64 25 25
42 25 65 0z m-109 -6 c-3 -9 -6 -24 -6 -35 0 -10 -6 -19 -14 -19 -24 0 -28 18
-9 45 20 27 38 33 29 9z m610 -9 c12 -18 11 -24 -2 -43 -21 -31 -62 -29 -74 4
-13 32 -13 30 6 49 21 21 53 16 70 -10z m74 -31 c0 -7 -7 -14 -15 -18 -12 -4
-15 3 -15 31 0 35 1 36 15 17 8 -10 15 -24 15 -30z m-382 -37 c3 -22 -2 -29
-24 -37 -15 -6 -27 -9 -28 -8 -1 2 -7 16 -14 31 -11 25 -10 29 11 37 35 14 52
7 55 -23z m111 17 c3 -3 -2 -10 -12 -15 -9 -6 -17 -17 -17 -25 0 -22 -44 -14
-48 9 -7 36 6 50 40 43 17 -3 34 -9 37 -12z m-448 -25 c19 -10 18 -12 -17 -30
-21 -10 -39 -17 -41 -15 -6 6 20 56 29 56 5 0 18 -5 29 -11z m760 -15 c5 -15
8 -28 7 -29 -2 -1 -18 4 -36 12 -28 11 -32 16 -22 28 19 23 39 18 51 -11z
m-301 0 c0 -8 -5 -12 -10 -9 -6 4 -8 11 -5 16 9 14 15 11 15 -7z m-200 -4 c0
-5 -4 -10 -10 -10 -5 0 -10 5 -10 10 0 6 5 10 10 10 6 0 10 -4 10 -10z m270
-9 c15 -30 12 -41 -15 -51 -26 -10 -55 -4 -55 12 0 15 34 57 47 58 7 0 17 -9
23 -19z m-390 -1 c0 -5 -4 -10 -10 -10 -5 0 -10 5 -10 10 0 6 5 10 10 10 6 0
10 -4 10 -10z m92 -10 c20 -19 21 -21 6 -37 -16 -15 -19 -15 -42 1 -23 14 -24
19 -14 36 16 25 23 25 50 0z m-178 -29 c10 -11 16 -30 14 -43 -3 -20 -9 -23
-43 -23 -36 0 -40 2 -43 28 -2 19 3 33 15 43 25 18 37 17 57 -5z m321 9 c-3
-5 -17 -9 -30 -8 -31 3 -21 18 11 18 14 0 22 -4 19 -10z m360 -46 c0 -26 -4
-29 -37 -32 -33 -3 -38 0 -44 24 -6 22 -2 31 16 46 20 16 25 17 44 5 13 -9 21
-25 21 -43z m-535 -37 c0 -26 -3 -29 -22 -23 -13 3 -29 6 -35 6 -16 0 -17 24
-3 50 9 17 14 18 35 8 18 -8 25 -19 25 -41z m223 33 c52 -41 45 -129 -12 -163
-56 -33 -120 -16 -146 38 -22 48 -19 79 14 114 24 26 37 31 74 31 29 0 53 -7
70 -20z m152 -11 c8 -36 8 -36 -30 -41 -36 -4 -46 23 -19 53 25 27 41 24 49
-12z m-95 -22 c0 -5 -4 -5 -10 -2 -5 3 -10 14 -10 23 0 15 2 15 10 2 5 -8 10
-19 10 -23z m315 -17 c-6 -10 -35 -14 -35 -5 0 3 6 14 12 25 11 16 14 17 21 5
4 -8 5 -20 2 -25z m-835 -1 c0 -5 -9 -9 -20 -9 -19 0 -27 20 -13 33 7 8 33
-11 33 -24z m-2 -61 c-7 -19 -38 -22 -38 -4 0 10 9 16 21 16 12 0 19 -5 17
-12z m242 -17 c0 -10 -11 -26 -25 -35 -23 -15 -25 -15 -35 3 -17 33 -12 49 18
53 35 5 42 1 42 -21z m361 19 c21 0 25 -21 9 -51 -10 -18 -12 -18 -35 -3 -29
19 -36 71 -9 60 9 -3 24 -6 35 -6z m229 -10 c0 -11 -2 -20 -5 -20 -2 0 -9 9
-15 20 -9 16 -8 20 5 20 8 0 15 -9 15 -20z m-737 -18 c34 -37 -29 -94 -69 -62
-19 16 -18 39 3 62 20 23 45 23 66 0z m420 1 c-8 -23 -34 -53 -45 -53 -5 0 4
16 19 35 32 40 35 42 26 18z m255 5 c32 -32 -4 -87 -48 -73 -25 8 -37 50 -20
70 15 18 51 20 68 3z m-484 -61 c18 -13 17 -15 -7 -39 l-26 -26 -23 25 c-23
24 -23 25 -4 39 25 17 37 18 60 1z m66 -2 c16 -19 0 -19 -26 0 -16 12 -16 14
-3 15 9 0 22 -7 29 -15z m211 5 c25 -14 24 -25 -2 -49 l-22 -20 -19 25 c-16
20 -18 28 -8 39 15 18 25 19 51 5z m244 -42 c-12 -40 -28 -50 -50 -34 -19 14
-19 15 8 25 15 6 27 15 27 21 0 5 5 10 11 10 6 0 8 -9 4 -22z m-440 -33 c0
-21 -5 -31 -19 -33 -28 -6 -39 11 -25 42 17 36 44 30 44 -9z m95 16 c0 -11 5
-23 11 -27 15 -9 -9 -24 -38 -24 -19 0 -23 6 -23 29 0 16 6 32 13 34 25 11 37
6 37 -12z m-427 -1 c8 0 8 -3 0 -11 -13 -13 -43 -5 -43 12 0 6 7 8 16 5 9 -3
21 -6 27 -6z m267 0 c0 -5 -4 -10 -10 -10 -5 0 -10 5 -10 10 0 6 5 10 10 10 6
0 10 -4 10 -10z m200 0 c0 -5 -4 -10 -10 -10 -5 0 -10 5 -10 10 0 6 5 10 10
10 6 0 10 -4 10 -10z m-324 -28 c17 -11 24 -53 13 -74 -21 -39 -89 -11 -89 37
0 34 46 57 76 37z m502 -22 c18 -29 -1 -60 -36 -60 -31 0 -52 16 -52 40 0 41
65 56 88 20z m-602 -35 c6 -25 9 -45 8 -45 -8 0 -54 57 -54 67 0 10 13 20 30
22 3 1 10 -19 16 -44z m678 28 c4 -10 -1 -25 -14 -37 l-20 -20 0 37 c0 39 22
52 34 20z m56 -13 c0 -5 -7 -7 -15 -4 -8 4 -15 8 -15 10 0 2 7 4 15 4 8 0 15
-4 15 -10z m-472 -52 c18 -18 14 -49 -10 -75 l-22 -23 -23 22 c-13 12 -23 32
-23 44 0 36 52 58 78 32z m176 -4 c9 -8 16 -23 16 -31 0 -21 -29 -53 -47 -53
-15 0 -53 35 -53 50 0 15 38 50 54 50 8 0 22 -7 30 -16z m-341 -34 c4 -4 1
-13 -8 -20 -14 -11 -20 -9 -43 14 l-27 26 35 -6 c19 -4 39 -10 43 -14z m490 3
c4 -3 -2 -13 -14 -21 -22 -15 -47 -3 -35 17 8 12 39 15 49 4z m-79 -38 c3 -9
-3 -19 -15 -26 -27 -14 -34 -6 -17 20 15 25 24 26 32 6z m-354 -10 c7 -9 10
-18 7 -21 -10 -11 -37 5 -37 21 0 19 14 19 30 0z m127 -51 c-2 -2 -12 -1 -22
3 -18 6 -18 7 1 13 17 7 33 -5 21 -16z m86 11 c1 -5 -6 -11 -15 -13 -11 -2
-18 3 -18 13 0 17 30 18 33 0z"/>
<path d="M6151 1240 c-250 -66 -414 -321 -372 -579 15 -92 73 -203 139 -267
43 -41 126 -92 188 -115 70 -26 224 -32 294 -10 73 22 168 73 208 111 48 45
117 136 132 175 36 93 59 240 41 272 -5 10 -12 36 -15 57 -10 64 -66 157 -137
228 -76 75 -93 85 -202 122 -94 31 -171 33 -276 6z m109 -75 c0 -30 -3 -30
-37 -8 -23 16 -24 17 -7 24 34 13 44 9 44 -16z m85 15 c7 -11 -42 -37 -51 -27
-4 3 -4 13 -1 22 7 17 42 21 52 5z m-227 -45 c-11 -13 -25 -22 -30 -19 -15 9
-8 24 15 34 35 14 38 12 15 -15z m336 19 c17 -7 21 -29 7 -38 -5 -3 -16 5 -25
19 -16 25 -11 30 18 19z m-238 -49 c16 -25 16 -27 -6 -50 -13 -14 -27 -25 -31
-25 -14 0 -39 32 -39 50 0 22 26 50 45 50 8 0 22 -11 31 -25z m182 13 c19 -19
14 -56 -9 -68 -16 -9 -26 -8 -45 5 -27 17 -29 27 -14 56 12 21 50 25 68 7z
m-324 -23 c21 -32 20 -38 -3 -25 -11 5 -31 10 -45 10 -32 0 -34 13 -3 28 31
15 33 15 51 -13z m474 3 c19 -19 14 -25 -17 -20 -20 3 -28 8 -24 18 6 17 25
18 41 2z m-591 -88 c-12 -42 -24 -51 -34 -24 -4 11 30 64 42 64 1 0 -3 -18 -8
-40z m107 24 c21 -20 20 -43 -1 -66 -20 -22 -41 -23 -65 -1 -24 22 -23 49 4
67 28 20 43 20 62 0z m506 -39 c0 -47 -57 -57 -80 -15 -13 24 -3 50 24 60 26
10 56 -14 56 -45z m65 0 c0 -10 -6 -20 -12 -22 -8 -3 -13 5 -13 22 0 17 5 25
13 23 6 -3 12 -13 12 -23z m-380 -51 c0 -23 -5 -30 -23 -32 -24 -4 -54 24 -48
43 3 10 45 24 61 21 6 -2 10 -16 10 -32z m92 28 c10 -7 10 -14 0 -35 -17 -39
-51 -33 -55 11 -3 28 0 32 20 32 13 0 29 -4 35 -8z m-417 -37 c10 -12 10 -15
0 -15 -8 0 -22 -7 -32 -17 -24 -21 -34 -10 -20 22 13 28 34 32 52 10z m749 -7
c11 -30 -1 -34 -35 -12 -24 16 -25 19 -8 25 30 12 34 10 43 -13z m-298 -11
c-13 -13 -26 -3 -16 12 3 6 11 8 17 5 6 -4 6 -10 -1 -17z m69 -41 c-8 -8 -23
-16 -34 -18 -22 -4 -47 29 -30 40 6 4 14 16 18 26 6 19 8 18 34 -7 23 -24 25
-29 12 -41z m-285 -7 c-9 -14 -51 -11 -63 4 -9 10 -7 19 4 36 l16 22 24 -26
c13 -15 22 -31 19 -36z m15 51 c0 -5 -4 -10 -10 -10 -5 0 -10 5 -10 10 0 6 5
10 10 10 6 0 10 -4 10 -10z m-200 -55 c17 -20 4 -62 -21 -70 -31 -10 -64 25
-55 59 5 20 13 26 35 26 16 0 34 -7 41 -15z m678 -22 c4 -43 -28 -62 -64 -38
-24 16 -29 31 -18 60 5 12 17 15 43 13 32 -3 36 -6 39 -35z m-280 -4 c20 -32
10 -30 -16 2 -13 16 -17 27 -10 24 7 -3 19 -15 26 -26z m-49 6 c63 -32 66
-132 6 -173 -18 -13 -47 -24 -64 -24 -58 -2 -119 81 -98 132 30 72 93 98 156
65z m-226 -9 c19 -14 23 -41 7 -51 -5 -3 -21 -3 -35 1 -27 7 -33 32 -13 52 15
15 19 15 41 -2z m391 -2 c14 -36 7 -49 -29 -51 -29 -1 -35 2 -35 19 0 37 52
63 64 32z m220 -55 c-7 -12 -44 -11 -44 1 0 6 4 10 9 10 5 0 13 10 17 22 l7
23 8 -24 c5 -12 7 -27 3 -32z m-837 4 c4 -10 11 -21 17 -25 6 -4 7 -11 2 -15
-4 -4 -14 1 -22 11 -8 11 -14 16 -14 11 0 -5 -5 -4 -11 2 -12 12 -4 33 12 33
5 0 13 -8 16 -17z m213 -27 c0 -3 -4 -8 -10 -11 -5 -3 -10 -1 -10 4 0 6 5 11
10 11 6 0 10 -2 10 -4z m305 -61 c-18 -36 -61 -72 -49 -40 4 8 9 15 13 15 5 0
16 16 26 35 25 45 32 37 10 -10z m-277 7 c4 -29 -44 -54 -59 -31 -16 25 -10
47 14 52 33 6 42 2 45 -21z m370 18 c14 0 16 -29 2 -50 -14 -22 -60 6 -60 38
0 20 4 23 23 18 12 -3 28 -6 35 -6z m222 -15 c0 -14 -2 -25 -4 -25 -2 0 -11
11 -20 25 -16 24 -16 25 4 25 15 0 20 -7 20 -25z m-842 3 c-6 -18 -28 -21 -28
-4 0 9 7 16 16 16 9 0 14 -5 12 -12z m91 -8 c39 -20 31 -80 -10 -80 -55 0 -78
46 -37 74 26 19 24 19 47 6z m689 -2 c20 -20 14 -58 -10 -67 -43 -17 -85 31
-58 64 15 18 52 19 68 3z m-203 -58 c18 -20 18 -21 -5 -45 -27 -28 -40 -32
-40 -10 0 7 -8 18 -17 24 -17 9 -16 11 1 30 24 26 38 26 61 1z m-284 -6 c17
-21 23 -64 8 -64 -6 0 -9 7 -5 15 7 18 -5 20 -22 3 -10 -10 -17 -7 -35 10 -22
23 -22 23 -3 38 26 18 40 18 57 -2z m54 6 c3 -6 -1 -7 -9 -4 -18 7 -21 14 -7
14 6 0 13 -4 16 -10z m70 -10 c4 -6 -6 -10 -22 -9 -25 0 -26 1 -8 9 11 5 21 9
22 9 1 1 5 -3 8 -9z m398 -41 c-7 -25 -30 -36 -46 -20 -8 8 -6 15 9 26 28 21
43 19 37 -6z m-623 1 c0 -5 -2 -10 -4 -10 -3 0 -8 5 -11 10 -3 6 -1 10 4 10 6
0 11 -4 11 -10z m188 -28 c3 -25 0 -32 -15 -32 -34 0 -45 14 -33 44 14 38 44
31 48 -12z m99 9 c12 -32 3 -41 -38 -41 -14 0 -19 7 -19 29 0 27 10 38 35 40
6 1 16 -12 22 -28z m-434 9 c8 0 8 -3 0 -11 -13 -13 -43 -5 -43 12 0 6 7 8 16
5 9 -3 21 -6 27 -6z m467 0 c0 -5 -7 -10 -16 -10 -8 0 -12 5 -9 10 3 6 10 10
16 10 5 0 9 -4 9 -10z m-327 -24 c18 -14 26 -63 13 -85 -10 -16 -52 -14 -70 5
-22 21 -20 46 4 72 24 25 29 26 53 8z m-89 -96 c5 -8 -5 -2 -22 14 -37 34 -39
44 -14 62 15 11 18 9 22 -24 3 -20 10 -44 14 -52z m590 74 c21 -20 20 -30 -4
-54 -25 -25 -42 -25 -65 0 -40 44 27 97 69 54z m82 -9 c6 -16 -12 -45 -27 -45
-5 0 -9 14 -9 30 0 32 26 43 36 15z m-245 -74 c21 -16 22 -22 11 -45 -14 -30
-46 -34 -74 -9 -24 21 -23 39 4 57 28 20 31 20 59 -3z m-173 -3 c19 -19 14
-44 -12 -62 -23 -14 -26 -14 -47 3 -32 26 -20 71 19 71 15 0 33 -5 40 -12z
m-158 -28 c0 -4 -7 -13 -15 -20 -13 -10 -19 -10 -35 5 -28 26 -25 32 15 27 19
-2 35 -8 35 -12z m472 -22 c-12 -12 -42 -4 -42 11 0 12 44 19 49 8 2 -5 -1
-13 -7 -19z m-419 -23 c19 -26 9 -32 -23 -15 -11 6 -17 17 -14 25 8 21 16 18
37 -10z m350 11 c6 -14 -40 -53 -50 -42 -6 5 28 55 38 56 4 0 9 -6 12 -14z
m-223 -51 c0 -8 -9 -15 -19 -15 -24 0 -36 16 -19 23 24 10 38 7 38 -8z m103 4
c20 -1 20 -2 -3 -9 -39 -13 -50 -11 -50 6 0 11 5 14 16 10 9 -3 25 -6 37 -7z"/>
<path d="M7700 1253 c-166 -28 -329 -145 -399 -287 -65 -132 -65 -300 -1 -430
28 -57 113 -158 161 -191 97 -68 164 -88 299 -89 l115 -1 85 42 c146 71 234
169 278 308 87 277 -75 562 -362 636 -68 18 -121 21 -176 12z m43 -92 c3 -14
4 -27 2 -29 -1 -2 -19 8 -39 22 -36 24 -33 33 11 33 15 0 23 -7 26 -26z m95
19 c11 0 4 -8 -16 -20 -40 -24 -42 -25 -42 -2 0 24 10 34 28 27 7 -3 21 -5 30
-5z m-214 -28 c-5 -4 -17 -17 -26 -30 -13 -19 -17 -20 -27 -8 -15 18 11 46 42
46 12 0 17 -4 11 -8z m319 -4 c11 -9 14 -18 7 -28 -7 -12 -12 -12 -29 4 -12
11 -21 23 -21 28 0 12 24 10 43 -4z m-252 -28 c30 -17 26 -67 -7 -82 -23 -11
-29 -10 -45 11 -24 29 -24 36 1 61 23 23 25 23 51 10z m195 -15 c16 -24 16
-27 -1 -45 -31 -34 -75 -19 -75 25 0 48 49 60 76 20z m-325 -14 l16 -28 -46 5
c-58 6 -61 9 -31 32 34 26 42 25 61 -9z m479 -13 c0 -5 -13 -8 -30 -8 -32 0
-37 9 -19 27 9 9 16 9 30 0 11 -7 19 -15 19 -19z m-597 -76 c-6 -43 -18 -50
-37 -19 -8 12 -5 22 14 42 13 13 25 24 26 22 2 -1 0 -22 -3 -45z m101 32 c9
-8 16 -29 16 -45 0 -49 -71 -54 -90 -7 -7 19 -4 27 16 46 30 26 37 27 58 6z
m492 -2 c18 -12 24 -42 13 -63 -8 -15 -19 -19 -42 -17 -27 2 -33 8 -35 31 -5
45 30 72 64 49z m-430 -59 c-11 -11 -19 6 -11 24 8 17 8 17 12 0 3 -10 2 -21
-1 -24z m512 15 c2 -9 -4 -18 -13 -21 -11 -5 -15 0 -15 19 0 28 23 29 28 2z
m-378 -43 c0 -24 -5 -35 -14 -35 -8 0 -21 -3 -30 -6 -12 -4 -16 0 -16 15 0 12
-5 21 -11 21 -20 0 -3 24 22 31 44 13 49 10 49 -26z m107 22 c2 -2 -4 -18 -13
-36 -11 -21 -21 -30 -31 -27 -8 3 -17 6 -19 6 -2 0 -4 16 -4 36 0 36 1 36 32
30 17 -3 33 -8 35 -9z m-441 -31 c18 -14 18 -15 -8 -25 -14 -5 -29 -15 -33
-20 -14 -24 -21 -9 -11 24 12 38 22 42 52 21z m764 -37 c0 -5 -16 -1 -36 8
-33 16 -34 18 -17 31 16 11 20 10 36 -9 9 -12 17 -25 17 -30z m-524 -4 c9 -8
8 -15 -2 -30 -12 -15 -18 -17 -39 -7 -29 13 -32 34 -9 57 14 13 19 14 28 3 6
-7 16 -18 22 -23z m14 25 c0 -5 -4 -10 -10 -10 -5 0 -10 5 -10 10 0 6 5 10 10
10 6 0 10 -4 10 -10z m210 6 c0 -11 -19 -15 -25 -6 -3 5 1 10 9 10 9 0 16 -2
16 -4z m52 -13 c24 -21 23 -40 -3 -53 -15 -9 -24 -8 -37 1 -9 8 -19 14 -20 15
-5 3 31 53 37 54 3 0 13 -7 23 -17z m-372 -3 c0 -5 -4 -10 -10 -10 -5 0 -10 5
-10 10 0 6 5 10 10 10 6 0 10 -4 10 -10z m-82 -47 c24 -45 -32 -90 -69 -57
-36 32 -18 74 33 74 16 0 31 -7 36 -17z m660 5 c21 -21 14 -57 -12 -70 -14 -6
-32 -8 -40 -5 -21 8 -31 54 -16 72 15 18 51 20 68 3z m-296 -45 c40 -39 40
-103 -1 -144 -16 -16 -38 -29 -49 -29 -15 0 -19 -5 -15 -20 4 -13 0 -20 -10
-20 -25 0 -87 30 -87 41 0 7 11 4 26 -6 14 -9 29 -14 32 -10 4 4 -2 11 -12 17
-35 19 -55 47 -62 84 -9 46 11 82 57 107 43 22 84 16 121 -20z m-466 -68 c1
-11 0 -14 -2 -7 -3 6 -14 12 -25 12 -15 0 -19 7 -19 33 0 19 3 37 7 40 7 8 34
-46 39 -78z m234 70 c6 -8 9 -23 5 -34 -5 -17 -12 -19 -38 -14 -41 8 -39 6
-28 37 12 29 41 35 61 11z m378 -18 c2 -19 -1 -27 -12 -27 -8 0 -21 -3 -29 -6
-24 -9 -34 36 -11 53 27 20 49 12 52 -20z m215 -7 c3 -13 -1 -24 -13 -30 -25
-13 -34 3 -18 30 16 25 24 25 31 0z m-627 -57 c-10 -10 -19 5 -10 18 6 11 8
11 12 0 2 -7 1 -15 -2 -18z m-220 -41 c-18 -18 -31 -10 -23 12 4 10 13 13 22
9 15 -5 15 -7 1 -21z m258 6 c4 -15 0 -27 -11 -35 -23 -17 -53 -16 -53 1 0 8
-3 21 -6 29 -4 11 2 17 23 20 15 2 31 5 34 6 4 0 9 -9 13 -21z m265 -27 c-12
-23 -26 -41 -30 -41 -4 0 4 20 18 46 14 25 27 43 30 40 3 -2 -5 -23 -18 -45z
m109 10 c-2 -17 -10 -27 -24 -29 -26 -4 -48 21 -40 46 5 14 13 17 37 14 26 -4
30 -8 27 -31z m212 18 c0 -18 -2 -19 -15 -9 -8 7 -15 16 -15 21 0 5 7 9 15 9
9 0 15 -9 15 -21z m-60 -13 c19 -24 8 -60 -22 -70 -33 -12 -58 6 -58 40 0 38
55 59 80 30z m-670 -15 c15 -29 13 -39 -14 -56 -20 -14 -28 -14 -45 -3 -46 28
-33 78 20 78 18 0 32 -7 39 -19z m459 -40 c24 -18 24 -20 8 -45 -10 -14 -19
-26 -22 -26 -2 0 -15 11 -28 24 -22 22 -23 27 -10 45 17 25 21 26 52 2z m-274
-5 c25 -18 32 -66 9 -66 -10 0 -14 5 -10 15 3 8 1 15 -4 15 -6 0 -10 -5 -10
-11 0 -6 -10 -9 -22 -7 -29 4 -36 37 -12 55 22 16 26 16 49 -1z m513 -51 c-11
-25 -48 -35 -48 -14 0 14 30 38 47 39 10 0 10 -6 1 -25z m-758 -16 c0 -17 -30
-17 -40 1 -15 28 -13 31 15 18 14 -6 25 -15 25 -19z m328 19 c14 -14 16 -54 3
-62 -5 -4 -21 -2 -34 3 -24 9 -25 12 -14 40 12 33 26 38 45 19z m92 -6 c0 -10
5 -23 12 -30 8 -8 5 -14 -16 -22 -15 -5 -32 -8 -37 -4 -16 9 -10 52 9 63 25
15 32 13 32 -7z m40 -2 c0 -5 -5 -10 -11 -10 -5 0 -7 5 -4 10 3 6 8 10 11 10
2 0 4 -4 4 -10z m-303 -50 c10 -20 10 -29 -1 -45 -17 -26 -59 -31 -80 -10 -21
22 -20 41 5 66 26 26 60 21 76 -11z m-117 -7 c0 -65 27 -93 86 -93 22 0 23 -2
14 -20 -16 -30 -30 -25 -93 37 -59 58 -65 71 -45 91 21 21 38 14 38 -15z m588
15 c20 -20 15 -66 -8 -73 -50 -16 -87 29 -54 66 20 22 44 25 62 7z m-418 -8
c0 -5 -4 -10 -10 -10 -5 0 -10 5 -10 10 0 6 5 10 10 10 6 0 10 -4 10 -10z
m500 -30 c-18 -34 -30 -32 -30 5 0 33 2 35 20 25 16 -9 18 -15 10 -30z m-402
-77 c4 -43 -28 -62 -64 -38 -27 17 -29 27 -13 56 8 15 19 19 42 17 28 -3 32
-7 35 -35z m176 15 c14 -23 -3 -52 -33 -56 -42 -6 -67 38 -39 66 17 17 58 11
72 -10z m134 -30 c-3 -7 -13 -13 -23 -13 -10 0 -20 6 -22 13 -3 7 5 12 22 12
17 0 25 -5 23 -12z m-74 -24 c7 -19 8 -17 -21 -33 -26 -13 -27 -11 -11 24 13
29 23 32 32 9z m-344 -14 c8 -15 8 -20 -2 -20 -22 0 -41 17 -34 29 11 17 24
13 36 -9z m213 -42 c-31 -12 -43 -9 -43 11 0 17 3 18 30 8 26 -10 28 -13 13
-19z m-83 13 c0 -16 -19 -23 -43 -15 -21 7 -21 7 -2 15 28 11 45 11 45 0z m37
-67 c-3 -3 -12 -4 -19 -1 -8 3 -5 6 6 6 11 1 17 -2 13 -5z"/>
<path d="M8980 1234 c-94 -15 -158 -43 -235 -101 -204 -156 -256 -429 -124
-655 92 -157 248 -240 444 -235 93 3 106 6 189 43 71 33 102 54 156 109 38 37
80 91 94 119 34 68 68 199 63 245 -31 260 -189 439 -422 477 -71 11 -81 11
-165 -2z m58 -81 c4 -27 5 -26 -37 -12 -32 11 -40 24 -18 33 26 11 52 1 55
-21z m91 20 c23 -6 23 -6 -10 -24 -43 -23 -49 -23 -49 -1 0 32 13 38 59 25z
m-219 -30 c0 -10 -32 -43 -42 -43 -14 0 -9 22 10 36 19 15 32 18 32 7z m324 1
c17 -6 22 -39 8 -48 -5 -3 -19 8 -31 24 -22 31 -15 38 23 24z m-63 -34 c37
-20 18 -80 -26 -80 -42 0 -59 44 -29 74 18 19 28 20 55 6z m-316 -30 c18 -35
19 -48 3 -32 -7 7 -30 12 -52 12 l-41 1 28 24 c36 32 43 31 62 -5z m135 16
c28 -35 -11 -93 -47 -70 -19 12 -28 46 -19 70 7 18 50 18 66 0z m341 -16 l24
-19 -37 -1 c-41 0 -41 0 -32 24 8 21 17 20 45 -4z m-485 -74 c10 -41 1 -61
-29 -64 -34 -4 -57 13 -57 42 0 30 18 46 52 46 21 0 29 -6 34 -24z m488 18
c16 -6 21 -39 10 -68 -10 -27 -62 -20 -76 9 -9 21 -8 28 7 45 19 21 33 24 59
14z m-609 -72 c-3 -3 -13 2 -22 11 -16 15 -15 18 3 38 l19 21 3 -32 c2 -17 1
-35 -3 -38z m693 25 c2 -10 -3 -17 -12 -17 -10 0 -16 9 -16 21 0 24 23 21 28
-4z m-388 -41 c0 -22 -6 -36 -16 -40 -26 -10 -32 -7 -47 23 -14 27 -13 30 7
39 41 20 56 15 56 -22z m95 24 c24 -9 25 -11 11 -26 -9 -8 -16 -22 -16 -30 0
-17 -1 -17 -33 -5 -20 8 -23 15 -19 40 5 33 15 37 57 21z m-428 -33 c21 -12
21 -13 -18 -34 -21 -12 -39 -20 -39 -19 0 12 23 66 28 66 4 -1 17 -6 29 -13z
m762 -13 c15 -35 11 -37 -29 -18 -31 16 -32 18 -15 31 26 18 30 17 44 -13z
m-291 -2 c2 -7 -3 -12 -12 -12 -9 0 -16 7 -16 16 0 17 22 14 28 -4z m69 -46
c-2 -6 -16 -15 -30 -20 -21 -8 -31 -6 -45 7 -11 12 -13 20 -6 25 6 4 17 18 24
31 l13 25 24 -28 c13 -16 22 -33 20 -40z m-282 44 c3 -5 -1 -10 -10 -10 -9 0
-13 5 -10 10 3 6 8 10 10 10 2 0 7 -4 10 -10z m-115 -10 c0 -5 -7 -10 -15 -10
-8 0 -15 5 -15 10 0 6 7 10 15 10 8 0 15 -4 15 -10z m74 -5 c3 -8 12 -15 21
-15 18 0 19 -12 3 -28 -15 -15 -29 -15 -51 2 -15 12 -16 18 -7 35 13 25 26 27
34 6z m151 -25 c4 -6 -7 -10 -27 -10 -25 0 -29 3 -18 10 19 13 37 13 45 0z
m-303 -25 c10 -22 9 -29 -9 -47 -43 -42 -107 9 -67 53 25 28 62 25 76 -6z
m666 13 c36 -36 -11 -93 -57 -69 -39 21 -21 81 24 81 12 0 26 -5 33 -12z
m-312 -42 c36 -31 38 -37 37 -82 -2 -43 -1 -47 11 -31 20 26 26 21 15 -12 -11
-32 -55 -78 -66 -68 -3 4 4 18 17 32 30 32 21 32 -26 0 -48 -33 -76 -32 -118
5 -64 57 -51 141 28 176 46 20 59 17 102 -20z m36 17 c9 -10 19 -29 23 -43 4
-14 6 -23 3 -20 -2 3 -16 22 -31 43 -28 37 -24 52 5 20z m128 -47 c0 -29 -66
-34 -73 -6 -5 21 1 33 28 48 16 9 23 8 33 -5 6 -9 12 -26 12 -37z m-396 28
c18 -18 18 -17 10 -38 -4 -11 -14 -14 -37 -9 -41 8 -39 6 -28 37 12 29 32 33
55 10z m609 -41 c-3 -7 -14 -13 -24 -13 -19 0 -19 1 -3 26 12 18 19 22 25 13
4 -7 5 -18 2 -26z m-843 -9 c0 -8 -6 -11 -15 -8 -8 4 -15 15 -15 26 0 17 3 18
15 8 8 -7 15 -19 15 -26z m210 -24 c0 -5 -4 -10 -10 -10 -5 0 -10 5 -10 10 0
6 5 10 10 10 6 0 10 -4 10 -10z m633 -51 c-5 -18 -7 -19 -21 -6 -19 20 -8 55
12 38 8 -7 12 -21 9 -32z m-843 17 c0 -18 -27 -29 -36 -14 -4 5 0 14 7 19 20
13 29 11 29 -5z m244 -8 c4 -17 -1 -28 -17 -40 -30 -23 -36 -22 -47 8 -14 35
-12 47 3 41 8 -3 20 -1 28 4 21 13 26 11 33 -13z m369 10 c14 1 16 -5 10 -26
-10 -45 -37 -50 -61 -12 -15 25 -5 53 17 44 9 -4 24 -6 34 -6z m-521 -25 c37
-33 13 -77 -39 -71 -22 2 -29 9 -31 31 -2 19 3 33 15 43 24 18 33 17 55 -3z
m688 1 c10 -11 11 -23 4 -42 -17 -48 -84 -38 -84 12 0 43 53 63 80 30z m-490
-59 c11 -13 9 -20 -10 -40 -22 -23 -25 -24 -42 -8 -21 19 -23 34 -6 51 17 17
43 15 58 -3z m283 1 c20 -16 14 -42 -15 -57 -11 -6 -21 -9 -21 -7 -1 2 -11 13
-21 25 -15 19 -16 25 -6 38 15 18 39 19 63 1z m-208 -6 c13 -6 15 -9 5 -9 -8
0 -22 4 -30 9 -18 12 -2 12 25 0z m433 -66 c-9 -9 -18 -10 -28 -4 -13 9 -11
13 10 30 22 17 25 17 28 3 2 -8 -2 -21 -10 -29z m-430 -2 c3 -29 1 -32 -22
-32 -27 0 -30 8 -20 48 10 34 38 24 42 -16z m106 6 c9 -17 16 -33 16 -35 0 -2
-17 -3 -37 -1 -34 3 -38 6 -34 28 3 23 16 39 33 40 3 0 14 -14 22 -32z m-424
5 c7 -6 -23 -23 -35 -20 -5 2 -12 12 -13 21 -3 15 1 17 20 11 12 -4 25 -9 28
-12z m260 7 c0 -5 -7 -10 -16 -10 -8 0 -12 5 -9 10 3 6 10 10 16 10 5 0 9 -4
9 -10z m200 -5 c0 -8 -7 -15 -15 -15 -8 0 -15 7 -15 15 0 8 7 15 15 15 8 0 15
-7 15 -15z m-329 -25 c22 -12 26 -59 7 -78 -7 -7 -21 -12 -33 -12 -29 0 -45
19 -45 52 0 39 34 57 71 38z m503 -22 c17 -24 8 -51 -25 -68 -22 -12 -42 -2
-59 30 -13 24 15 60 45 60 13 0 31 -10 39 -22z m-604 -23 c0 -39 28 -74 60
-76 47 -3 57 -11 36 -29 -19 -15 -58 10 -110 72 -28 32 -33 44 -25 55 21 25
39 15 39 -22z m680 19 c11 -13 10 -19 -8 -37 l-22 -21 0 37 c0 40 10 46 30 21z
m54 -16 c-3 -4 -9 -8 -15 -8 -5 0 -9 4 -9 8 0 5 7 9 15 9 8 0 12 -4 9 -9z
m-474 -58 c19 -19 18 -40 -3 -67 -20 -27 -77 -3 -77 33 0 16 35 54 50 54 6 0
19 -9 30 -20z m185 -4 c31 -46 -25 -97 -66 -60 -23 21 -24 42 -2 66 22 25 50
23 68 -6z m140 -20 c12 -11 10 -15 -10 -26 -23 -12 -45 -7 -45 11 0 5 7 9 15
9 8 0 15 5 15 10 0 14 9 13 25 -4z m-78 -60 c-4 -9 -16 -16 -27 -16 -24 0 -25
4 -3 30 19 22 40 12 30 -14z m-343 -3 c9 -23 3 -25 -22 -7 -12 8 -20 19 -17
24 8 13 32 2 39 -17z m108 -35 c-6 -6 -15 -8 -19 -4 -4 4 -1 11 7 16 19 12 27
3 12 -12z m104 7 c18 -14 18 -14 -8 -15 -18 0 -28 5 -28 15 0 19 11 19 36 0z"/>
<path d="M10255 1227 c-97 -21 -189 -72 -252 -141 -113 -124 -143 -200 -143
-363 l0 -108 46 -92 c91 -183 245 -283 440 -283 149 0 268 48 374 151 64 62
88 103 119 200 40 126 31 253 -26 371 -54 113 -176 220 -288 253 -75 21 -198
27 -270 12z m94 -95 l1 -23 -40 23 -39 23 32 15 c29 14 33 14 39 0 4 -8 7 -25
7 -38z m75 12 c-22 -8 -40 -14 -41 -14 -2 0 -3 9 -3 19 0 25 18 31 54 18 l28
-10 -38 -13z m-215 -21 c-13 -16 -25 -30 -27 -33 -3 -4 -22 21 -22 30 0 7 42
27 59 29 10 1 6 -8 -10 -26z m340 4 c11 -14 6 -27 -10 -27 -5 0 -13 9 -19 20
-8 16 -8 20 3 20 8 0 20 -6 26 -13z m-71 -23 c27 -19 28 -45 2 -69 -44 -40
-97 27 -54 69 19 20 24 20 52 0z m-308 -44 c0 -4 -22 -7 -50 -6 -27 1 -50 3
-50 6 0 3 15 15 33 28 l32 23 18 -22 c9 -12 17 -25 17 -29z m133 28 c8 -12 7
-24 -1 -42 -14 -32 -56 -36 -72 -7 -14 27 -13 37 6 56 20 19 53 16 67 -7z
m337 -19 c18 -15 20 -19 7 -15 -10 3 -27 6 -38 6 -10 0 -19 7 -19 15 0 21 20
18 50 -6z m-499 -49 c29 -16 26 -67 -5 -81 -34 -16 -66 3 -66 39 0 46 30 64
71 42z m-101 -35 c0 -36 -15 -46 -38 -23 -9 9 -7 17 10 35 12 13 23 23 25 23
2 0 3 -16 3 -35z m610 20 c15 -18 6 -61 -15 -69 -8 -3 -26 -1 -40 4 -19 7 -25
17 -25 38 0 16 3 32 7 35 12 13 60 7 73 -8z m-444 -32 c-10 -10 -19 5 -10 18
6 11 8 11 12 0 2 -7 1 -15 -2 -18z m514 12 c13 -16 6 -35 -15 -35 -7 0 -12 10
-11 25 1 28 8 31 26 10z m-380 -55 c0 -28 -4 -40 -14 -40 -8 0 -21 -3 -30 -6
-12 -5 -16 0 -16 20 0 14 -4 26 -10 26 -20 0 -9 16 18 27 47 19 52 16 52 -27z
m118 16 c3 -3 -3 -8 -12 -12 -9 -3 -16 -15 -16 -26 0 -29 -44 -20 -48 10 -6
42 3 52 39 42 17 -5 34 -12 37 -14z m-443 -37 c-4 -5 -20 -16 -37 -25 -29 -15
-30 -15 -23 8 12 39 25 49 46 37 11 -5 17 -14 14 -20z m745 2 c15 -29 13 -31
-20 -20 -32 12 -38 24 -17 32 21 9 26 7 37 -12z m-508 -13 c-7 -7 -12 -8 -12
-2 0 14 12 26 19 19 2 -3 -1 -11 -7 -17z m208 6 c0 -8 -4 -12 -10 -9 -5 3 -10
10 -10 16 0 5 5 9 10 9 6 0 10 -7 10 -16z m67 -6 c30 -28 29 -34 -5 -52 -22
-11 -31 -12 -45 -1 -21 15 -22 31 -2 39 8 3 15 12 15 21 0 21 10 19 37 -7z
m-380 -4 c-3 -3 -12 -4 -19 -1 -8 3 -5 6 6 6 11 1 17 -2 13 -5z m86 -8 c21
-16 13 -46 -13 -46 -26 0 -53 33 -38 48 15 15 29 15 51 -2z m-167 -41 c16 -24
16 -27 -2 -46 -37 -41 -93 -5 -73 49 12 31 54 30 75 -3z m307 18 c-7 -2 -21
-2 -30 0 -10 3 -4 5 12 5 17 0 24 -2 18 -5z m362 -17 c23 -34 5 -66 -35 -66
-44 0 -64 44 -34 74 23 23 51 20 69 -8z m-435 0 c0 -2 -7 -7 -16 -10 -8 -3
-12 -2 -9 4 6 10 25 14 25 6z m159 -20 c13 -14 22 -29 20 -33 -2 -5 -17 6 -32
24 -33 38 -22 45 12 9z m-33 -9 c36 -31 45 -111 17 -143 -24 -28 -56 -44 -87
-44 -14 0 -26 -4 -26 -10 0 -14 -33 -13 -48 2 -20 20 -14 30 11 17 20 -10 19
-9 -5 17 -16 17 -30 46 -34 71 -6 39 -4 45 29 78 44 44 100 49 143 12z m-238
-3 c18 -12 20 -19 12 -35 -8 -15 -17 -18 -38 -13 -35 9 -34 7 -23 38 12 30 18
32 49 10z m393 -21 c6 -30 5 -31 -27 -31 -41 0 -57 31 -27 54 27 21 46 13 54
-23z m-632 -34 c-20 -12 -31 4 -23 36 l7 28 14 -28 c13 -23 13 -29 2 -36z
m847 5 c-3 -8 -12 -14 -21 -14 -18 0 -18 1 -4 37 9 25 11 26 21 10 5 -10 7
-25 4 -33z m-626 -29 c0 -8 -4 -15 -10 -15 -5 0 -10 7 -10 15 0 8 5 15 10 15
6 0 10 -7 10 -15z m311 -48 c-12 -36 -47 -75 -57 -64 -4 4 7 22 25 42 17 20
31 43 31 52 0 9 3 14 6 10 3 -3 1 -21 -5 -40z m84 17 c11 4 15 -2 15 -25 0
-38 -25 -49 -52 -22 -24 25 -17 73 8 52 7 -6 21 -9 29 -5z m225 -10 c0 -14 -4
-23 -10 -19 -5 3 -10 15 -10 26 0 10 5 19 10 19 6 0 10 -12 10 -26z m-830 12
c0 -2 -7 -9 -15 -16 -12 -10 -15 -10 -15 4 0 9 7 16 15 16 8 0 15 -2 15 -4z
m239 -10 c10 -11 7 -19 -10 -35 -29 -27 -37 -26 -49 5 -13 33 -13 32 13 37 12
2 25 5 28 6 4 0 12 -5 18 -13z m531 -16 c11 -11 20 -24 20 -30 0 -13 -37 -50
-50 -50 -13 0 -50 41 -50 56 0 13 37 44 52 44 5 0 17 -9 28 -20z m-668 -15
c10 -22 9 -29 -10 -47 -18 -19 -25 -20 -47 -10 -16 8 -25 20 -25 35 0 50 62
66 82 22z m58 -46 c0 -6 -4 -7 -10 -4 -5 3 -10 11 -10 16 0 6 5 7 10 4 6 -3
10 -11 10 -16z m125 5 c15 -15 14 -18 -6 -40 l-23 -24 -23 22 c-29 27 -29 30
0 44 31 16 34 16 52 -2z m278 2 c9 -7 17 -19 17 -27 -1 -18 -50 -55 -50 -38 0
7 -7 21 -16 31 -14 14 -14 20 -4 33 15 18 29 19 53 1z m247 -39 c0 -25 -25
-48 -44 -41 -16 6 -15 9 11 30 33 28 33 28 33 11z m-452 -9 c17 -17 15 -58 -3
-64 -21 -8 -49 16 -35 30 5 5 10 18 10 28 0 21 11 23 28 6z m106 -20 c18 -35
8 -50 -29 -46 -28 4 -35 64 -8 71 10 3 19 5 20 6 1 0 9 -13 17 -31z m-419 2
c7 -11 -22 -33 -35 -25 -5 3 -10 14 -10 25 0 13 5 17 20 13 11 -3 22 -9 25
-13z m259 -1 c-3 -5 -10 -7 -15 -3 -5 3 -7 10 -3 15 3 5 10 7 15 3 5 -3 7 -10
3 -15z m201 12 c7 -12 -12 -24 -25 -16 -11 7 -4 25 10 25 5 0 11 -4 15 -9z
m-321 -43 c29 -42 11 -88 -33 -88 -16 0 -51 38 -51 55 0 19 36 55 54 55 8 0
22 -10 30 -22z m490 -7 c13 -14 14 -24 7 -44 -5 -13 -15 -27 -22 -29 -17 -6
-20 -38 -3 -38 8 0 14 -4 14 -9 0 -10 -24 -21 -46 -21 -17 0 -19 27 -1 33 9 4
9 8 -1 23 -36 54 -37 65 -13 85 29 24 43 24 65 0z m-594 -36 c0 -39 37 -75 76
-75 27 0 32 -17 9 -26 -16 -7 -56 23 -106 81 -31 35 -32 38 -15 51 26 18 36 9
36 -31z m170 36 c0 -6 -4 -13 -10 -16 -5 -3 -10 1 -10 9 0 9 5 16 10 16 6 0
10 -4 10 -9z m510 -24 c0 -14 -20 -37 -32 -37 -4 0 -8 16 -8 35 0 33 2 35 20
25 11 -6 20 -16 20 -23z m-422 -59 c20 -20 14 -55 -12 -71 -22 -15 -25 -14
-45 7 -25 27 -26 39 -5 60 18 19 45 21 62 4z m180 0 c31 -31 -11 -91 -52 -75
-21 8 -31 54 -16 72 15 18 51 20 68 3z m72 -81 c0 -8 -42 -27 -48 -22 -2 2 4
15 15 28 16 23 32 20 33 -6z m-355 3 c10 -11 16 -23 12 -26 -9 -9 -47 16 -47
31 0 21 14 19 35 -5z m200 -21 c4 -6 17 -14 29 -19 17 -7 15 -9 -16 -9 -32 -1
-38 2 -38 19 0 21 15 27 25 9z m-75 -19 c0 -5 -12 -10 -27 -10 -22 0 -25 2
-13 10 20 13 40 13 40 0z"/>
<path d="M3566 1028 c-19 -11 -21 -49 -4 -66 18 -18 42 -15 62 7 31 34 -16 83
-58 59z m34 -33 c0 -8 -4 -15 -10 -15 -5 0 -10 7 -10 15 0 8 5 15 10 15 6 0
10 -7 10 -15z"/>
<path d="M3803 843 c-22 -8 -15 -53 10 -62 30 -12 57 4 57 33 0 30 -31 44 -67
29z m37 -34 c0 -5 -4 -9 -10 -9 -5 0 -10 7 -10 16 0 8 5 12 10 9 6 -3 10 -10
10 -16z"/>
<path d="M2855 3172 c-2 -2 -178 -5 -392 -7 -246 -2 -399 -7 -418 -14 -22 -8
136 -9 580 -5 336 3 770 6 965 7 264 2 360 5 375 15 16 10 -89 12 -543 10
-310 -2 -565 -4 -567 -6z"/>
<path d="M11252 2446 c-62 -20 -85 -38 -123 -97 -29 -46 -33 -60 -33 -119 1
-59 5 -73 33 -114 89 -129 258 -148 364 -40 16 16 40 56 53 88 23 56 23 61 9
103 -19 56 -43 102 -64 127 -46 52 -161 77 -239 52z m196 -75 c32 -25 62 -77
62 -108 0 -21 -31 -1 -113 74 -81 74 -85 80 -60 85 21 5 65 -15 111 -51z
m-166 18 c15 -8 19 -8 14 0 -4 6 -3 11 3 11 6 0 13 -11 17 -24 4 -16 11 -23
20 -19 9 3 12 0 9 -9 -8 -21 142 -150 166 -143 21 7 25 -5 9 -21 -6 -6 -19
-26 -29 -44 -23 -44 -107 -92 -120 -70 -7 10 -4 18 8 27 10 7 21 26 23 43 4
25 -1 35 -24 51 -15 11 -28 27 -28 35 0 8 -11 20 -25 26 -14 6 -25 15 -25 19
0 5 -9 13 -20 19 -15 8 -29 6 -62 -10 -31 -15 -45 -17 -55 -9 -23 20 -14 48
27 89 42 42 58 47 92 29z m13 -147 c-3 -3 -11 0 -18 7 -9 10 -8 11 6 5 10 -3
15 -9 12 -12z m203 -27 c-3 -3 -9 2 -12 12 -6 14 -5 15 5 6 7 -7 10 -15 7 -18z
m-179 -158 c6 -15 -76 1 -105 20 -30 20 -74 92 -74 122 0 19 13 11 88 -55 48
-43 89 -82 91 -87z m-61 102 c47 -42 35 -45 -13 -4 -22 19 -35 34 -30 34 6 0
25 -13 43 -30z m32 11 c0 -5 -2 -10 -4 -10 -3 0 -8 5 -11 10 -3 6 -1 10 4 10
6 0 11 -4 11 -10z"/>
</g>
</svg>
